<?xml version="1.0" encoding="UTF-8" standalone="no"?>
<svg
   xmlns:dc="http://purl.org/dc/elements/1.1/"
   xmlns:cc="http://creativecommons.org/ns#"
   xmlns:rdf="http://www.w3.org/1999/02/22-rdf-syntax-ns#"
   xmlns:svg="http://www.w3.org/2000/svg"
   xmlns="http://www.w3.org/2000/svg"
   viewBox="0 0 744 170.66667"
   height="170.66667"
   width="744"
   xml:space="preserve"
   id="svg2"
   version="1.1"><metadata
     id="metadata8"><rdf:RDF><cc:Work
         rdf:about=""><dc:format>image/svg+xml</dc:format><dc:type
           rdf:resource="http://purl.org/dc/dcmitype/StillImage" /></cc:Work></rdf:RDF></metadata><defs
     id="defs6" /><g
     transform="matrix(1.3333333,0,0,-1.3333333,0,170.66667)"
     id="g10"><g
       transform="scale(0.1)"
       id="g12"><path
         id="path14"
         style="fill:#ffffff;fill-opacity:1;fill-rule:evenodd;stroke:none"
         d="m 5280.78,449.68 c -6.87,-5.528 -50.51,-11.344 -66.87,-19.11 -8.91,-4.23 -57.07,-39.797 -41.98,3.317 15.33,43.828 109.56,56.433 108.85,15.793 z m -298.79,46.164 c -22.94,-8.281 -43.22,-5.754 -67.24,-17.946 -9.36,-4.742 -18.67,-11.855 -27.3,-15.703 -18.74,-8.343 -19.52,7.969 -13.05,21.852 19.28,41.383 108.97,54.461 107.59,11.797 z m 498.35,179.984 c -9.75,-7.535 -48.05,-10.301 -67.36,-19.539 -8.86,-4.238 -58.18,-39.41 -41.8,3.301 15.75,41.086 106.86,59.027 109.16,16.238 z M 5245.25,101.734 c 9.03,3.215 3.08,-0.254 10.09,5.829 2.01,1.738 4.04,4.281 6.17,6.445 4.68,4.769 9.1,8.14 12.57,13.344 1.21,35.472 42.37,57.699 80.8,55.23 -5.9,7.496 -7.31,6.656 -19.21,6.656 5.48,-2.375 11.52,8.129 12.81,15.231 -25.03,-0.371 -16.4,-7.348 -35.21,45.547 -5.47,15.375 -13.5,33.254 -16.72,49.039 35.59,14.496 61.67,69.625 45.32,120.578 -7.28,22.68 -17.23,28.582 -20.69,38.637 l 70,75.769 c 53.46,-22.754 103.03,-7.824 129.39,29.57 30.06,42.645 23.94,96.789 -16.34,133.625 -58.24,53.25 -156.25,14.063 -163.85,-64.195 -2.94,-30.215 6.36,-54.094 20.18,-72.465 -6.53,-11.082 -23.34,-27.187 -33.47,-38.246 -11.46,-12.515 -22.26,-26.355 -33.1,-38.496 l 12.62,-12.144 c -7.5,1.839 -13.07,6.546 -21.84,10.324 -44.03,18.953 -90.7,6.148 -121,-29.078 -13.15,-15.274 -14.3,-23.657 -21.76,-43.719 l 1.59,21.172 -99.93,15.566 c -5.61,33.031 -10.99,47.078 -27.5,66.274 -11.27,13.097 -37.27,28.812 -62.6,31.203 -56.53,5.336 -98.73,-33.645 -108.02,-79.637 -11.65,-57.719 25.04,-100.02 67.4,-114.508 56.01,-19.156 111.8,19.934 122.48,58.778 l 104.42,-15.594 c -0.06,-40.188 12.43,-59.383 32.68,-80.332 21.65,-22.403 48.12,-29.387 86.31,-27.969 5.79,-8.484 31.11,-79.383 33.52,-92.789 -17.38,-19.324 -47.64,-30.449 -47.11,-89.645" /><path
         id="path16"
         style="fill:#ffffff;fill-opacity:1;fill-rule:evenodd;stroke:none"
         d="m 5354.88,182.582 c 17.53,-3.496 30.94,-7.191 30.32,-26.09 -16.02,-7.047 -38.06,-6.254 -56.65,-13.469 -16.67,-6.468 -35.35,-22.964 -51.44,-22.625 l -3.03,6.954 c -3.47,-5.204 -7.89,-8.575 -12.57,-13.344 -2.13,-2.164 -4.16,-4.707 -6.17,-6.445 -7.01,-6.083 -1.06,-2.614 -10.09,-5.829 -0.8,-43.816 29.94,-73.9059 58.48,-87.4254 78.63,-37.25 168.65,44.3906 132.47,130.1294 -12.43,29.449 -44.9,59.812 -87.72,60.031 -1.29,-7.102 -7.33,-17.606 -12.81,-15.231 11.9,0 13.31,0.84 19.21,-6.656" /><path
         id="path18"
         style="fill:#ffffff;fill-opacity:1;fill-rule:evenodd;stroke:none"
         d="m 5463.2,509.559 22.43,-64.653 c -36.41,1.551 -68.99,-3.508 -93.3,-30.519 -14.42,-16.028 -4.07,-12.934 -31.27,-10.289 l 0.84,-29.125 35.55,-5.664 c 19.78,32.902 45.1,57.144 91.47,43.57 80.46,-23.555 61.62,-150.981 -29.03,-143.652 -20.93,1.687 -36.62,12.152 -46.89,22.972 -5.59,5.875 -9.74,11.809 -13.59,20.559 -3.61,8.191 -4.32,20.574 -8.23,28.609 l -36.07,6.004 -12.05,-25.851 c 1.29,-0.86 1.74,-1.332 5.05,-2.438 17.14,-5.711 15.62,3.594 23.84,-16.723 5.59,-13.808 12.82,-23.617 23.46,-34.179 5.56,-5.52 13.8,-11.582 22.38,-16.055 8.57,-4.477 20.06,-7.102 27.55,-11.648 -8.72,-12.821 -29.82,-33.118 -32.94,-42.692 5.84,-5.652 13.46,-13.117 19.34,-15.019 l 47.07,55.531 c 5.81,4.902 75.26,11.812 89.06,83.863 14.66,76.555 -44.79,98.426 -52.3,117.43 -7.74,19.594 -19.73,63.086 -28.32,76.957 l -24.05,-6.988" /><path
         id="path20"
         style="fill:#ffffff;fill-opacity:1;fill-rule:evenodd;stroke:none"
         d="m 4972.51,332.934 25.2,-71.805 c 5.36,-14.008 5.29,-11.125 1.62,-25.883 -18.4,-73.949 49.98,-142.914 124.24,-124.269 28.52,7.156 17.09,14.953 50.5,8.296 11.68,-2.324 46.69,-9.921 56.02,-8.5 l 3.03,24.711 -40.31,7.188 c -6.67,1.129 -8.5,1.023 -12.8,3.879 26.57,44.113 26.74,50.804 14.21,106.734 4.69,7.664 10.75,12.32 15.35,19.215 l -28,12.887 c -7.05,-8.688 -16.76,-18.489 -23.44,-27.832 7.87,-18.907 16.74,-25.063 14.5,-52.961 -4.97,-61.981 -79.65,-86.074 -120.68,-49.321 -48.31,43.274 -25.5,110.864 26.64,126.711 30.18,9.172 37.26,-2.515 59.35,-5.82 6.27,9.934 15.1,16.879 21.17,26.219 l -17.17,22.93 -13.26,-14.196 c -25.16,1.914 -39.42,6.735 -65.2,-3.324 -35.02,-13.66 -32.18,-24.492 -43.73,-28.73 l -23.19,63.343 -24.05,-9.472" /><path
         id="path22"
         style="fill:#ffffff;fill-opacity:1;fill-rule:evenodd;stroke:none"
         d="m 5013.71,535.063 c 3.8,-4.25 5.15,-5.043 8.43,-8.196 5.94,-5.695 4.53,-5.941 11.28,-9.34 3.03,5.442 32.1,40.633 37.23,44.637 20.19,-37.82 34.03,-63.25 90.24,-71.598 l 3.89,-13.617 c 9.48,5.008 14.82,10.715 25.42,15.59 l -9.52,27.797 c -39.44,0.734 -70.94,12.477 -82.65,54.777 -23.64,85.395 99.24,129.996 138.1,50.367 18.58,-38.082 -2.69,-82.835 -28.59,-94.246 l 9.28,-27.796 29.35,2.421 c -2.24,21.422 -7.58,7.766 5.71,25.473 27.21,36.285 22.12,64.246 14.13,100.918 l 58.62,-10.164 2.79,26.633 c -17.89,1.777 -36.1,6.304 -54.45,9.457 -36.06,6.191 -22.55,5.875 -45.42,20.637 -66.95,43.21 -147.36,1.878 -159.03,-66.024 -2.41,-14.047 -2.67,-14.781 -9.42,-23.172 -9.07,-11.265 -42.24,-46.722 -45.39,-54.554" /><path
         id="path24"
         style="fill:#ffffff;fill-opacity:1;fill-rule:evenodd;stroke:none"
         d="m 5062.24,175.07 c 3.15,-37.828 77.93,-20.828 91.04,11.09 4.74,11.528 3.45,24.75 -11.44,17.906 -8.14,-3.734 -14.51,-8.996 -23.2,-13.285 -19.62,-9.676 -40.16,-8.304 -56.4,-15.711" /><path
         id="path26"
         style="fill:#ffffff;fill-opacity:1;fill-rule:evenodd;stroke:none"
         d="m 5429.93,306.547 c -1.3,-46.641 114.98,-9.543 89.34,30.004 -13.67,0.863 -27.16,-13.121 -41.59,-18.27 -14.77,-5.273 -36.68,-6.211 -47.75,-11.734" /><path
         id="path28"
         style="fill:#ffffff;fill-opacity:1;fill-rule:evenodd;stroke:none"
         d="m 5134.78,556.41 c -1.6,-35.535 76.33,-21.695 90.42,12.344 15,36.23 -26.29,8.344 -34.29,4.355 -16.96,-8.449 -47.4,-10.168 -56.13,-16.699" /><path
         id="path30"
         style="fill:#ffffff;fill-opacity:1;fill-rule:evenodd;stroke:none"
         d="m 5492.31,629.633 c 6.38,-1.863 8.33,-4.031 13.75,-0.645 -7.35,6.559 -12.54,1.828 -9.66,14.133 10.14,-4.273 5.52,-8.883 16.64,-10.387 4.96,11.235 3.19,24.121 -11.81,20.805 -13.81,-3.043 -10.99,-14.719 -8.92,-23.906" /><path
         id="path32"
         style="fill:#f3b931;fill-opacity:1;fill-rule:nonzero;stroke:none"
         d="M 271.098,63.7969 14.793,640.422 V 688 l 256.305,577.5 68.187,-24.34 L 132.969,664.32 339.285,86.8164 Z M 4598.88,1265.5 4855.18,688.656 v -47.578 l -256.3,-577.2811 -68.62,24.332 206.09,576.8481 -206.09,577.503 68.62,23.02" /><path
         id="path34"
         style="fill:none;stroke:#f3b931;stroke-width:21.25979996;stroke-linecap:butt;stroke-linejoin:miter;stroke-miterlimit:22.92560005;stroke-dasharray:none;stroke-opacity:1"
         d="M 271.098,63.7969 14.793,640.422 V 688 l 256.305,577.5 68.187,-24.34 L 132.969,664.32 339.285,86.8164 Z M 4598.88,1265.5 4855.18,688.656 v -47.578 l -256.3,-577.2811 -68.62,24.332 206.09,576.8481 -206.09,577.503 z" /><path
         id="path36"
         style="fill:#ffffff;fill-opacity:1;fill-rule:nonzero;stroke:none"
         d="m 684.266,558.391 c -14.641,0 -21.961,6.976 -21.961,20.914 v 102.484 c 0,13.945 7.32,20.918 21.961,20.918 h 278.172 c 13.246,0 19.867,-6.973 19.867,-20.918 V 536.434 c 0,-57.172 -8.016,-104.926 -24.055,-143.27 -16.035,-38.344 -38.516,-69.019 -67.449,-92.023 -28.934,-23.008 -63.27,-39.219 -103.004,-48.629 -39.738,-9.41 -82.965,-14.121 -129.676,-14.121 -48.101,0 -92.027,4.882 -131.766,14.644 -39.738,9.762 -74.07,26.492 -103.003,50.195 -28.934,23.704 -51.243,55.25 -66.93,94.641 -15.684,39.387 -23.527,88.715 -23.527,147.973 v 236.34 c 0,59.257 7.843,108.757 23.527,148.496 15.687,39.738 37.996,71.46 66.93,95.16 28.933,23.71 63.265,40.44 103.003,50.2 39.739,9.76 83.665,14.64 131.766,14.64 48.106,0 92.027,-5.05 131.766,-15.16 39.738,-10.11 73.902,-26.15 102.48,-48.11 28.586,-21.96 50.723,-50.543 66.41,-85.75 15.684,-35.207 23.528,-77.558 23.528,-127.058 v -2.09 c -0.7,-13.946 -7.668,-20.914 -20.914,-20.914 H 790.93 c -14.641,0 -21.957,7.316 -21.957,21.957 v 8.367 c 0,12.547 -1.918,24.398 -5.754,35.555 -3.836,11.152 -10.11,20.918 -18.821,29.281 -8.718,8.363 -20.043,15.164 -33.988,20.394 -13.945,5.227 -31.375,7.84 -52.289,7.84 -41.133,0 -70.238,-9.933 -87.32,-29.801 C 553.723,865.32 545.18,833.773 545.18,790.551 V 538.523 c 0,-43.222 8.543,-74.769 25.621,-94.64 17.082,-19.871 46.187,-29.801 87.32,-29.801 41.133,0 69.891,9.93 86.277,29.801 16.379,19.871 24.575,51.418 24.575,94.64 v 19.868 z M 1098.38,254.078 c -14.64,0 -21.96,6.973 -21.96,20.918 v 565.75 c 0,13.945 6.97,20.914 20.92,20.914 h 176.73 c 14.64,0 21.96,-6.969 21.96,-20.914 v -89.933 h 225.88 c 13.25,0 19.87,-6.977 19.87,-20.918 V 607.543 c 0,-14.641 -6.62,-21.961 -19.87,-21.961 H 1296.03 V 436.039 h 272.94 c 13.24,0 19.87,-6.973 19.87,-20.914 V 276.043 c 0,-14.641 -6.63,-21.965 -19.87,-21.965 z m -21.96,638.957 c -14.64,0 -21.96,6.969 -21.96,20.914 v 140.131 c 0,13.94 7.32,20.91 21.96,20.91 h 485.23 c 13.94,0 20.92,-6.97 20.92,-20.91 V 914.992 c 0,-14.64 -6.98,-21.957 -20.92,-21.957 z m 869.02,-638.957 c -14.64,0 -21.96,6.973 -21.96,20.918 v 565.75 c 0,13.945 6.97,20.914 20.91,20.914 h 176.74 c 14.64,0 21.96,-6.969 21.96,-20.914 v -89.933 h 225.88 c 13.24,0 19.87,-6.977 19.87,-20.918 V 607.543 c 0,-14.641 -6.63,-21.961 -19.87,-21.961 H 2143.09 V 436.039 h 272.94 c 13.24,0 19.86,-6.973 19.86,-20.914 V 276.043 c 0,-14.641 -6.62,-21.965 -19.86,-21.965 z m -21.96,638.957 c -14.64,0 -21.96,6.969 -21.96,20.914 v 140.131 c 0,13.94 7.32,20.91 21.96,20.91 h 485.23 c 13.94,0 20.91,-6.97 20.91,-20.91 V 914.992 c 0,-14.64 -6.97,-21.957 -20.91,-21.957 z m 1252.81,-329.414 181.96,493.589 c 2.09,6.28 4.53,10.81 7.32,13.6 2.79,2.79 8.02,4.18 15.68,4.18 h 177.78 c 14.64,0 21.96,-6.62 21.96,-19.86 V 276.043 c 0,-14.641 -6.97,-21.965 -20.91,-21.965 h -157.91 c -13.94,0 -20.92,7.324 -20.92,21.965 V 625.32 L 3266.22,324.145 c -2.09,-6.274 -4.53,-10.805 -7.32,-13.594 -2.79,-2.789 -8.01,-4.184 -15.69,-4.184 h -133.85 c -7.67,0 -12.73,1.567 -15.16,4.707 -2.44,3.137 -5.06,7.492 -7.84,13.071 l -312.68,722.615 c -3.49,7.67 -3.67,14.29 -0.53,19.87 3.14,5.57 8.89,8.36 17.26,8.36 h 177.77 c 12.55,0 21.27,-5.57 26.15,-16.73 z m -404.71,337.777 c 0,7.668 3.83,12.2 11.51,13.594 7.66,1.395 13.24,-1.742 16.73,-9.41 l 162.09,-375.426 c 3.48,-7.668 5.93,-14.293 7.32,-19.867 1.4,-5.578 2.09,-11.851 2.09,-18.824 V 273.949 c 0,-13.246 -6.97,-19.871 -20.91,-19.871 h -156.87 c -14.64,0 -21.96,6.625 -21.96,19.871 z m 1319.74,-337.777 181.96,493.589 c 2.09,6.28 4.53,10.81 7.32,13.6 2.79,2.79 8.01,4.18 15.68,4.18 h 177.78 c 14.64,0 21.96,-6.62 21.96,-19.86 V 276.043 c 0,-14.641 -6.97,-21.965 -20.91,-21.965 H 4317.2 c -13.95,0 -20.92,7.324 -20.92,21.965 V 625.32 L 4181.25,324.145 c -2.09,-6.274 -4.53,-10.805 -7.32,-13.594 -2.79,-2.789 -8.02,-4.184 -15.69,-4.184 h -133.85 c -7.67,0 -12.73,1.567 -15.16,4.707 -2.44,3.137 -5.06,7.492 -7.85,13.071 L 3688.7,1046.76 c -3.48,7.67 -3.66,14.29 -0.52,19.87 3.14,5.57 8.89,8.36 17.25,8.36 h 177.78 c 12.55,0 21.27,-5.57 26.15,-16.73 z m -404.71,337.777 c 0,7.668 3.84,12.2 11.51,13.594 7.67,1.395 13.24,-1.742 16.73,-9.41 l 162.09,-375.426 c 3.48,-7.668 5.92,-14.293 7.32,-19.867 1.39,-5.578 2.09,-11.851 2.09,-18.824 V 273.949 c 0,-13.246 -6.97,-19.871 -20.91,-19.871 h -156.87 c -14.64,0 -21.96,6.625 -21.96,19.871 v 627.449" /><path
         id="path38"
         style="fill:#f0b20d;fill-opacity:1;fill-rule:nonzero;stroke:none"
         d="m 1801.21,66.8633 h -98.88 V 1262.21 h 98.88 V 66.8633" /><path
         id="path40"
         style="fill:none;stroke:#f3b931;stroke-width:21.25979996;stroke-linecap:butt;stroke-linejoin:miter;stroke-miterlimit:22.92560005;stroke-dasharray:none;stroke-opacity:1"
         d="m 1801.21,66.8633 h -98.88 V 1262.21 h 98.88 z" /><path
         id="path42"
         style="fill:#f0b20d;fill-opacity:1;fill-rule:nonzero;stroke:none"
         d="m 2650.24,66.8633 h -98.88 V 1262.21 h 98.88 V 66.8633" /><path
         id="path44"
         style="fill:none;stroke:#f3b931;stroke-width:21.25979996;stroke-linecap:butt;stroke-linejoin:miter;stroke-miterlimit:22.92560005;stroke-dasharray:none;stroke-opacity:1"
         d="m 2650.24,66.8633 h -98.88 V 1262.21 h 98.88 z" /><path
         id="path46"
         style="fill:#ffffff;fill-opacity:1;fill-rule:nonzero;stroke:none"
         d="m 1900.96,1148 263.67,117.16 h 21.75 l 263.87,-117.16 -11.12,-31.36 -263.67,94.2 -263.97,-94.2 -10.53,31.36" /><path
         id="path48"
         style="fill:none;stroke:#ffffff;stroke-width:21.25979996;stroke-linecap:butt;stroke-linejoin:miter;stroke-miterlimit:22.92560005;stroke-dasharray:none;stroke-opacity:1"
         d="m 1900.96,1148 263.67,117.16 h 21.75 l 263.87,-117.16 -11.12,-31.36 -263.67,94.2 -263.97,-94.2 z" /></g></g></svg>