<?xml version="1.0" encoding="UTF-8"?>
<svg version="1.1" xmlns="http://www.w3.org/2000/svg" width="2320" height="532">
<path d="M0 0 C0.77137802 -0.00540298 1.54275604 -0.01080597 2.33750916 -0.01637268 C4.8791276 -0.02884646 7.4196101 -0.01237722 9.96118164 0.00561523 C11.73328206 0.0054602 13.50538281 0.00397045 15.27748108 0.00120544 C18.98885109 -0.00017799 22.6998344 0.01236889 26.41113281 0.03515625 C31.16028591 0.06352002 35.90879563 0.06080848 40.65799618 0.04806614 C44.31695516 0.04109877 47.97576639 0.04891066 51.6347065 0.06132317 C53.38533524 0.06582885 55.13597989 0.0661822 56.88661003 0.06225777 C59.33749564 0.05933566 61.78750641 0.07590017 64.23828125 0.09765625 C65.31622955 0.09090378 65.31622955 0.09090378 66.41595459 0.08401489 C71.06603122 0.1523335 74.26543975 0.99019333 78.18383789 3.50170898 C80.69490151 6.19863144 81.91211977 8.97064534 83.16650391 12.41064453 C83.52933975 13.39534225 83.8921756 14.38003998 84.26600647 15.39457703 C84.6526799 16.46504776 85.03935333 17.53551849 85.43774414 18.63842773 C85.85040024 19.76396561 86.26305634 20.88950348 86.68821716 22.04914856 C87.81238857 25.11904506 88.93060579 28.19103188 90.04632568 31.26400757 C91.22579962 34.5078437 92.41314021 37.74879711 93.59985352 40.98999023 C95.54041932 46.29257166 97.47707196 51.59656506 99.41088867 56.90161133 C102.95797799 66.63084228 106.53133921 76.35038163 110.10580444 86.06958008 C111.19223221 89.02454058 112.27768171 91.97985855 113.36279297 94.93530273 C118.75710617 109.62725712 124.16358831 124.31471093 129.57485962 139.00042725 C130.91792442 142.6460138 132.26030775 146.29185064 133.60253906 149.93774414 C137.24587083 159.8318765 140.89059748 169.72537701 144.56723022 179.60719299 C145.90568108 183.20468744 147.24105014 186.80332228 148.57629395 190.40200806 C149.47221389 192.81182112 150.37333975 195.21964346 151.2746582 197.62744141 C151.80325533 199.05157372 152.33159366 200.47580213 152.85961914 201.90014648 C153.31248291 203.1136377 153.76534668 204.32712891 154.23193359 205.57739258 C155.18383789 208.50170898 155.18383789 208.50170898 155.18383789 211.50170898 C155.84383789 211.50170898 156.50383789 211.50170898 157.18383789 211.50170898 C157.32039795 210.32342529 157.32039795 210.32342529 157.4597168 209.12133789 C158.4051856 204.39526896 160.05767513 200.08403982 161.76977539 195.58764648 C162.13822571 194.60609085 162.50667603 193.62453522 162.8862915 192.61323547 C163.68592059 190.48424535 164.48793362 188.35614943 165.29205322 186.22885132 C167.47079203 180.46351268 169.63103922 174.69124467 171.79321289 168.91967773 C172.24109161 167.72540665 172.68897034 166.53113556 173.15042114 165.30067444 C177.77457248 152.95612822 182.29804106 140.57552813 186.80883789 128.18920898 C188.39415856 123.84002558 189.98020593 119.49110758 191.56665039 115.14233398 C191.95412445 114.08015152 192.34159851 113.01796906 192.74081421 111.92359924 C198.40037882 96.41821035 204.12369166 80.93641909 209.86499023 65.46113586 C212.26506439 58.9894731 214.65358614 52.51362851 217.03741455 46.03596497 C218.78157403 41.30021515 220.53135879 36.5665557 222.28222656 31.83328247 C223.12748435 29.54464882 223.9704536 27.25516853 224.81103516 24.96481323 C225.97861889 21.78469156 227.15446764 18.6077431 228.33227539 15.43139648 C228.6783786 14.48264145 229.02448181 13.53388641 229.381073 12.55638123 C229.70705475 11.68224075 230.0330365 10.80810028 230.36889648 9.9074707 C230.78828995 8.76989822 230.78828995 8.76989822 231.21615601 7.60934448 C232.29457297 5.26052519 233.47517511 3.44166519 235.18383789 1.50170898 C238.8003277 0.29621238 242.1153697 0.34627351 245.88061523 0.34057617 C246.66306107 0.33561127 247.4455069 0.33064636 248.25166321 0.32553101 C250.84104287 0.31092171 253.43036128 0.30410967 256.01977539 0.29858398 C257.81954958 0.2928318 259.61932375 0.28707408 261.4190979 0.28131104 C265.19354539 0.27080476 268.96797159 0.26495955 272.74243164 0.26147461 C277.57686161 0.25598867 282.41101012 0.231957 287.24535179 0.20350266 C290.96341777 0.18487201 294.68141598 0.17967046 298.39952469 0.17813873 C300.18170334 0.17511297 301.96388082 0.16708699 303.74601364 0.15395355 C306.2403171 0.13688295 308.73393318 0.13877553 311.22827148 0.14526367 C311.96299179 0.13604889 312.6977121 0.12683411 313.45469666 0.11734009 C317.86628215 0.15325495 320.67716348 0.78041564 324.18383789 3.50170898 C325.48771593 6.10946507 325.31287505 8.01257486 325.31805897 10.93442249 C325.32251681 12.09529182 325.32697466 13.25616115 325.33156759 14.45220834 C325.33129104 16.38188259 325.33129104 16.38188259 325.33100891 18.35054016 C325.33430668 19.72226239 325.33803206 21.09398365 325.34215039 22.46570367 C325.35218831 26.24825745 325.35589005 30.03079536 325.3585397 33.81336057 C325.36243742 37.88776729 325.37201607 41.96216138 325.38075256 46.03656006 C325.4005314 55.88232829 325.41058469 65.72809757 325.41948035 75.5738807 C325.42386067 80.20704753 325.42922812 84.84021321 325.43446922 89.47337914 C325.45148243 104.86902918 325.46597772 120.26467849 325.47321796 135.66033649 C325.47512795 139.65718397 325.47704827 143.65403145 325.47900391 147.65087891 C325.47948765 148.64431107 325.47997139 149.63774323 325.48046979 150.6612794 C325.48877426 166.7626941 325.5141178 182.8640346 325.54658458 198.96541689 C325.57962422 215.48515713 325.59766389 232.00485964 325.60086221 248.52463311 C325.60303011 257.80445116 325.61181967 267.084161 325.63732338 276.36394691 C325.65898809 284.26525698 325.6671017 292.16643257 325.6573566 300.06776897 C325.65279964 304.10081312 325.6547786 308.13357954 325.67411804 312.16658592 C325.69166358 315.85728703 325.69082286 319.54750604 325.67522075 323.23821165 C325.67169789 325.20882247 325.68793502 327.17943784 325.70482522 329.14997941 C325.69624433 330.31867198 325.68766344 331.48736456 325.67882252 332.69147205 C325.67979933 333.70006427 325.68077613 334.70865648 325.68178254 335.74781209 C325.04105727 339.29136119 323.71092322 340.97605164 321.18383789 343.50170898 C318.5181899 344.00853387 316.48076312 344.18776027 313.81665039 344.14868164 C312.71350494 344.16182404 312.71350494 344.16182404 311.58807373 344.17523193 C309.16105868 344.19720946 306.73587091 344.18268103 304.30883789 344.16577148 C302.62019501 344.16914014 300.9315545 344.17399318 299.24291992 344.18026733 C295.70541275 344.18763636 292.16853721 344.17693278 288.63110352 344.15356445 C284.09776536 344.12507593 279.56590714 344.14147984 275.03262329 344.17142677 C271.54611063 344.18949937 268.05994855 344.18374206 264.57342529 344.17078781 C262.90207748 344.16745366 261.23069778 344.17154128 259.55938721 344.18318558 C257.22240983 344.19589465 254.88782463 344.17652125 252.55102539 344.14868164 C251.86103455 344.1588028 251.1710437 344.16892395 250.46014404 344.17935181 C246.9992117 344.10301172 245.49640628 343.81234237 243.00756454 341.3389082 C240.89595095 338.0538389 240.67845025 336.34257827 240.66485596 332.47160339 C240.65094315 331.26150604 240.63703033 330.05140869 240.62269592 328.80464172 C240.62772629 327.48546249 240.63275665 326.16628326 240.63793945 324.80712891 C240.62920111 323.39753073 240.61871441 321.98794246 240.60661316 320.57836914 C240.57876393 316.7584601 240.57534822 312.9388749 240.57633305 309.11887908 C240.57320299 305.12428909 240.54758289 301.12984476 240.52435303 297.1353302 C240.48379649 289.57418962 240.46345316 282.01313528 240.45037913 274.45190269 C240.43450789 265.84244152 240.39609177 257.23312709 240.35578585 248.62375104 C240.27339168 230.91645008 240.21929658 213.209163 240.18383789 195.50170898 C236.92340209 204.04076418 233.6629879 212.57982763 230.40258789 221.11889648 C230.16161062 221.75002145 229.92063335 222.38114642 229.67235374 223.03139639 C224.01947275 237.83642953 218.36668935 252.64149984 212.71508789 267.44702148 C211.44410097 270.77645207 210.17310233 274.10587818 208.90209961 277.43530273 C208.06122813 279.63808268 207.2204112 281.84088345 206.37963867 284.04370117 C205.94506348 285.18226563 205.51048828 286.32083008 205.06274414 287.49389648 C204.63807861 288.60674011 204.21341309 289.71958374 203.77587891 290.8661499 C202.96497017 292.98933354 202.15301768 295.11211893 201.33984375 297.23443604 C199.73510208 301.42367566 198.1350254 305.61324085 196.59008789 309.82495117 C196.15696289 310.99445313 195.72383789 312.16395508 195.27758789 313.36889648 C194.93405273 314.31619629 194.59051758 315.26349609 194.23657227 316.23950195 C193.12316882 318.63207996 192.30374021 319.93640364 190.18383789 321.50170898 C186.54752733 322.42347172 183.12945175 322.63272455 179.38720703 322.64697266 C178.24574722 322.65335251 177.10428741 322.65973236 175.92823792 322.66630554 C174.70418747 322.66741837 173.48013702 322.66853119 172.21899414 322.66967773 C170.95292831 322.67300613 169.68686249 322.67633453 168.38243103 322.67976379 C165.70690388 322.68482283 163.03147835 322.68760545 160.35595703 322.68701172 C156.93866843 322.68691009 153.52158757 322.7005708 150.10434818 322.71778393 C146.83007139 322.73161682 143.55579618 322.73099358 140.28149414 322.73217773 C139.05946793 322.73936325 137.83744171 322.74654877 136.5783844 322.75395203 C135.43377243 322.7508754 134.28916046 322.74779877 133.10986328 322.74462891 C132.10790421 322.74605392 131.10594513 322.74747894 130.07362366 322.74894714 C126.80274848 322.46910455 124.20237577 321.79149857 121.18383789 320.50170898 C119.56877078 318.08999153 118.42100172 316.03025124 117.25805664 313.41577148 C116.92223068 312.70280914 116.58640472 311.9898468 116.24040222 311.25527954 C115.19567989 309.01486903 114.18520101 306.76179692 113.18383789 304.50170898 C112.87625549 303.81379272 112.5686731 303.12587646 112.25177002 302.41711426 C110.42671309 298.31570999 108.65794894 294.19219479 106.9145813 290.05548096 C105.63064454 287.00900614 104.3352016 283.96745764 103.0408783 280.92538452 C102.37708687 279.36478482 101.71388657 277.80393354 101.05128479 276.24282837 C97.9857064 269.02164568 94.87232301 261.82194012 91.74633789 254.62670898 C90.95112089 252.79437501 90.15590494 250.96204058 89.36080933 249.12965393 C88.81898171 247.88095926 88.27709079 246.63229205 87.73513794 245.38365173 C84.27289999 237.40547616 80.82253827 229.42216365 77.37133789 221.43920898 C76.69523679 219.87548583 76.01913001 218.31176513 75.34301758 216.74804688 C72.94609052 211.20429188 70.54940161 205.66043392 68.15270996 200.11657715 C65.76739104 194.59906123 63.38195688 189.08159516 60.99633789 183.56420898 C60.66177582 182.79043915 60.32721375 182.01666931 59.98251343 181.2194519 C55.55421889 170.97820872 51.12154949 160.7388749 46.68383789 150.50170898 C41.90745348 139.48327334 37.13741165 128.46210852 32.37133789 117.43920898 C32.03701752 116.66600311 31.70269714 115.89279724 31.35824585 115.09616089 C28.62286355 108.76972103 25.88778191 102.44315119 23.15270996 96.11657715 C21.10433033 91.3784404 19.05584528 86.64034925 17.00723267 81.90231323 C16.33496523 80.34742207 15.66274413 78.79251087 14.99057007 77.23757935 C11.23423737 68.54812776 7.47403454 59.86039518 3.70178223 51.17784119 C1.81094118 46.82480713 -0.07235425 42.46858404 -1.95288086 38.11108398 C-3.74317099 33.96414487 -5.55659052 29.82921959 -7.39819336 25.70483398 C-8.1418388 24.01219412 -8.88534081 22.31949122 -9.62866211 20.62670898 C-10.1265625 19.5397876 -10.1265625 19.5397876 -10.63452148 18.4309082 C-12.74245069 13.57688002 -13.54063841 9.79978755 -12.81616211 4.50170898 C-8.94637523 0.33070976 -5.42940882 -0.07283825 0 0 Z " fill="#FDFDFD" transform="translate(1165.816162109375,84.498291015625)"/>
<path d="M0 0 C0.76293869 -0.00335861 1.52587738 -0.00671722 2.31193542 -0.01017761 C4.83639144 -0.01968359 7.3607811 -0.02163059 9.88525391 -0.02270508 C11.64018786 -0.02591804 13.39512154 -0.02928214 15.15005493 -0.03279114 C18.83034893 -0.03878162 22.51061944 -0.04063113 26.19091797 -0.04003906 C30.90421853 -0.03993748 35.61736833 -0.0535864 40.33063316 -0.07081127 C43.95605153 -0.08193635 47.58143352 -0.08395811 51.20686722 -0.08342934 C52.9443781 -0.08460881 54.68188993 -0.08902877 56.419384 -0.0967617 C58.85131092 -0.10657127 61.28291145 -0.10367972 63.71484375 -0.09765625 C64.43086258 -0.10327576 65.14688141 -0.10889526 65.88459778 -0.11468506 C70.90730361 -0.08311145 74.49646318 0.69179283 78.5612793 3.66015625 C81.44681172 7.38423823 82.74553113 11.48877029 84.29541016 15.90698242 C84.65396591 16.8994397 85.01252167 17.89189697 85.38194275 18.91442871 C86.16158393 21.07653704 86.93605559 23.24051477 87.70599365 25.40609741 C88.94614131 28.89414862 90.19925999 32.37728973 91.45605469 35.859375 C93.00888004 40.16230421 94.5592591 44.46608937 96.1061821 48.77114391 C100.19318177 60.13906245 104.37255232 71.47269224 108.55859375 82.80444336 C110.31203739 87.55168343 112.06246292 92.3000343 113.8130188 97.04833984 C115.14130372 100.65107771 116.47003061 104.25365234 117.79882812 107.85620117 C121.89624374 118.96598743 125.9889029 130.07752624 130.08200073 141.18890381 C132.26102951 147.10411114 134.44034013 153.01921463 136.61962891 158.93432617 C137.44677875 161.17944284 138.27392721 163.42456002 139.10107422 165.66967773 C139.49895142 166.74963013 139.89682861 167.82958252 140.3067627 168.94226074 C145.3667806 182.67659505 150.4267985 196.41092936 155.48681641 210.14526367 C159.86577383 200.10708274 163.60247439 189.84800328 167.35391235 179.56347656 C168.92914904 175.24516482 170.51041213 170.92906626 172.09114075 166.61276245 C172.93225841 164.31577624 173.77306347 162.01867554 174.61357117 159.72146606 C178.88843965 148.03917777 183.18804262 136.36604756 187.49102783 124.6940918 C188.80551597 121.12844689 190.11961354 117.56265828 191.43359375 113.99682617 C194.11771372 106.712866 196.80224094 99.42905597 199.48681641 92.14526367 C200.41992913 89.61352806 201.3530338 87.08178949 202.28613281 84.55004883 C202.63464845 83.60444359 202.63464845 83.60444359 202.99020481 82.63973522 C204.15876629 79.4691013 205.32723642 76.29843376 206.49552917 73.12770081 C208.75407228 66.99811444 211.01338294 60.86881346 213.2746582 54.74023438 C216.92243017 44.85030879 220.56550604 34.9592739 224.14306641 25.04370117 C224.66368042 23.60512276 225.18434805 22.16656375 225.70507812 20.72802734 C226.60503455 18.24117744 227.49605752 15.75176239 228.38183594 13.25976562 C228.94813721 11.69295044 228.94813721 11.69295044 229.52587891 10.09448242 C229.9930835 8.78483521 229.9930835 8.78483521 230.46972656 7.44873047 C231.55254378 4.9964068 232.70188337 3.1448899 234.48681641 1.14526367 C238.10330622 -0.06023293 241.41834822 -0.01017181 245.18359375 -0.01586914 C245.96603958 -0.02083405 246.74848541 -0.02579895 247.55464172 -0.03091431 C250.14402139 -0.04552361 252.7333398 -0.05233564 255.32275391 -0.05786133 C257.12252809 -0.06361351 258.92230226 -0.06937123 260.72207642 -0.07513428 C264.4965239 -0.08564056 268.27095011 -0.09148576 272.04541016 -0.0949707 C276.87984013 -0.10045664 281.71398863 -0.12448831 286.54833031 -0.15294266 C290.26639628 -0.1715733 293.98439449 -0.17677485 297.7025032 -0.17830658 C299.48468185 -0.18133235 301.26685933 -0.18935832 303.04899216 -0.20249176 C305.54329561 -0.21956236 308.03691169 -0.21766978 310.53125 -0.21118164 C311.26597031 -0.22039642 312.00069061 -0.22961121 312.75767517 -0.23910522 C317.58955364 -0.19976874 321.01003589 0.66848315 324.48681641 4.14526367 C324.58785941 5.9241894 324.61789804 7.70716713 324.62103748 9.48895741 C324.62549533 10.65541918 324.62995317 11.82188095 324.6345461 13.02369004 C324.63426956 14.97042958 324.63426956 14.97042958 324.63398743 16.95649719 C324.63728416 18.33631866 324.64100931 19.71613916 324.64512891 21.09595841 C324.65517881 24.90550529 324.65887048 28.71503641 324.66151822 32.52459466 C324.66541244 36.62626659 324.67499137 40.72792592 324.68373108 44.82958984 C324.70352057 54.74399499 324.71356487 64.6584012 324.72245887 74.57282117 C324.72683773 79.23700117 324.73220558 83.90118002 324.73744774 88.56535912 C324.75446256 104.06219529 324.76895789 119.55903074 324.77619648 135.05587482 C324.7781065 139.08005588 324.78002682 143.10423693 324.78198242 147.12841797 C324.78246616 148.12865917 324.7829499 149.12890038 324.7834483 150.15945192 C324.7917529 166.37153647 324.81709594 182.58354733 324.8495631 198.79559968 C324.88259547 215.42491463 324.90064178 232.0541921 324.90384072 248.68354005 C324.90600938 258.02649799 324.9148098 267.3693485 324.9403019 276.71227455 C324.96195679 284.66743597 324.97008513 292.62246387 324.96033511 300.57765142 C324.95577519 304.63891769 324.95777413 308.69990816 324.97709656 312.76113701 C324.99462127 316.47649706 324.99381859 320.19137797 324.97819927 323.90674236 C324.97467025 325.89305198 324.99092899 327.87936601 325.00780374 329.86560708 C324.99922285 331.0398921 324.99064195 332.21417711 324.98180103 333.42404652 C324.98277784 334.43963605 324.98375465 335.45522558 324.98476106 336.50159055 C324.34770157 339.88384806 323.1859611 341.0685465 320.48681641 343.14526367 C317.1854248 343.64646912 317.1854248 343.64646912 313.21142578 343.64697266 C312.12291069 343.65507713 312.12291069 343.65507713 311.0124054 343.66334534 C308.61804182 343.67583401 306.22488043 343.659342 303.83056641 343.64135742 C302.16434669 343.64151241 300.49812661 343.64300133 298.83190918 343.64576721 C295.34155318 343.64715126 291.85160807 343.63459254 288.36132812 343.61181641 C283.88882482 343.58343151 279.4170042 343.58616889 274.94445038 343.59890652 C271.50431494 343.60586373 268.06433712 343.59807398 264.6242218 343.58564949 C262.97521062 343.58113538 261.32618251 343.58079784 259.6771698 343.58471489 C257.37182981 343.58762759 255.06742837 343.57111856 252.76220703 343.54931641 C250.79507751 343.54121193 250.79507751 343.54121193 248.78820801 343.53294373 C245.30656247 343.12409658 243.89995823 342.64014286 241.48681641 340.14526367 C240.43518863 336.99038036 240.3492158 334.74516687 240.32859802 331.43159485 C240.31391479 329.64581528 240.31391479 329.64581528 240.29893494 327.82395935 C240.29317947 326.51629105 240.28742401 325.20862274 240.28149414 323.86132812 C240.27191493 322.47173776 240.26190483 321.08215031 240.25149536 319.69256592 C240.22444483 315.91808917 240.20343607 312.14359992 240.18349338 308.36907983 C240.16163474 304.42524448 240.13424545 300.48144768 240.10743713 296.53764343 C240.05750859 289.06853693 240.01257036 281.59940902 239.96941477 274.13026065 C239.92004378 265.62730446 239.86512514 257.12438696 239.80973518 248.62146819 C239.69591265 231.12943577 239.58907419 213.63736744 239.48681641 196.14526367 C226.50953007 229.65852689 226.50953007 229.65852689 213.71069336 263.24020386 C210.31634614 272.21371238 206.90145055 281.17945884 203.48681641 290.14526367 C203.17192261 290.97241882 202.85702881 291.79957397 202.53259277 292.65179443 C200.69775685 297.467525 198.84777083 302.27706582 196.98681641 307.08276367 C196.56029785 308.20102539 196.1337793 309.31928711 195.69433594 310.47143555 C195.30616699 311.46594727 194.91799805 312.46045898 194.51806641 313.48510742 C194.19386719 314.32420654 193.86966797 315.16330566 193.53564453 316.02783203 C192.41865227 318.28287716 191.46502316 319.59584692 189.48681641 321.14526367 C186.20674877 322.22077115 183.13218007 322.27773853 179.69604492 322.29052734 C177.94886925 322.30009712 177.94886925 322.30009712 176.16639709 322.30986023 C174.28506325 322.31152946 174.28506325 322.31152946 172.36572266 322.31323242 C171.07367416 322.31656082 169.78162567 322.31988922 168.45042419 322.32331848 C165.71767339 322.32929855 162.98495415 322.3311595 160.25219727 322.33056641 C156.75743407 322.33046477 153.26287398 322.34412307 149.76815891 322.36133862 C146.42567712 322.37515579 143.08323264 322.37454789 139.74072266 322.37573242 C138.48852432 322.38291794 137.23632599 322.39010345 135.94618225 322.39750671 C134.77824631 322.39443008 133.61031036 322.39135345 132.40698242 322.38818359 C131.38202164 322.38960861 130.35706085 322.39103363 129.30104065 322.39250183 C125.4977487 322.05837107 122.61272985 321.43018396 120.03662109 318.49026489 C117.29164554 313.73520376 114.88574651 308.93969694 112.73681641 303.88745117 C112.40205795 303.11506104 112.0672995 302.3426709 111.72239685 301.546875 C110.6378079 299.04057252 109.5622839 296.53049194 108.48681641 294.02026367 C107.72579101 292.25714132 106.96414604 290.49428629 106.2019043 288.73168945 C104.67132653 285.18997614 103.14414469 281.64683171 101.62011719 278.10229492 C99.77007762 273.80053837 97.91110022 269.50275274 96.04541016 265.20776367 C92.85267249 257.85642227 89.66866846 250.50132087 86.48681641 243.14526367 C85.86897828 241.71704084 85.25113972 240.28881819 84.63330078 238.8605957 C79.57244132 227.16115677 74.51400511 215.46067033 69.45568848 203.76013184 C67.07036956 198.24261592 64.68493539 192.72514985 62.29931641 187.20776367 C61.96475433 186.43399384 61.63019226 185.660224 61.28549194 184.86300659 C56.3359468 173.41627578 51.37994994 161.97235953 46.41967773 150.53027344 C41.75861084 139.77666434 37.10692246 129.01900969 32.45605469 118.26098633 C27.45238031 106.68716659 22.44244504 95.1160884 17.42700195 83.54736328 C14.43974284 76.65563548 11.45574724 69.76250904 8.47509766 62.86791992 C8.13159271 62.07366104 7.78808777 61.27940216 7.43417358 60.46107483 C5.70413223 56.46027525 3.97616277 52.45860503 2.25244141 48.45507812 C-0.70053639 41.60247137 -3.66901292 34.76109147 -6.75146484 27.96557617 C-7.22495361 26.91233154 -7.69844238 25.85908691 -8.1862793 24.77392578 C-9.03556566 22.89143215 -9.89633887 21.01405263 -10.77172852 19.14355469 C-13.14591581 13.85575727 -14.06163591 9.95240589 -13.51318359 4.14526367 C-10.31130511 -0.58131886 -5.17213223 -0.00325517 0 0 Z " fill="#FDFDFD" transform="translate(1547.51318359375,84.854736328125)"/>
<path d="M0 0 C0.89569702 0.00182281 1.79139404 0.00364563 2.7142334 0.00552368 C16.60213389 0.05297911 30.15250503 0.61028916 43.8125 3.3125 C44.69164062 3.47878906 45.57078125 3.64507812 46.4765625 3.81640625 C69.74695545 8.3430677 90.86618834 17.39495967 107.8125 34.3125 C108.58207031 35.07046875 109.35164062 35.8284375 110.14453125 36.609375 C128.91660809 56.18094404 135.87240775 83.62451152 136.125 110.0625 C136.15400391 111.08988281 136.18300781 112.11726563 136.21289062 113.17578125 C136.22126953 114.16449219 136.22964844 115.15320313 136.23828125 116.171875 C136.26015503 117.50943848 136.26015503 117.50943848 136.2824707 118.87402344 C135.63311629 122.24324518 134.53407099 123.23246159 131.8125 125.3125 C129.0695358 125.70727964 126.72750793 125.86020407 123.98632812 125.83007812 C123.20212997 125.8370874 122.41793182 125.84409668 121.60997009 125.85131836 C119.02086858 125.86890644 116.4328624 125.8572733 113.84375 125.84375 C112.04300731 125.84644469 110.24226603 125.85032693 108.44152832 125.85534668 C104.66872292 125.86124281 100.89629649 125.85267519 97.12353516 125.83398438 C92.28773077 125.81119461 87.45281435 125.8243171 82.61704254 125.84827423 C78.89895946 125.86272919 75.18108686 125.85812764 71.46299744 125.84776306 C69.68000687 125.84509493 67.89699718 125.84836858 66.11402893 125.85768127 C63.62172843 125.86784211 61.13086532 125.85235371 58.63867188 125.83007812 C57.90192734 125.83817505 57.1651828 125.84627197 56.40611267 125.85461426 C52.9389273 125.7972101 51.13440041 125.56508979 48.36901855 123.3951416 C45.40680737 119.4316654 45.68926913 115.58988195 45.5 110.75 C44.8497204 101.40344398 42.73886712 93.09151815 36.125 86.1640625 C25.89215256 77.97087046 13.92806066 74.91355305 1.0625 75 C0.19069092 75.00491455 -0.68111816 75.0098291 -1.5793457 75.01489258 C-13.08624138 75.22213786 -24.38069531 77.1281864 -33.15234375 85.09765625 C-47.9342466 100.81710051 -45.62874952 124.94570417 -45.55078125 144.94921875 C-45.55026138 147.60423879 -45.55073237 150.2592429 -45.55229187 152.91426086 C-45.55316848 158.45046122 -45.54222554 163.98653765 -45.52368164 169.52270508 C-45.50249231 175.88428104 -45.49901472 182.2456763 -45.5052436 188.60728043 C-45.5109755 194.78226095 -45.50524889 200.95717913 -45.49407005 207.13215065 C-45.49024664 209.73582521 -45.48905784 212.33950512 -45.4906559 214.94318199 C-46.44931689 245.37048791 -46.44931689 245.37048791 -33.203125 271.6640625 C-21.62880175 281.129885 -5.35548151 282.39904007 8.984375 281.00390625 C19.88117309 279.55867364 29.42305371 276.88953587 36.8125 268.3125 C45.80993957 255.00378731 45.43672305 238.7318116 45.8125 223.3125 C44.78366699 223.32297363 43.75483398 223.33344727 42.69482422 223.34423828 C38.85941072 223.38057599 35.0240123 223.40345038 31.18847656 223.42236328 C29.53187497 223.43238957 27.87529093 223.44601406 26.21875 223.46337891 C23.83068495 223.48777621 21.44285492 223.49901694 19.0546875 223.5078125 C18.32007294 223.51813507 17.58545837 223.52845764 16.82858276 223.53909302 C12.43941296 223.54003984 8.81354635 223.16571624 4.8125 221.3125 C2.0446755 218.33869129 1.43726558 216.35551648 1.44018555 212.33203125 C1.43395676 211.34420654 1.42772797 210.35638184 1.42131042 209.33862305 C1.43512505 207.74787964 1.43512505 207.74787964 1.44921875 206.125 C1.44847099 204.48301636 1.44847099 204.48301636 1.44770813 202.80786133 C1.45004752 200.49461043 1.45976801 198.18135694 1.47631836 195.86816406 C1.49991048 192.3259405 1.496878 188.78446967 1.49023438 185.2421875 C1.49581122 182.99478718 1.50292115 180.74739002 1.51171875 178.5 C1.51080734 177.43950439 1.50989594 176.37900879 1.50895691 175.28637695 C1.51848892 174.29855225 1.52802094 173.31072754 1.5378418 172.29296875 C1.54244919 171.42567139 1.54705658 170.55837402 1.55180359 169.66479492 C1.85038954 166.97061813 2.18052608 165.4924021 3.8125 163.3125 C9.29276582 160.49611431 15.42032567 161.02421608 21.42993164 161.0378418 C22.5932048 161.03273087 23.75647797 161.02761993 24.95500183 161.02235413 C28.79427251 161.00847111 32.63336348 161.00941363 36.47265625 161.01171875 C38.46764915 161.00881435 40.46264213 161.00590522 42.45763391 161.002312 C48.72511083 160.99123451 54.9925278 160.99077019 61.26000977 160.99682617 C67.71983973 161.00287203 74.17945222 160.99053557 80.63924509 160.9692561 C86.19355246 160.95163411 91.74779063 160.94563948 97.30212492 160.94889385 C100.61606288 160.95070513 103.92981101 160.94676957 107.24373055 160.93417931 C110.93747953 160.92186561 114.63072223 160.9285761 118.32446289 160.94018555 C119.96649185 160.92871994 119.96649185 160.92871994 121.64169312 160.91702271 C130.97720082 160.98199157 130.97720082 160.98199157 134.8125 164.3125 C136.35384586 167.39519173 135.96863105 170.64134709 135.97363281 174.02490234 C135.97859772 174.82212204 135.98356262 175.61934174 135.98867798 176.4407196 C136.00334147 179.09330098 136.0101159 181.74582214 136.015625 184.3984375 C136.0213822 186.25338745 136.02713986 188.1083374 136.03289795 189.96328735 C136.04342601 193.8690824 136.04925383 197.77485681 136.05273438 201.68066406 C136.05815975 206.62910821 136.08204962 211.57726883 136.11070633 216.52562523 C136.12957518 220.36954464 136.13455144 224.21339985 136.13607025 228.0573616 C136.1390537 229.87738179 136.14693166 231.69740208 136.16025543 233.51737595 C136.38410934 266.50740095 129.32611828 299.31574838 105.6015625 323.57421875 C75.94364127 352.69214981 33.64463076 356.76665048 -6.02734375 356.46484375 C-44.41684026 355.84640026 -80.93615162 347.56211332 -108.515625 319.359375 C-129.17186972 296.61664091 -135.32149935 263.66912663 -135.34863281 233.97192383 C-135.35608017 232.00397102 -135.35608017 232.00397102 -135.36367798 229.9962616 C-135.37671093 226.41691958 -135.38323029 222.83759626 -135.38768864 219.25823426 C-135.39063724 217.01019883 -135.39474548 214.76216829 -135.39919281 212.51413536 C-135.4128506 205.44694445 -135.42252277 198.37976499 -135.4263947 191.31256181 C-135.43085605 183.21863568 -135.44832112 175.12488006 -135.4773953 167.03100568 C-135.49920681 160.73498769 -135.5091094 154.43901694 -135.51043582 148.14296168 C-135.51147108 144.40207782 -135.51709785 140.66135451 -135.53525543 136.92051125 C-135.69243324 102.54784007 -133.23835686 66.87524939 -110.1875 39.3125 C-109.50171875 38.46558594 -108.8159375 37.61867187 -108.109375 36.74609375 C-92.68273394 18.57262272 -70.67900593 9.13663793 -47.875 4.125 C-46.82916748 3.8923645 -46.82916748 3.8923645 -45.76220703 3.6550293 C-30.63743296 0.55818033 -15.3874537 -0.06539542 0 0 Z " fill="#FDFDFD" transform="translate(272.1875,78.6875)"/>
<path d="M0 0 C0.78273788 -0.00540298 1.56547577 -0.01080597 2.37193298 -0.01637268 C4.95081783 -0.02884639 7.52858328 -0.01237871 10.10742188 0.00561523 C11.90433816 0.00546021 13.70125478 0.00397073 15.49816895 0.00120544 C19.2608115 -0.00017794 23.0230726 0.01236922 26.78564453 0.03515625 C31.60439533 0.06354074 36.42251243 0.06080277 41.24131012 0.04806614 C44.9508402 0.04110531 48.66022428 0.04890286 52.36973572 0.06132317 C54.14631083 0.06583374 55.92290164 0.06617791 57.69947815 0.06225777 C60.18409256 0.05934156 62.66783912 0.07587146 65.15234375 0.09765625 C65.88392197 0.0931546 66.61550018 0.08865295 67.36924744 0.08401489 C71.76395853 0.14791446 74.58003065 0.7962252 78.07617188 3.50170898 C79.7941957 6.93775663 79.19583368 10.88609794 79.17382812 14.66577148 C79.17241318 15.57297943 79.17099823 16.48018738 79.16954041 17.41488647 C79.16393283 20.31886054 79.15137906 23.22275813 79.13867188 26.12670898 C79.13365785 28.09285371 79.12909477 30.05899963 79.125 32.02514648 C79.11396094 36.85069688 79.09669122 41.67618996 79.07617188 46.50170898 C80.86356026 46.49171623 80.86356026 46.49171623 82.6870575 46.48152161 C93.91388975 46.42071999 105.14068861 46.37574084 116.36764812 46.34627247 C122.1396184 46.33061322 127.91145581 46.30936995 133.68334961 46.27539062 C139.25301737 46.24280681 144.82255729 46.22485792 150.392313 46.21707726 C152.51780014 46.21153202 154.64328025 46.20070362 156.768713 46.18451881 C159.74464441 46.16275782 162.72004681 46.15974154 165.69604492 46.16113281 C166.57573944 46.15034698 167.45543396 46.13956116 168.36178589 46.12844849 C173.55104383 46.15471858 177.22075248 46.64628959 181.07617188 50.50170898 C181.19111791 52.41298322 181.23583637 54.32851496 181.25317383 56.24316406 C181.27242668 58.08561455 181.27242668 58.08561455 181.29206848 59.96528625 C181.30023592 61.31726683 181.30767964 62.66925195 181.31445312 64.02124023 C181.31852865 64.69934942 181.32260418 65.37745861 181.32680321 66.07611656 C181.34768263 69.6663012 181.36197525 73.25644742 181.37133789 76.84667969 C181.38239694 80.55592653 181.41678453 84.26457252 181.45650959 87.97360706 C181.48265692 90.82436742 181.49102806 93.67498438 181.49461937 96.52585411 C181.49949156 97.89301288 181.51112373 99.26016498 181.52965736 100.6272068 C181.55400009 102.54201446 181.55066878 104.45711327 181.54614258 106.37207031 C181.55200882 107.461595 181.55787506 108.55111969 181.56391907 109.67366028 C181.07617188 112.50170898 181.07617188 112.50170898 179.63743591 114.85643005 C175.73840287 117.36105153 172.16791307 117.02822595 167.62597656 116.95581055 C166.66954254 116.95639465 165.71310852 116.95697876 164.72769165 116.95758057 C161.56744043 116.95479461 158.40813326 116.92367783 155.24804688 116.89233398 C153.05658483 116.88487343 150.86511612 116.87917962 148.67364502 116.87518311 C142.90638808 116.85991228 137.13953423 116.82061755 131.37243652 116.77636719 C124.45251801 116.72825099 117.53246469 116.70988742 110.61242676 116.68655396 C100.10006146 116.64776787 89.58858059 116.57112328 79.07617188 116.50170898 C79.07617188 136.96170898 79.07617188 157.42170898 79.07617188 178.50170898 C87.54789063 178.45530273 96.01960937 178.40889648 104.74804688 178.36108398 C110.78875533 178.33805408 116.82943089 178.3175479 122.87015533 178.30069351 C130.69999364 178.2785103 138.52966188 178.25032839 146.359375 178.19995117 C153.21932915 178.15583452 160.07909905 178.1325869 166.9391861 178.12220001 C169.55953114 178.11479562 172.17986585 178.10033708 174.80013275 178.07878876 C178.46365828 178.04985273 182.12641809 178.04574903 185.79003906 178.04760742 C186.8790451 178.03322632 187.96805115 178.01884521 189.09005737 178.00402832 C196.32096152 178.04385355 196.32096152 178.04385355 199.74920654 180.12226868 C201.49419073 183.2512771 201.58397415 185.44417725 201.59375 189.02685547 C201.60075928 189.67289734 201.60776855 190.31893921 201.61499023 190.98455811 C201.63255645 193.11441381 201.62095288 195.24293415 201.60742188 197.37280273 C201.61011756 198.85726679 201.61400062 200.34172912 201.61901855 201.82618713 C201.62491195 204.93572824 201.61635766 208.04480931 201.59765625 211.15429688 C201.57488588 215.13362296 201.58797742 219.11186875 201.61194611 223.09115505 C201.62642583 226.15647974 201.62178797 229.2215499 201.61143494 232.2868824 C201.60877259 233.75365388 201.61202013 235.22044871 201.62135315 236.68719292 C201.63155337 238.74113686 201.61597274 240.79335225 201.59375 242.84716797 C201.59056763 244.01424789 201.58738525 245.18132782 201.58410645 246.3837738 C200.94247368 250.32240978 199.97889621 251.76369295 197.07617188 254.50170898 C194.12661371 255.00131462 191.75107685 255.17424792 188.80151367 255.12989807 C187.95970645 255.13699246 187.11789923 255.14408685 186.2505827 255.15139621 C183.42505656 255.16902217 180.6008977 255.15084838 177.77539062 255.1328125 C175.75175346 255.13794956 173.72812076 255.14522923 171.70449829 255.15449524 C166.20447419 255.17304447 160.70493347 255.16004828 155.20492935 255.14040494 C149.45456609 255.12404628 143.70423413 255.13282745 137.95385742 255.13792419 C128.29630796 255.14244826 118.63895199 255.12655583 108.98144531 255.09863281 C97.80917708 255.0665796 86.63725788 255.06659569 75.46496487 255.08384758 C64.72640536 255.09970029 53.98797405 255.09298717 43.24942017 255.07591057 C38.67530921 255.0690302 34.10130071 255.07008265 29.52719116 255.07745552 C24.14268089 255.0851053 18.75856877 255.07303479 13.37412643 255.04560661 C11.39559486 255.03870799 9.4170262 255.03864055 7.43849564 255.04582214 C4.74215974 255.05448288 2.04706218 255.03861858 -0.64916992 255.01637268 C-1.43632543 255.02461345 -2.22348093 255.03285421 -3.03448963 255.0413447 C-6.27551509 254.99182599 -8.57588877 254.7005442 -11.40882778 253.08161831 C-13.76531364 249.06873484 -13.47847655 245.28299058 -13.43849182 240.70849609 C-13.44543735 239.70334678 -13.45238288 238.69819746 -13.45953888 237.66258907 C-13.4778785 234.28451987 -13.46752494 230.90714742 -13.45727539 227.52905273 C-13.46433027 225.11133293 -13.47307346 222.69361754 -13.48338318 220.27590942 C-13.50359033 214.38485803 -13.50489285 208.49398458 -13.49675763 202.60292077 C-13.4904608 197.815655 -13.49159174 193.02844559 -13.49802971 188.24118042 C-13.49893136 187.56013841 -13.49983302 186.87909639 -13.500762 186.17741674 C-13.50261317 184.79394379 -13.50447573 183.41047085 -13.50634956 182.02699792 C-13.52293271 169.050562 -13.51420428 156.07423478 -13.49736398 143.09780538 C-13.48266451 131.22165767 -13.49729783 119.3457629 -13.52613414 107.46964777 C-13.5555143 95.2789004 -13.56650462 83.08826982 -13.55695194 70.89748859 C-13.55592937 69.5190716 -13.55493476 68.14065458 -13.55396843 66.76223755 C-13.55349204 66.08400922 -13.55301565 65.4057809 -13.55252482 64.7070002 C-13.55035896 59.92481024 -13.56017376 55.14273066 -13.57473946 50.36056519 C-13.59406602 43.92549333 -13.58720626 37.49077763 -13.56254005 31.05572128 C-13.55751455 28.69016635 -13.56106664 26.32457582 -13.57368851 23.95904922 C-13.58952365 20.73712448 -13.57475716 17.51677113 -13.55201721 14.29492188 C-13.56385294 13.35212844 -13.57568867 12.409335 -13.58788306 11.43797207 C-13.49719466 5.14183721 -13.49719466 5.14183721 -10.61223507 1.92095852 C-7.06018068 0.0457768 -3.92151801 -0.05182373 0 0 Z " fill="#FDFDFD" transform="translate(459.923828125,173.498291015625)"/>
<path d="M0 0 C0.78273788 -0.00540298 1.56547577 -0.01080597 2.37193298 -0.01637268 C4.95081783 -0.02884639 7.52858328 -0.01237871 10.10742188 0.00561523 C11.90433816 0.00546021 13.70125478 0.00397073 15.49816895 0.00120544 C19.2608115 -0.00017794 23.0230726 0.01236922 26.78564453 0.03515625 C31.60439533 0.06354074 36.42251243 0.06080277 41.24131012 0.04806614 C44.9508402 0.04110531 48.66022428 0.04890286 52.36973572 0.06132317 C54.14631083 0.06583374 55.92290164 0.06617791 57.69947815 0.06225777 C60.18409256 0.05934156 62.66783912 0.07587146 65.15234375 0.09765625 C65.88392197 0.0931546 66.61550018 0.08865295 67.36924744 0.08401489 C71.76395853 0.14791446 74.58003065 0.7962252 78.07617188 3.50170898 C79.7941957 6.93775663 79.19583368 10.88609794 79.17382812 14.66577148 C79.17241318 15.57297943 79.17099823 16.48018738 79.16954041 17.41488647 C79.16393283 20.31886054 79.15137906 23.22275813 79.13867188 26.12670898 C79.13365785 28.09285371 79.12909477 30.05899963 79.125 32.02514648 C79.11396094 36.85069688 79.09669122 41.67618996 79.07617188 46.50170898 C80.86356026 46.49171623 80.86356026 46.49171623 82.6870575 46.48152161 C93.91388975 46.42071999 105.14068861 46.37574084 116.36764812 46.34627247 C122.1396184 46.33061322 127.91145581 46.30936995 133.68334961 46.27539062 C139.25301737 46.24280681 144.82255729 46.22485792 150.392313 46.21707726 C152.51780014 46.21153202 154.64328025 46.20070362 156.768713 46.18451881 C159.74464441 46.16275782 162.72004681 46.15974154 165.69604492 46.16113281 C166.57573944 46.15034698 167.45543396 46.13956116 168.36178589 46.12844849 C173.55104383 46.15471858 177.22075248 46.64628959 181.07617188 50.50170898 C181.19111791 52.41298322 181.23583637 54.32851496 181.25317383 56.24316406 C181.27242668 58.08561455 181.27242668 58.08561455 181.29206848 59.96528625 C181.30023592 61.31726683 181.30767964 62.66925195 181.31445312 64.02124023 C181.31852865 64.69934942 181.32260418 65.37745861 181.32680321 66.07611656 C181.34768263 69.6663012 181.36197525 73.25644742 181.37133789 76.84667969 C181.38239694 80.55592653 181.41678453 84.26457252 181.45650959 87.97360706 C181.48265692 90.82436742 181.49102806 93.67498438 181.49461937 96.52585411 C181.49949156 97.89301288 181.51112373 99.26016498 181.52965736 100.6272068 C181.55400009 102.54201446 181.55066878 104.45711327 181.54614258 106.37207031 C181.55200882 107.461595 181.55787506 108.55111969 181.56391907 109.67366028 C181.07617188 112.50170898 181.07617188 112.50170898 179.63743591 114.85643005 C175.73840287 117.36105153 172.16791307 117.02822595 167.62597656 116.95581055 C166.66954254 116.95639465 165.71310852 116.95697876 164.72769165 116.95758057 C161.56744043 116.95479461 158.40813326 116.92367783 155.24804688 116.89233398 C153.05658483 116.88487343 150.86511612 116.87917962 148.67364502 116.87518311 C142.90638808 116.85991228 137.13953423 116.82061755 131.37243652 116.77636719 C124.45251801 116.72825099 117.53246469 116.70988742 110.61242676 116.68655396 C100.10006146 116.64776787 89.58858059 116.57112328 79.07617188 116.50170898 C79.07617188 136.96170898 79.07617188 157.42170898 79.07617188 178.50170898 C87.55949219 178.47850586 96.0428125 178.45530273 104.78320312 178.43139648 C110.82893989 178.41988292 116.87466845 178.40962956 122.9204092 178.40120125 C130.75856884 178.39010572 138.59668604 178.37600526 146.43481445 178.35083008 C153.30123502 178.3287864 160.16760962 178.3171508 167.03406334 178.3119545 C169.65800386 178.30824984 172.28194177 178.30101592 174.90586281 178.29024887 C178.57181928 178.27579979 182.23758424 178.27372829 185.90356445 178.2746582 C186.99616577 178.26746765 188.08876709 178.2602771 189.21447754 178.25286865 C190.21147171 178.25561798 191.20846588 178.25836731 192.235672 178.26119995 C193.1030792 178.25935637 193.97048639 178.25751278 194.86417866 178.25561333 C197.07617188 178.50170898 197.07617188 178.50170898 200.07617188 180.50170898 C201.18151578 183.81774069 201.22328743 186.3279588 201.25317383 189.8215332 C201.27242668 191.77904007 201.27242668 191.77904007 201.29206848 193.77609253 C201.30023541 195.20285665 201.30767923 196.62962507 201.31445312 198.05639648 C201.31852865 198.77555363 201.32260418 199.49471077 201.32680321 200.23566055 C201.34764371 204.04097454 201.36195503 207.84625266 201.37133789 211.65161133 C201.38240803 215.57816097 201.41681986 219.50414479 201.45650959 223.43049431 C201.48267114 226.45371545 201.49102918 229.47680151 201.49461937 232.50012589 C201.49948531 233.9473974 201.5110997 235.39466287 201.52965736 236.84182358 C201.55403778 238.86877511 201.55066508 240.89600259 201.54614258 242.9230957 C201.55200882 244.07542694 201.55787506 245.22775818 201.56391907 246.41500854 C200.9433068 250.3425435 199.96807325 251.77301555 197.07617188 254.50170898 C194.12661371 255.00131462 191.75107685 255.17424792 188.80151367 255.12989807 C187.95970645 255.13699246 187.11789923 255.14408685 186.2505827 255.15139621 C183.42505656 255.16902217 180.6008977 255.15084838 177.77539062 255.1328125 C175.75175346 255.13794956 173.72812076 255.14522923 171.70449829 255.15449524 C166.20447419 255.17304447 160.70493347 255.16004828 155.20492935 255.14040494 C149.45456609 255.12404628 143.70423413 255.13282745 137.95385742 255.13792419 C128.29630796 255.14244826 118.63895199 255.12655583 108.98144531 255.09863281 C97.80917708 255.0665796 86.63725788 255.06659569 75.46496487 255.08384758 C64.72640536 255.09970029 53.98797405 255.09298717 43.24942017 255.07591057 C38.67530921 255.0690302 34.10130071 255.07008265 29.52719116 255.07745552 C24.14268089 255.0851053 18.75856877 255.07303479 13.37412643 255.04560661 C11.39559486 255.03870799 9.4170262 255.03864055 7.43849564 255.04582214 C4.74215974 255.05448288 2.04706218 255.03861858 -0.64916992 255.01637268 C-1.43632543 255.02461345 -2.22348093 255.03285421 -3.03448963 255.0413447 C-6.27551509 254.99182599 -8.57588877 254.7005442 -11.40882778 253.08161831 C-13.76531364 249.06873484 -13.47847655 245.28299058 -13.43849182 240.70849609 C-13.44543735 239.70334678 -13.45238288 238.69819746 -13.45953888 237.66258907 C-13.4778785 234.28451987 -13.46752494 230.90714742 -13.45727539 227.52905273 C-13.46433027 225.11133293 -13.47307346 222.69361754 -13.48338318 220.27590942 C-13.50359033 214.38485803 -13.50489285 208.49398458 -13.49675763 202.60292077 C-13.4904608 197.815655 -13.49159174 193.02844559 -13.49802971 188.24118042 C-13.49893136 187.56013841 -13.49983302 186.87909639 -13.500762 186.17741674 C-13.50261317 184.79394379 -13.50447573 183.41047085 -13.50634956 182.02699792 C-13.52293271 169.050562 -13.51420428 156.07423478 -13.49736398 143.09780538 C-13.48266451 131.22165767 -13.49729783 119.3457629 -13.52613414 107.46964777 C-13.5555143 95.2789004 -13.56650462 83.08826982 -13.55695194 70.89748859 C-13.55592937 69.5190716 -13.55493476 68.14065458 -13.55396843 66.76223755 C-13.55349204 66.08400922 -13.55301565 65.4057809 -13.55252482 64.7070002 C-13.55035896 59.92481024 -13.56017376 55.14273066 -13.57473946 50.36056519 C-13.59406602 43.92549333 -13.58720626 37.49077763 -13.56254005 31.05572128 C-13.55751455 28.69016635 -13.56106664 26.32457582 -13.57368851 23.95904922 C-13.58952365 20.73712448 -13.57475716 17.51677113 -13.55201721 14.29492188 C-13.56385294 13.35212844 -13.57568867 12.409335 -13.58788306 11.43797207 C-13.49719466 5.14183721 -13.49719466 5.14183721 -10.61223507 1.92095852 C-7.06018068 0.0457768 -3.92151801 -0.05182373 0 0 Z " fill="#FDFDFD" transform="translate(812.923828125,173.498291015625)"/>
<path d="M0 0 C2.79207379 2.79207379 3.96344723 6.18079241 5.5 9.7578125 C5.84748291 10.55565155 6.19496582 11.3534906 6.55297852 12.17550659 C7.30826123 13.9104293 8.06151222 15.64623757 8.81298828 17.3828125 C10.84404092 22.07486994 12.89100535 26.75997428 14.9375 31.4453125 C15.35894287 32.41092102 15.78038574 33.37652954 16.21459961 34.37139893 C20.40118502 43.94842306 24.69239961 53.47695016 29 63 C35.47079884 77.31646621 41.83052345 91.67796356 48.125 106.07275391 C53.6711549 118.75139882 59.30180889 131.3889932 65 144 C69.55346287 154.07817291 74.08895157 164.16301789 78.53515625 174.2890625 C78.90995117 175.1423111 79.28474609 175.99555969 79.67089844 176.87466431 C81.55206803 181.1631216 83.4233933 185.45557377 85.28076172 189.75439453 C88.98009354 198.29125923 92.79881802 206.73103384 96.91015625 215.078125 C114.67359962 251.37106667 114.67359962 251.37106667 109 270 C104.73093901 282.4234545 98.97021907 294.27897004 93.26727295 306.09156799 C88.68935014 315.5759251 84.4105359 325.17978855 80.17272949 334.81988525 C78.5188048 338.57582582 76.85087851 342.32547324 75.18270874 346.07510376 C69.93358211 357.87387235 64.7153933 369.68629281 59.5 381.5 C50.97368195 400.81348588 42.40626348 420.10851592 33.82551575 439.39787292 C30.75102564 446.30973739 27.679634 453.22297391 24.609375 460.13671875 C23.27320911 463.14505139 21.93700804 466.1533684 20.60079956 469.16168213 C19.76090233 471.05284856 18.92115313 472.94408074 18.08157349 474.83538818 C12.42630099 487.57442711 6.73078823 500.29474958 1 513 C-6.4236084 511.46064349 -13.44245155 509.28922869 -20.58691406 506.74145508 C-22.51995967 506.0554163 -24.4588397 505.38795793 -26.3984375 504.72070312 C-28.22761719 504.07198242 -28.22761719 504.07198242 -30.09375 503.41015625 C-31.75954102 502.82439819 -31.75954102 502.82439819 -33.45898438 502.22680664 C-34.29751953 501.82196045 -35.13605469 501.41711426 -36 501 C-37.26069344 497.21791969 -36.53713603 495.98048189 -35.20849609 492.26391602 C-34.78939468 491.07758575 -34.37029327 489.89125549 -33.93849182 488.66897583 C-33.46699981 487.36388298 -32.99530935 486.05886181 -32.5234375 484.75390625 C-32.04132889 483.4001698 -31.56001531 482.04614998 -31.07945251 480.69186401 C-29.78953363 477.06400831 -28.48834201 473.44029099 -27.18490982 469.81727219 C-25.83189024 466.05049366 -24.48920243 462.28003547 -23.14526367 458.51000977 C-20.10989533 450.0019714 -17.05734157 441.50016309 -14 433 C-13.45844269 431.49318665 -13.45844269 431.49318665 -12.90594482 429.95593262 C-10.56152601 423.43346799 -8.21126656 416.91315289 -5.84741211 410.39770508 C-0.99854935 397.03140544 3.78327801 383.64133711 8.5625 370.25 C8.98435577 369.06804047 9.40621155 367.88608093 9.84085083 366.66830444 C12.0086863 360.59410406 14.17607094 354.51974293 16.34326172 348.4453125 C20.34290164 337.23548248 24.3467766 326.02716507 28.35031128 314.81872559 C29.57548891 311.38861542 30.80058378 307.95847571 32.02563477 304.52832031 C32.41266068 303.44790466 32.79968658 302.36748901 33.19844055 301.2543335 C33.96340834 299.10581166 34.72008481 296.95431861 35.46818542 294.79986572 C37.47377898 289.06068817 39.63368622 283.45528313 42.05371094 277.87695312 C48.78677575 262.4192773 48.78677575 262.4192773 46.66796875 246.26953125 C45.58380746 243.68699505 44.42982033 241.15864629 43.21429443 238.63531494 C41.07666719 233.99614272 39.52264083 229.15008456 37.86328125 224.32421875 C37.12810856 222.26780566 36.38917905 220.21273224 35.64672852 218.15893555 C33.60523627 212.49921518 31.56827079 206.83788563 29.53318787 201.17585754 C28.66395805 198.75761993 27.79445932 196.33947895 26.92469788 193.9214325 C22.2838551 181.0172983 17.67196761 168.10286778 13.0625 155.1875 C12.22634345 152.84528727 11.39016171 150.50308353 10.55395508 148.16088867 C8.87453693 143.45675482 7.19527401 138.75256559 5.51611328 134.04833984 C2.59305815 125.85961921 -0.33096768 117.67124527 -3.25604248 109.48324585 C-5.32368292 103.69519399 -7.39008441 97.90670659 -9.45361328 92.1171875 C-13.3760474 81.11652237 -17.31212096 70.12116452 -21.28909302 59.1401062 C-22.94991915 54.55399175 -24.60482625 49.96574808 -26.25839424 45.37701225 C-27.39160565 42.23376398 -28.52933662 39.0923179 -29.6730957 35.95288086 C-30.93219648 32.49622921 -32.18017415 29.03575125 -33.42578125 25.57421875 C-33.99441643 24.02694344 -33.99441643 24.02694344 -34.57453918 22.44841003 C-34.91128159 21.50596939 -35.24802399 20.56352875 -35.5949707 19.5925293 C-35.89216507 18.77326462 -36.18935944 17.95399994 -36.49555969 17.10990906 C-37 15 -37 15 -36 12 C-33.33769549 10.87677789 -30.77359535 9.94913184 -28.02734375 9.08203125 C-27.22970108 8.81992355 -26.43205841 8.55781586 -25.61024475 8.2877655 C-23.0561907 7.45136759 -20.49708208 6.63180604 -17.9375 5.8125 C-16.20732417 5.24914556 -14.47750122 4.6847061 -12.74804688 4.11914062 C-8.50269363 2.73345994 -4.25273242 1.36285694 0 0 Z " fill="#F2B830" transform="translate(1917,0)"/>
<path d="M0 0 C12.44047504 4.06819502 24.78893982 8.28483815 37 13 C36.32626251 18.72233229 34.41218862 23.83283714 32.44921875 29.2109375 C32.08359329 30.22572174 31.71796783 31.24050598 31.34126282 32.28604126 C30.12793424 35.65070517 28.90761106 39.0127903 27.6875 42.375 C26.82818511 44.75499506 25.96947189 47.13520742 25.11132812 49.515625 C23.76974919 53.23678879 22.42799306 56.9578858 21.08395386 60.67816162 C16.77230083 72.6143575 12.50339893 84.56568783 8.24111938 96.51959229 C6.15192466 102.37821436 4.0604993 108.23603959 1.96875 114.09375 C1.34852715 115.83061569 1.34852715 115.83061569 0.71577454 117.60256958 C-3.67876431 129.90555763 -8.08888956 142.20294603 -12.5 154.5 C-18.82323017 172.12935784 -25.13864141 189.76149155 -31.44067383 207.3984375 C-32.29770857 209.79679243 -33.15495924 212.19507021 -34.01245117 214.59326172 C-34.41761963 215.72650879 -34.82278809 216.85975586 -35.24023438 218.02734375 C-35.63685272 219.13359604 -36.03347107 220.23984833 -36.44210815 221.37962341 C-37.21401484 223.54902044 -37.97617673 225.72191203 -38.72805786 227.89833069 C-40.42295491 232.77958788 -42.18355969 237.51477839 -44.40771484 242.18139648 C-49.4918921 253.28327043 -49.19770098 260.56172854 -45.0627594 272.04856873 C-43.78800295 275.36104754 -42.45722147 278.64776189 -41.125 281.9375 C-40.22001391 284.30890272 -39.32162011 286.6828305 -38.42944336 289.05908203 C-36.57792178 293.97031258 -34.69603366 298.86815307 -32.78955078 303.75830078 C-28.89219934 313.8035444 -25.3119944 323.95893822 -21.71871948 334.11590576 C-19.76743438 339.6160916 -17.78864736 345.10636537 -15.8125 350.59765625 C-10.87721267 364.32929299 -5.96810789 378.07023777 -1.0625 391.8125 C-0.23414368 394.13249156 0.59422546 396.45247854 1.42260742 398.77246094 C5.07603612 409.00499645 8.7282768 419.23795558 12.37930775 429.47134686 C14.40379017 435.14564306 16.42889494 440.81971701 18.45413208 446.4937439 C19.70421719 449.99670829 20.95356449 453.4999352 22.20288086 457.00317383 C22.98415897 459.19223907 23.76548912 461.38128573 24.546875 463.5703125 C25.10538902 465.13705971 25.10538902 465.13705971 25.67518616 466.73545837 C27.54277798 471.96436181 29.43058143 477.18472743 31.35351562 482.39355469 C31.91513397 483.9190242 31.91513397 483.9190242 32.48809814 485.47531128 C33.19666225 487.39578226 33.90929109 489.31476015 34.62664795 491.23196411 C34.93966858 492.0808017 35.25268921 492.92963928 35.57519531 493.80419922 C35.85147766 494.54548065 36.12776001 495.28676208 36.41241455 496.05050659 C37 498 37 498 37 501 C32.07241468 502.7148681 27.14279392 504.42370025 22.21118164 506.12695312 C20.5335234 506.70732517 18.85643512 507.28934749 17.17993164 507.87304688 C14.77117193 508.71137224 12.36043022 509.54375694 9.94921875 510.375 C9.19912033 510.63748535 8.44902191 510.8999707 7.67619324 511.17041016 C4.66193993 512.20420273 2.21044036 513 -1 513 C-79.62890625 336.08496094 -79.62890625 336.08496094 -80.95501709 333.10081482 C-81.83633803 331.11810634 -82.7180494 329.13557136 -83.60015869 327.1532135 C-85.74885653 322.32319505 -87.89111424 317.49054611 -90.01855469 312.65112305 C-93.51148444 304.7209717 -97.01721541 296.82712195 -100.921875 289.08984375 C-108.55841222 273.77711848 -113.92249314 258.8635488 -108.29321289 241.86584473 C-104.519746 231.57197489 -99.65367127 221.72670313 -94.82745361 211.89605713 C-90.70598813 203.48564372 -86.93911991 194.93941136 -83.22167969 186.34439087 C-81.36968266 182.06870817 -79.49671279 177.80223611 -77.625 173.53515625 C-77.06063232 172.24719398 -77.06063232 172.24719398 -76.48486328 170.93321228 C-72.06646127 160.85666671 -67.59748916 150.80262856 -63.125 140.75 C-62.70913635 139.81523834 -62.29327271 138.88047668 -61.86480713 137.91738892 C-59.75450777 133.17449391 -57.64352023 128.43190559 -55.53222656 123.68945312 C-51.76619452 115.22920554 -48.00621035 106.76627014 -44.24578857 98.30352783 C-42.17452413 93.64234565 -40.10286758 88.98133774 -38.03125 84.3203125 C-37.19921686 82.44824303 -36.36718562 80.57617271 -35.53515625 78.70410156 C-30.37109375 67.08496094 -30.37109375 67.08496094 -29.04496765 64.10119629 C-28.16328576 62.11739935 -27.28162265 60.13359405 -26.39997864 58.14978027 C-24.26017693 53.3350085 -22.12007562 48.52037042 -19.97924805 43.70605469 C-16.35015464 35.54414125 -12.72388092 27.381051 -9.11328125 19.2109375 C-8.54042339 17.91615237 -7.96750921 16.62139215 -7.39453125 15.32666016 C-6.37305278 13.01729912 -5.35338987 10.70713377 -4.3359375 8.39599609 C-3.90152344 7.41453613 -3.46710938 6.43307617 -3.01953125 5.421875 C-2.64932861 4.58237305 -2.27912598 3.74287109 -1.89770508 2.87792969 C-1 1 -1 1 0 0 Z " fill="#F2B830" transform="translate(109,0)"/>
<path d="M0 0 C16.83 0 33.66 0 51 0 C51 167.64 51 335.28 51 508 C34.17 508 17.34 508 0 508 C0 340.36 0 172.72 0 0 Z " fill="#F2B830" transform="translate(1057,3)"/>
<path d="M0 0 C16.83 0 33.66 0 51 0 C51 167.64 51 335.28 51 508 C34.17 508 17.34 508 0 508 C0 340.36 0 172.72 0 0 Z " fill="#F2B830" transform="translate(703,3)"/>
<path d="M0 0 C9.14725499 9.65726381 12.6974799 21.12316845 12.45703125 34.1796875 C11.85097128 45.36320925 6.6278805 55.18105152 -1.5 62.875 C-9.34051726 69.24542027 -18.22668872 72.18971741 -28.1875 72.25 C-29.24940552 72.2667981 -29.24940552 72.2667981 -30.33276367 72.28393555 C-35.16305048 72.26929667 -38.96125165 71.40693738 -43.5625 69.8125 C-46.65967185 68.83235025 -46.65967185 68.83235025 -49.75 69 C-54.31327053 71.99075207 -57.37398418 75.75275429 -60.75 80 C-61.9527117 81.35916201 -63.16028498 82.71405489 -64.375 84.0625 C-64.90351563 84.68769531 -65.43203125 85.31289063 -65.9765625 85.95703125 C-67.34550545 87.53402941 -68.76788476 89.06473977 -70.2109375 90.57421875 C-71.46777344 91.89873047 -71.46777344 91.89873047 -72.75 93.25 C-73.53375 94.05953125 -74.3175 94.8690625 -75.125 95.703125 C-76.95577066 97.79988361 -76.95577066 97.79988361 -76.68359375 99.97265625 C-75.53187832 102.47366172 -74.21223127 104.81582819 -72.8125 107.1875 C-66.83138893 118.04529635 -65.99095462 129.71643945 -69.375 141.6875 C-72.40041678 150.47713191 -76.60044406 158.95769484 -84.75 164 C-86.07728402 164.35665952 -87.41036013 164.692992 -88.75 165 C-86.91847696 170.09089734 -85.08535373 175.18121446 -83.25073242 180.27099609 C-82.62659175 182.0032585 -82.00289187 183.7356798 -81.37963867 185.46826172 C-80.48471532 187.95582114 -79.58821831 190.44280847 -78.69140625 192.9296875 C-78.4122084 193.70682098 -78.13301056 194.48395447 -77.84535217 195.28463745 C-76.44838896 199.20522174 -76.44838896 199.20522174 -74.75 203 C-71.97008722 203.3245736 -69.22668387 203.55605013 -66.4375 203.75 C-54.73419512 204.81908523 -44.66898424 209.01806486 -36.75 218 C-34.45011485 221.20097911 -32.53392299 224.48790162 -30.75 228 C-30.42 228.64710938 -30.09 229.29421875 -29.75 229.9609375 C-25.29080592 240.12275477 -25.95702072 251.82883697 -29.90625 261.96875 C-35.82572747 274.99160043 -44.80289706 281.74610316 -57.75 287 C-69.04991723 290.00979104 -80.21480048 288.29071424 -90.25390625 282.57421875 C-100.31022885 276.16269182 -107.91517048 267.71914818 -110.75 256 C-111.16015106 252.69482162 -111.2289146 249.45293582 -111.1875 246.125 C-111.17775146 245.24730957 -111.16800293 244.36961914 -111.15795898 243.46533203 C-110.81617273 230.9501621 -106.70876111 223.68872753 -97.75 215 C-97.16734375 214.53207031 -96.5846875 214.06414062 -95.984375 213.58203125 C-94.34966075 212.36417873 -94.34966075 212.36417873 -92.75 210 C-93.95046471 201.98586315 -96.99217549 194.60064197 -99.875 187.0625 C-100.79712222 184.63780122 -101.71654153 182.21207221 -102.6328125 179.78515625 C-103.03902832 178.72176025 -103.44524414 177.65836426 -103.86376953 176.56274414 C-104.75 174 -104.75 174 -104.75 172 C-105.47703125 172.03480469 -106.2040625 172.06960938 -106.953125 172.10546875 C-118.52755431 172.417088 -130.31402245 170.58313615 -139.28515625 162.80078125 C-150.45902865 152.05477436 -154.41986568 142.27425192 -155.75 127 C-157.55186768 126.73521851 -157.55186768 126.73521851 -159.39013672 126.46508789 C-163.83726621 125.81066713 -168.28371961 125.1517495 -172.72998047 124.49145508 C-174.6562305 124.20604259 -176.58266287 123.92185796 -178.50927734 123.63891602 C-181.2749005 123.23254164 -184.0398427 122.82178869 -186.8046875 122.41015625 C-187.6693161 122.28407486 -188.5339447 122.15799347 -189.42477417 122.02809143 C-195.52225659 121.11387171 -195.52225659 121.11387171 -197.75 120 C-198.059375 121.2375 -198.059375 121.2375 -198.375 122.5 C-202.37228056 132.67489597 -210.52190354 139.40799849 -220.20703125 143.96484375 C-231.10311605 148.40026997 -241.72734164 147.80887671 -252.75 144 C-263.95175255 138.89042866 -272.29446253 130.4758171 -276.75 119 C-280.8469298 108.02454069 -279.14733364 96.60533406 -274.75 86 C-273.02826491 82.73019186 -271.0763149 79.86705638 -268.75 77 C-267.99783203 76.06220703 -267.99783203 76.06220703 -267.23046875 75.10546875 C-260.81506312 67.94081867 -251.38277159 63.34053426 -241.80859375 62.76171875 C-227.84792219 62.42575462 -216.60997487 64.78585473 -206.03515625 74.58984375 C-200.12184908 80.98464158 -196.9600009 88.402359 -195.10546875 96.8359375 C-194.84789795 97.99399902 -194.59032715 99.15206055 -194.32495117 100.34521484 C-194.13521729 101.22129395 -193.9454834 102.09737305 -193.75 103 C-192.58428467 103.17128418 -191.41856934 103.34256836 -190.2175293 103.51904297 C-185.89459651 104.15627196 -181.57319957 104.8034335 -177.25219727 105.45361328 C-175.38150812 105.73367308 -173.51041289 106.01103424 -171.63891602 106.28564453 C-168.94957036 106.68073801 -166.26183245 107.08550033 -163.57421875 107.4921875 C-162.31782845 107.67356766 -162.31782845 107.67356766 -161.03605652 107.85861206 C-157.33193813 108.42792501 -154.91031705 108.89312197 -151.75 111 C-150.9146875 109.205625 -150.9146875 109.205625 -150.0625 107.375 C-144.55867569 96.48241391 -134.89026217 89.73308319 -123.515625 85.9140625 C-119.48185524 84.93491092 -115.68942624 84.61744758 -111.5625 84.625 C-110.82652588 84.62371094 -110.09055176 84.62242187 -109.33227539 84.62109375 C-102.66465118 84.74863444 -96.87588643 86.35607214 -90.75 89 C-90.50636719 88.44957031 -90.26273438 87.89914062 -90.01171875 87.33203125 C-86.21787885 80.31988753 -80.23517655 74.33315114 -74.5234375 68.8359375 C-70.96437716 65.15144772 -67.88417713 61.04593775 -64.75 57 C-65.74792467 54.49400083 -66.75322261 51.9922171 -67.78515625 49.5 C-68.29369141 48.2625 -68.29369141 48.2625 -68.8125 47 C-69.15410156 46.175 -69.49570313 45.35 -69.84765625 44.5 C-73.8099951 33.52209151 -72.38034169 21.51636927 -67.75 11 C-61.65665061 0.16113887 -53.16434616 -6.46630124 -41.390625 -10.28125 C-26.17280353 -14.42337892 -11.61957916 -10.52228332 0 0 Z M-56.44140625 11.86328125 C-58.5203356 15.25783156 -58.67957568 18.05623818 -58.75 22 C-55.28319656 23.21011063 -53.97260391 23.10091013 -50.5703125 21.55859375 C-49.33501819 20.85773674 -48.10347545 20.15024163 -46.875 19.4375 C-36.78661118 13.94180407 -25.87884224 11.53938882 -14.75 9 C-14.10974923 6.60686691 -14.10974923 6.60686691 -13.75 4 C-16.57228569 -0.11583329 -19.99868281 -1.01696886 -24.75 -2 C-36.56037993 -3.34208863 -49.06356363 2.91786006 -56.44140625 11.86328125 Z M-261.75 83 C-265.33122913 87.40298426 -266.21200979 91.34038003 -265.75 97 C-262.88106617 98.30974549 -262.88106617 98.30974549 -260.62109375 97.1796875 C-259.81800781 96.74914062 -259.01492188 96.31859375 -258.1875 95.875 C-256.375 94.91666667 -254.5625 93.95833333 -252.75 93 C-252.03682617 92.60498291 -251.32365234 92.20996582 -250.58886719 91.80297852 C-244.25137298 88.4253793 -238.14073004 86.61593636 -231.125 85.1875 C-230.12082031 84.97158203 -229.11664062 84.75566406 -228.08203125 84.53320312 C-225.64031558 84.00997834 -223.19672556 83.49916797 -220.75 83 C-221.3525843 78.854244 -221.3525843 78.854244 -224.1875 75.75 C-235.51926243 68.01123541 -252.67848303 74.07789625 -261.75 83 Z M-137.75 103 C-140.58553143 107.08862747 -142.38409385 110.92724919 -141.75 116 C-138.28319656 117.21011063 -136.97260391 117.10091013 -133.5703125 115.55859375 C-132.33501819 114.85773674 -131.10347545 114.15024163 -129.875 113.4375 C-119.78661118 107.94180407 -108.87884224 105.53938882 -97.75 103 C-97.03632557 101.14198634 -97.03632557 101.14198634 -96.75 99 C-99.91736607 95.319007 -101.9460757 93.13911426 -106.83984375 92.76171875 C-118.51526382 92.5365076 -129.24422982 94.25406689 -137.75 103 Z M-95.62890625 227.01953125 C-97.58738676 230.47928602 -97.73225664 234.08758999 -97.75 238 C-96.09135769 238.86901157 -96.09135769 238.86901157 -93.75 239 C-91.39266245 237.8539075 -89.23474589 236.66148445 -87 235.3125 C-79.17786106 230.85513776 -71.51518882 228.7907375 -62.75 227 C-60.91615337 226.58559829 -59.0827105 226.1693977 -57.25 225.75 C-55.5175 225.37875 -55.5175 225.37875 -53.75 225 C-53.05717055 223.13666067 -53.05717055 223.13666067 -52.75 221 C-55.92208631 216.96279924 -58.74755205 215.05821014 -63.75 214 C-75.92551776 212.68879039 -87.88125355 217.50818526 -95.62890625 227.01953125 Z " fill="#FCFCFC" transform="translate(2294.75,244)"/>
<path d="M0 0 C3.44487028 3.55802144 5.34798067 7.56950112 7.21484375 12.08984375 C7.50639847 12.77719604 7.79795319 13.46454834 8.0983429 14.17272949 C9.05188131 16.42470687 9.99451403 18.68108623 10.9375 20.9375 C11.6100887 22.52976461 12.28360465 24.12163783 12.95800781 25.71313477 C14.32803411 28.94695723 15.69502354 32.18203657 17.06005859 35.41796875 C19.7469279 41.77657934 22.49603826 48.10767655 25.25 54.4375 C26.31541525 56.89179276 27.38057843 59.34619308 28.4453125 61.80078125 C28.72193222 62.4383284 28.99855194 63.07587555 29.28355408 63.73274231 C34.04926881 74.72021542 38.79236067 85.71750062 43.53637695 96.71435547 C47.3410452 105.53271434 51.14921544 114.34948006 54.97418213 123.15905762 C56.71248135 127.16318409 58.44844763 131.16832012 60.18426514 135.17352295 C61.0098063 137.07657364 61.83647917 138.97913386 62.66436768 140.88116455 C63.81955022 143.53539656 64.97070576 146.19134338 66.12109375 148.84765625 C66.45571121 149.61359604 66.79032867 150.37953583 67.13508606 151.16868591 C68.11451922 153.43644313 69.06009271 155.71557884 70 158 C70.34387033 158.81852448 70.68774065 159.63704895 71.04203129 160.4803772 C73.63672782 167.04423873 74.57960402 172.61351835 74.51757812 179.64038086 C74.5245874 180.64017975 74.53159668 181.63997864 74.53881836 182.67007446 C74.55625417 185.93528995 74.5448332 189.19962135 74.53125 192.46484375 C74.53394756 194.74882675 74.53783218 197.03280863 74.54284668 199.31678772 C74.54872089 204.08345567 74.54024011 208.84982232 74.52148438 213.61645508 C74.49860541 219.72881523 74.5118879 225.84047623 74.53577423 231.95281124 C74.5502109 236.65995074 74.54563751 241.36692362 74.53526306 246.07406807 C74.53259459 248.32875209 74.53586973 250.58345123 74.54518127 252.8381176 C74.55532141 255.98094885 74.5398846 259.12263511 74.51757812 262.26538086 C74.52567505 263.19684433 74.53377197 264.1283078 74.54211426 265.08799744 C74.49196206 268.89526573 74.43652811 271.28793138 72.42137146 274.57507324 C69.0788078 276.54210246 66.61345179 276.51509901 62.74047852 276.53344727 C62.01640808 276.54206284 61.29233765 276.55067841 60.54632568 276.55955505 C58.15682046 276.58222657 55.76848702 276.57547435 53.37890625 276.56640625 C51.71507926 276.57164167 50.05125525 276.57791785 48.38743591 276.58518982 C44.90129628 276.59559639 41.41556475 276.5910296 37.92944336 276.57641602 C33.46574011 276.55923463 29.00332485 276.58271293 24.53976536 276.61790562 C21.1038513 276.63988635 17.66824506 276.63843649 14.23228264 276.6301403 C12.58686855 276.62932101 10.9414318 276.6361804 9.29608345 276.65091133 C6.99289392 276.66836955 4.69201342 276.6538079 2.38891602 276.63110352 C1.07971695 276.63014175 -0.22948212 276.62917999 -1.57835388 276.62818909 C-6.08477338 275.80084358 -7.27013696 274.67852445 -10 271 C-10.73817013 267.41732274 -10.66595054 263.89175954 -10.62145996 260.24459839 C-10.62784878 259.14805093 -10.6342376 258.05150347 -10.64082003 256.9217273 C-10.65610415 253.24025507 -10.63558466 249.55985306 -10.61523438 245.87841797 C-10.6187345 243.24215851 -10.62419493 240.60596976 -10.63204956 237.96972656 C-10.64657717 231.54902289 -10.63434192 225.12863538 -10.61293632 218.70796166 C-10.58893172 211.2336156 -10.59064029 203.75934206 -10.59324223 196.28496601 C-10.5969325 182.95179313 -10.57610461 169.61876933 -10.54199219 156.28564453 C-10.50888741 143.3415958 -10.49473611 130.39770349 -10.50097656 117.45361328 C-10.50773668 103.36229905 -10.50529216 89.27105034 -10.48561716 75.17974579 C-10.48457768 74.435033 -10.48353819 73.69032021 -10.4824672 72.92304037 C-10.48037629 71.42725124 -10.47826531 69.93146215 -10.47613403 68.43567308 C-10.46923204 63.2227336 -10.46857016 58.00981428 -10.47001648 52.79687119 C-10.47160432 45.78564842 -10.45674313 38.77461697 -10.43078995 31.76344299 C-10.42360477 29.18461645 -10.42155574 26.60576995 -10.42490768 24.02693558 C-10.42859954 20.51822867 -10.41395461 17.01007727 -10.39440918 13.50143433 C-10.39973711 12.47080931 -10.40506503 11.44018429 -10.41055441 10.3783282 C-10.40149777 9.44188854 -10.39244113 8.50544887 -10.38311005 7.54063225 C-10.38153884 6.73036138 -10.37996764 5.92009052 -10.37834883 5.08526599 C-9.3467471 -0.60039718 -5.00573221 -0.70255891 0 0 Z " fill="#FDFDFD" transform="translate(1544,152)"/>
<path d="M0 0 C3.625 0.6875 3.625 0.6875 4.92251587 2.16584778 C8.01865189 7.39463806 10.55545006 12.72046361 12.8984375 18.32421875 C13.29468323 19.25581818 13.69092896 20.1874176 14.09918213 21.14724731 C14.95600427 23.1634736 15.80982825 25.18097611 16.66094971 27.19961548 C18.98431242 32.70916955 21.33024099 38.20913066 23.671875 43.7109375 C24.40315109 45.43190392 24.40315109 45.43190392 25.14920044 47.18763733 C30.45011358 59.65380324 35.84699308 72.07782876 41.25 84.5 C43.16709864 88.91127069 45.08356793 93.32281469 47 97.734375 C47.4680304 98.81157806 47.93606079 99.88878113 48.41827393 100.99862671 C52.9621106 111.45865714 57.4929566 121.92428182 62.01580811 132.3934021 C62.82512155 134.26659791 63.63472249 136.13966953 64.44464111 138.01260376 C67.84768116 145.88277425 71.24930408 153.75373936 74.5859375 161.65234375 C74.96282715 162.54429443 75.3397168 163.43624512 75.72802734 164.35522461 C77.11808181 167.96959322 77.74990411 171.14095936 77.77217102 175.01391602 C77.77932632 175.87187775 77.78648163 176.72983948 77.79385376 177.61380005 C77.79654266 178.5469101 77.79923157 179.48002014 77.80200195 180.44140625 C77.80857315 181.43042938 77.81514435 182.41945251 77.82191467 183.43844604 C77.84161564 186.70896481 77.85330023 189.97943782 77.86328125 193.25 C77.86735678 194.36666046 77.8714323 195.48332092 77.87563133 196.63381958 C77.89647362 202.53875544 77.91078602 208.44366815 77.92016602 214.34863281 C77.93125537 220.45551109 77.96568979 226.56202749 78.00533772 232.66877747 C78.03143292 237.35958552 78.0398513 242.05030616 78.04344749 246.74118042 C78.04832808 248.99309751 78.05998361 251.24501032 78.07848549 253.49685669 C78.10273626 256.64273191 78.10193805 259.78765441 78.0949707 262.93359375 C78.10778076 263.8667038 78.12059082 264.79981384 78.13378906 265.76119995 C78.10294574 269.57212862 78.06283162 271.96827424 76.05607605 275.26477051 C72.79400197 277.17382185 69.93483589 277.24822736 66.2578125 277.20507812 C65.15466705 277.21559204 65.15466705 277.21559204 64.02923584 277.22631836 C61.60243783 277.24389881 59.17680951 277.23227639 56.75 277.21875 C55.0613584 277.22144492 53.37271832 277.22532735 51.68408203 277.23034668 C48.14665946 277.23624176 44.60964117 277.22767873 41.07226562 277.20898438 C36.53911155 277.18619448 32.00690473 277.19931756 27.4737854 277.22327423 C23.98731353 277.23773214 20.50106605 277.23312633 17.0145874 277.22276306 C15.34324023 277.22009574 13.67187265 277.22336576 12.00054932 277.23268127 C9.66388025 277.24284719 7.32874256 277.22734749 4.9921875 277.20507812 C4.30219666 277.21317505 3.61220581 277.22127197 2.90130615 277.22961426 C-0.03485998 277.17780228 -2.04745473 276.89278912 -4.55238438 275.32282352 C-7.44343291 271.14265075 -6.92238221 266.9804546 -6.87620544 262.01438904 C-6.88450704 260.36472416 -6.88450704 260.36472416 -6.89297634 258.68173271 C-6.90662815 254.98347655 -6.89158841 251.28588995 -6.87670898 247.58764648 C-6.88049049 244.94169247 -6.88583617 242.29578375 -6.89308167 239.64984131 C-6.90702549 233.20164201 -6.89944986 226.75363835 -6.88440608 220.30544835 C-6.86756062 212.79985523 -6.87075434 205.29431105 -6.87450016 197.78870488 C-6.88038073 184.39954296 -6.86619896 171.01047504 -6.84155273 157.62133789 C-6.81762656 144.62195309 -6.81055007 131.62269388 -6.82104492 118.62329102 C-6.83244722 104.47449076 -6.83439311 90.32574862 -6.81994683 76.17694908 C-6.81842095 74.66907855 -6.81690059 73.16120802 -6.81538582 71.65333748 C-6.814628 70.9113939 -6.81387019 70.16945033 -6.81308941 69.40502362 C-6.80834162 64.1700511 -6.81020148 58.93510449 -6.81445122 53.70013237 C-6.81937143 47.32346537 -6.81342234 40.94691724 -6.79355692 34.5702775 C-6.78366697 31.31520672 -6.78020006 28.06035482 -6.78644943 24.80526924 C-6.79236862 21.28119231 -6.77996151 17.75765545 -6.76268005 14.23362732 C-6.7686901 13.19842923 -6.77470014 12.16323114 -6.78089231 11.09666342 C-6.77245237 10.15612366 -6.76401243 9.2155839 -6.75531673 8.24654293 C-6.7542876 7.43269223 -6.75325848 6.61884153 -6.75219816 5.78032869 C-6.00850019 1.65402954 -3.91939363 0.798395 0 0 Z " fill="#FDFDFD" transform="translate(1159.375,151.3125)"/>
<path d="M0 0 C1.27390314 -0.00573832 1.27390314 -0.00573832 2.5735417 -0.01159257 C5.42397348 -0.0219249 8.27420391 -0.01792997 11.12464905 -0.01396179 C13.16636339 -0.01830813 15.2080761 -0.02349101 17.24978638 -0.02944946 C22.79931335 -0.04285891 28.34877231 -0.04341598 33.89831233 -0.04088616 C38.52821388 -0.03981781 43.15810158 -0.04469633 47.78800017 -0.04949158 C58.7088207 -0.06059342 69.62960685 -0.06102031 80.5504303 -0.05497742 C91.82372985 -0.04893549 103.09690466 -0.0612527 114.37018293 -0.08254749 C124.04330586 -0.10014905 133.71638902 -0.10616714 143.38952738 -0.10290974 C149.16938674 -0.10109449 154.94915711 -0.10375718 160.729002 -0.11762428 C166.16349333 -0.13017453 171.59778982 -0.12828507 177.03227806 -0.11521339 C179.02814041 -0.11284198 181.02401635 -0.11560244 183.01986313 -0.12383652 C185.74190412 -0.13425783 188.46328578 -0.12624052 191.18530273 -0.11352539 C191.97732729 -0.12089968 192.76935185 -0.12827396 193.58537716 -0.13587171 C198.56033492 -0.08689555 202.06949474 0.67404796 205.65614319 4.26069641 C205.77672681 6.38626079 205.82641567 8.51586756 205.84901428 10.64472961 C205.86128052 11.64480545 205.86128052 11.64480545 205.87379456 12.66508484 C205.89868999 14.88053986 205.91517578 17.0959306 205.92958069 19.31147766 C205.93490437 20.06681479 205.94022804 20.82215191 205.94571304 21.60037804 C205.97246389 25.59903831 205.99183168 29.59766716 206.00624084 33.59638977 C206.02288522 37.72947124 206.06765437 41.86175471 206.11861229 45.99453449 C206.15225403 49.16955491 206.16381487 52.34438536 206.16946793 55.51956749 C206.17619009 57.04304788 206.19143744 58.56651536 206.21535873 60.08982277 C206.24694841 62.22337054 206.24705814 64.35475981 206.23963928 66.48847961 C206.24772614 67.70235855 206.25581299 68.91623749 206.2641449 70.16690063 C205.65614319 73.26069641 205.65614319 73.26069641 203.65468884 75.42231274 C199.77372738 77.80169828 196.48682839 77.81765225 192.07141113 77.76863098 C191.20833172 77.77487094 190.34525231 77.78111091 189.45601898 77.78753996 C186.5646853 77.80349179 183.67419208 77.79085719 180.78285217 77.77827454 C178.70980843 77.78369464 176.63676854 77.79081666 174.56373596 77.79951477 C168.93368182 77.81776313 163.30392059 77.81067453 157.67386127 77.79799843 C151.7860349 77.78788002 145.89823383 77.79726076 140.01040649 77.80354309 C130.12347402 77.81082229 120.23666104 77.80122398 110.3497467 77.78218079 C98.91219496 77.76040559 87.47492835 77.76746714 76.0373835 77.78948641 C66.22326381 77.80762541 56.40923006 77.81020624 46.59509903 77.79973173 C40.7308774 77.79348935 34.86678989 77.79268181 29.00257683 77.80587769 C23.49085228 77.81741389 17.97949623 77.80945108 12.46781158 77.78630066 C10.44250921 77.78100192 8.41717593 77.78254715 6.39188576 77.79135132 C3.63213265 77.80224421 0.87356846 77.78861925 -1.8861084 77.76863098 C-2.69203652 77.77755387 -3.49796465 77.78647676 -4.32831484 77.79567003 C-7.87285436 77.74569815 -9.93132048 77.56920603 -12.80996609 75.4164505 C-15.44667156 71.71078326 -15.47746439 68.64031475 -15.50498962 64.21626282 C-15.51940094 62.34884933 -15.51940094 62.34884933 -15.53410339 60.44371033 C-15.53895134 59.08322839 -15.54323018 57.72274432 -15.54698181 56.36225891 C-15.55273585 54.96604918 -15.55849355 53.56983946 -15.56425476 52.17362976 C-15.5747553 49.24659355 -15.58060419 46.31958474 -15.58409119 43.39253235 C-15.58957487 39.64768123 -15.61360378 35.90319388 -15.64206314 32.1584568 C-15.66071549 29.27420504 -15.66589648 26.39004047 -15.66742706 23.50573349 C-15.67044813 22.12546677 -15.67845828 20.74520139 -15.69161224 19.36499405 C-15.7087255 17.43137595 -15.70494005 15.49760734 -15.70030212 13.56391907 C-15.70394775 12.46488251 -15.70759338 11.36584595 -15.71134949 10.23350525 C-15.28783922 6.8075456 -14.4508138 4.98145991 -12.34385681 2.26069641 C-8.58512375 -0.40027566 -4.41677333 -0.02101644 0 0 Z " fill="#FDFDFD" transform="translate(805.3438568115234,84.73930358886719)"/>
<path d="M0 0 C0.85012319 -0.00467997 1.70024637 -0.00935994 2.57613087 -0.01418173 C5.42355277 -0.02614373 8.27049447 -0.01666977 11.11791992 -0.00723267 C13.15978272 -0.01129783 15.20164333 -0.01663939 17.24349976 -0.02316284 C22.78887187 -0.03684878 28.33407669 -0.03153246 33.87945175 -0.02202559 C39.68005579 -0.01443565 45.48064541 -0.02147275 51.28125 -0.02618408 C61.02273127 -0.03164357 70.76414432 -0.02444493 80.50561523 -0.01016235 C91.7715581 0.00616449 103.0373381 0.00087612 114.30327702 -0.01564157 C123.97217994 -0.02925091 133.6410338 -0.03117879 143.3099432 -0.02332556 C149.08642688 -0.01864602 154.86283397 -0.01803195 160.63931274 -0.02793503 C166.06972512 -0.03659434 171.49992729 -0.0306016 176.93031693 -0.01325226 C178.92456335 -0.0092819 180.91882744 -0.01043083 182.91306686 -0.01704025 C185.63287671 -0.02522404 188.35201069 -0.01497246 191.07177734 0 C191.86311978 -0.00669217 192.65446222 -0.01338433 193.46978474 -0.02027929 C198.44124221 0.03289538 201.9517026 0.79676486 205.53588867 4.38095093 C205.6564723 6.50651531 205.70616115 8.63612207 205.72875977 10.76498413 C205.741026 11.76505997 205.741026 11.76505997 205.75354004 12.78533936 C205.77843547 15.00079438 205.79492127 17.21618511 205.80932617 19.43173218 C205.81464985 20.1870693 205.81997353 20.94240643 205.82545853 21.72063255 C205.85220938 25.71929282 205.87157716 29.71792167 205.88598633 33.71664429 C205.9026307 37.84972575 205.94739985 41.98200923 205.99835777 46.11478901 C206.03199951 49.28980942 206.04356035 52.46463987 206.04921341 55.63982201 C206.05593557 57.1633024 206.07118292 58.68676987 206.09510422 60.21007729 C206.12669389 62.34362505 206.12680362 64.47501433 206.11938477 66.60873413 C206.12747162 67.82261307 206.13555847 69.036492 206.14389038 70.28715515 C205.53588867 73.38095093 205.53588867 73.38095093 203.53206158 75.54340839 C199.66031442 77.9179376 196.39359703 77.93207771 191.98912048 77.87542725 C191.13012463 77.88025608 190.27112877 77.88508491 189.38610274 77.89006007 C186.50855702 77.90132927 183.63190031 77.88401326 180.75439453 77.86679077 C178.69120544 77.86893667 176.62801752 77.8728144 174.56483459 77.8782959 C168.96161607 77.88799441 163.35871588 77.87267985 157.75553584 77.85238981 C151.89574844 77.83483223 146.03597106 77.83834363 140.17616272 77.83911133 C130.33630033 77.83723795 120.49656126 77.81986823 110.65673828 77.79257202 C99.27378389 77.76111214 87.89096453 77.75057612 76.5079698 77.75204313 C65.56493626 77.75326307 54.62194678 77.74305842 43.67892647 77.7264595 C39.01832295 77.71939121 34.35773501 77.71573263 29.69712639 77.71467209 C24.21175238 77.71266561 18.72649211 77.70047557 13.24115562 77.68033981 C11.22552944 77.67448964 9.20989017 77.67203912 7.19425583 77.67319489 C4.44794002 77.67417386 1.70194448 77.66288911 -1.04432678 77.64837646 C-1.84636396 77.65147367 -2.64840114 77.65457087 -3.47474247 77.65776193 C-10.40418043 77.59707809 -10.40418043 77.59707809 -13.46411133 75.38095093 C-15.51540364 71.65889295 -15.71668555 68.40091922 -15.72290039 64.20126343 C-15.72920471 62.97649292 -15.73550903 61.75172241 -15.74200439 60.48983765 C-15.73795593 59.17515503 -15.73390747 57.86047241 -15.72973633 56.50595093 C-15.73108478 55.13501924 -15.73302682 53.76408802 -15.73553467 52.39315796 C-15.73847745 49.52511017 -15.73421562 46.65718728 -15.72485352 43.78915405 C-15.71345937 40.12064674 -15.72002339 36.45243213 -15.73199844 32.78393555 C-15.73923996 29.95457775 -15.73691862 27.12528887 -15.73174286 24.29592896 C-15.72976782 22.2879721 -15.73582108 20.28001252 -15.74200439 18.27206421 C-15.73570007 17.0472937 -15.72939575 15.82252319 -15.72290039 14.56063843 C-15.7213092 13.48539917 -15.71971802 12.41015991 -15.71807861 11.30233765 C-15.4461521 8.17436583 -15.00617559 6.11846169 -13.46411133 3.38095093 C-9.20977474 0.02224479 -5.21046765 -0.04406349 0 0 Z " fill="#FDFDFD" transform="translate(452.464111328125,84.61904907226563)"/>
<path d="M0 0 C1.73769493 0.82014329 3.4770768 1.63672064 5.21801758 2.44995117 C7.92761949 3.71641919 10.63587146 4.98520442 13.33903503 6.2653656 C22.19968002 10.46003658 31.16400287 14.40065052 40.15405273 18.30844116 C44.41355709 20.16103312 48.66776404 22.02568873 52.921875 23.890625 C53.73575684 24.24722702 54.54963867 24.60382904 55.38818359 24.97123718 C63.44304189 28.5040884 71.47579304 32.08564716 79.5 35.6875 C80.11604095 35.96389313 80.73208191 36.24028625 81.36679077 36.52505493 C91.11025561 40.89887781 91.11025561 40.89887781 93.5625 42.125 C92.98652457 47.67332026 91.53952752 52.38831323 89.5 57.5625 C88.97548839 58.91134366 88.45151643 60.26039725 87.92797852 61.60961914 C87.47737061 62.76969482 87.0267627 63.92977051 86.5625 65.125 C72.08402298 60.38206712 57.71193257 55.38113459 43.37878418 50.21643066 C39.92223555 48.97200322 36.46376362 47.73304632 33.00488281 46.49511719 C22.45383574 42.71447402 11.91726575 38.9041025 1.42578125 34.9609375 C-1.01924298 34.04950708 -3.46473005 33.13933035 -5.91036987 32.22955322 C-8.1249192 31.3984851 -10.33093017 30.54718059 -12.53735352 29.69482422 C-13.87347746 29.1965623 -15.20996199 28.69926583 -16.546875 28.203125 C-17.67061523 27.77418945 -18.79435547 27.34525391 -19.95214844 26.90332031 C-28.13727118 25.07548539 -35.39809155 27.87581398 -43.046875 30.7109375 C-44.06792831 31.08020355 -45.08898163 31.4494696 -46.14097595 31.82992554 C-48.34447872 32.62825785 -50.54633211 33.43115463 -52.74667358 34.23815918 C-56.22735036 35.51461417 -59.71224658 36.77886333 -63.19848633 38.04003906 C-68.72101717 40.03951183 -74.24081189 42.04637522 -79.75929165 44.05699921 C-90.36267151 47.91983165 -100.97156741 51.76718607 -111.58728027 55.5960083 C-115.09473524 56.86405838 -118.59867081 58.14151205 -122.10253906 59.41943359 C-124.23877276 60.19152227 -126.37515774 60.96319254 -128.51171875 61.734375 C-129.49252914 62.09485931 -130.47333954 62.45534363 -131.48387146 62.82675171 C-132.37566605 63.14657013 -133.26746063 63.46638855 -134.1862793 63.79589844 C-134.96351852 64.07834412 -135.74075775 64.36078979 -136.54154968 64.65179443 C-138.4375 65.125 -138.4375 65.125 -140.4375 64.125 C-141.21533203 62.42260742 -141.21533203 62.42260742 -141.9453125 60.23046875 C-142.20957031 59.43962891 -142.47382812 58.64878906 -142.74609375 57.83398438 C-143.01550781 57.00189453 -143.28492188 56.16980469 -143.5625 55.3125 C-143.83964844 54.49201172 -144.11679687 53.67152344 -144.40234375 52.82617188 C-145.66908704 48.97914116 -146.4375 46.24256253 -146.4375 42.125 C-123.68565748 31.7708058 -100.91356675 21.47002144 -77.98291016 11.51660156 C-70.25951177 8.15879652 -62.57666052 4.7551667 -54.984375 1.109375 C-53.04904205 0.19302322 -51.11290723 -0.72161615 -49.17666626 -1.63604736 C-47.4625274 -2.45802801 -45.76428025 -3.31290882 -44.06713867 -4.16943359 C-27.60398454 -11.94444166 -15.28611482 -7.46783171 0 0 Z " fill="#FDFDFD" transform="translate(931.4375,9.875)"/>
<path d="M0 0 C1.06747607 2.68560981 2.12863081 5.37349749 3.1875 8.0625 C3.51355225 8.87944336 3.83960449 9.69638672 4.17553711 10.53808594 C5.67082953 14.33891319 7.08819571 18.07888683 8.0859375 22.04296875 C10.7009172 31.9694317 15.09248915 36.94370824 22.625 43.68359375 C29.78218126 50.28867546 33.46877834 58.73449525 34.28515625 68.36328125 C34.60664994 81.1531388 31.67868684 93.63682286 22.8671875 103.28125 C17.41762169 108.29758672 11.29713185 111.63341979 4.33032227 114.06298828 C-4.40044393 117.13058425 -8.7163665 121.43773736 -14 129 C-15.65327139 131.09271573 -17.357355 133.13603873 -19.0625 135.1875 C-19.81660156 136.10917969 -20.57070312 137.03085937 -21.34765625 137.98046875 C-21.89292969 138.64691406 -22.43820313 139.31335938 -23 140 C-27.48071284 139.15256083 -29.63834347 136.97965011 -33 134 C-31.54292408 129.49555388 -29.00549108 126.32311497 -25.9375 122.8125 C-22.63225395 119.14127057 -22.63225395 119.14127057 -20 115 C-20.59425781 114.87625 -21.18851563 114.7525 -21.80078125 114.625 C-34.23024479 111.53213193 -42.47429189 103.79251725 -49 93 C-49.66691325 91.50925273 -50.31568757 90.01011589 -50.9375 88.5 C-52.09235142 85.92663244 -52.69180504 85.15920717 -55.23828125 83.84375 C-58.00992766 82.86942545 -58.00992766 82.86942545 -62 82 C-59.525 76.06 -59.525 76.06 -57 70 C-48.585 71.485 -48.585 71.485 -40 73 C-39.4225 75.02125 -38.845 77.0425 -38.25 79.125 C-36.72598562 84.12703291 -35.1314686 87.86198792 -32 92 C-32 92.66 -32 93.32 -32 94 C-31.46375 94.2475 -30.9275 94.495 -30.375 94.75 C-28 96 -28 96 -25.125 98 C-18.10226032 102.4945534 -11.13257482 102.77316732 -3 102 C3.24628809 100.43842798 7.88485294 98.05575211 12 93 C12.66128906 92.19369141 12.66128906 92.19369141 13.3359375 91.37109375 C19.26238896 83.71466657 19.90884794 75.44753049 19 66 C17.41468472 59.74443158 14.74809238 54.43843418 10 50 C0.99682525 44.69043541 -6.528493 43.04600419 -17 44 C-25.60982133 46.40793093 -31.87216248 52.7025642 -36.3515625 60.2890625 C-38 62 -38 62 -40.77734375 62.20703125 C-41.82019531 62.07683594 -42.86304687 61.94664062 -43.9375 61.8125 C-44.97777344 61.69519531 -46.01804687 61.57789063 -47.08984375 61.45703125 C-50 61 -50 61 -54 60 C-54 55.71 -54 51.42 -54 47 C-52.659375 47.165 -51.31875 47.33 -49.9375 47.5 C-46.89075592 47.50950622 -45.50421244 47.43034692 -43.16015625 45.4296875 C-42.02282897 44.02207773 -40.90245023 42.60065225 -39.796875 41.16796875 C-34.2711287 34.50103572 -26.41381702 31.22898451 -18 30 C-12.98376495 29.70286236 -8.02768833 29.86162326 -3 30 C-5.97 21.09 -8.94 12.18 -12 3 C-3 0 -3 0 0 0 Z " fill="#FAFAFA" transform="translate(2286,318)"/>
<path d="M0 0 C1.28027344 2.31665039 1.28027344 2.31665039 2.359375 5.34765625 C2.75253906 6.42724609 3.14570313 7.50683594 3.55078125 8.61914062 C3.94652344 9.75544922 4.34226562 10.89175781 4.75 12.0625 C5.16121094 13.20267578 5.57242188 14.34285156 5.99609375 15.51757812 C7.01178631 18.34025862 8.01228502 21.16743326 9 24 C9.58297852 23.45657959 10.16595703 22.91315918 10.76660156 22.35327148 C22.4547568 11.67118226 33.53247669 9.69186096 49.0625 10.1875 C53.19177761 10.26566426 53.19177761 10.26566426 56.6875 8 C57.120625 7.34 57.55375 6.68 58 6 C61.47132095 7.40929697 62.88093274 8.90605083 64.75 12.125 C65.17796875 12.84945313 65.6059375 13.57390625 66.046875 14.3203125 C66.36140625 14.87460937 66.6759375 15.42890625 67 16 C65.67627822 17.87602293 64.31474325 19.72540925 62.9375 21.5625 C62.18339844 22.59503906 61.42929688 23.62757813 60.65234375 24.69140625 C58 27 58 27 54.3984375 26.91015625 C52.14043301 26.30542631 49.90091193 25.62672481 47.6875 24.875 C39.56823296 22.94839426 32.12690173 24.87250198 25 29 C17.89267146 33.56184669 14.6211904 40.1364288 12 48 C11.01152028 57.73895592 13.02254848 65.60869595 19.125 73.3125 C25.16743827 79.66348831 32.49026673 82.72279845 41.203125 83.12890625 C49.76707611 82.73419901 56.84153144 79.99051032 63 74 C69.41108681 66.7384629 70.48725743 59.46441802 70.40234375 49.92578125 C69.8005321 44.05373556 67.7093145 39.19607816 65 34 C66.45398729 32.18401175 67.91332325 30.37230481 69.375 28.5625 C70.18710938 27.55316406 70.99921875 26.54382813 71.8359375 25.50390625 C74 23 74 23 76 22 C78.8203125 23.21484375 78.8203125 23.21484375 82.125 24.9375 C83.76855469 25.78634766 83.76855469 25.78634766 85.4453125 26.65234375 C86.28835937 27.09707031 87.13140625 27.54179687 88 28 C87.29810547 28.69609375 87.29810547 28.69609375 86.58203125 29.40625 C83.2881755 33.30361575 81.91053715 35.70084384 82.26953125 40.9140625 C82.77345319 43.68676159 83.43785147 46.40272853 84.1328125 49.1328125 C86.85917686 61.29092381 82.04712787 70.70618362 76 81 C77.37671875 81.18175781 77.37671875 81.18175781 78.78125 81.3671875 C85.30736024 82.25835802 91.65478526 83.22333987 98 85 C97.85892253 86.45880109 97.71197585 87.91703551 97.5625 89.375 C97.44068359 90.59316406 97.44068359 90.59316406 97.31640625 91.8359375 C97 94 97 94 96 96 C90.22204159 96.25480865 85.17407297 95.51351352 79.52539062 94.32324219 C69.08426398 92.17359847 62.41376596 91.52792016 52.51171875 95.73046875 C43.29550506 99.06224789 32.68249929 97.8059977 23.67578125 94.3203125 C11.91096038 88.51518921 3.33208657 78.27114651 -1 66 C-2.06703848 61.91304128 -2.13373659 58.02790385 -2.125 53.8125 C-2.12757813 52.58144531 -2.13015625 51.35039062 -2.1328125 50.08203125 C-2.11876024 47.91718819 -1.99432851 45.97105278 -1.57739258 43.84301758 C-0.0090519 35.22660255 -3.38512005 27.95690207 -6.4375 20.0625 C-7.23417338 17.95127942 -8.02498825 15.83801904 -8.8115387 13.7230072 C-9.52201784 11.8205937 -10.24778603 9.92391076 -10.97436523 8.02758789 C-12 5 -12 5 -12 2 C-10.75579353 1.4654744 -9.50429064 0.94791389 -8.25 0.4375 C-7.55390625 0.14746094 -6.8578125 -0.14257812 -6.140625 -0.44140625 C-3.54713853 -1.1181737 -2.46192556 -1.06261579 0 0 Z " fill="#FBFBFB" transform="translate(2082,392)"/>
<path d="M0 0 C0.99 0.99 0.99 0.99 2 2 C4.54901164 2.66206646 7.05197626 3.22406086 9.6328125 3.7265625 C10.76056595 3.95537613 10.76056595 3.95537613 11.91110229 4.18881226 C14.31435773 4.67470511 16.71957795 5.14996153 19.125 5.625 C20.75404669 5.95242706 22.38295497 6.28054354 24.01171875 6.609375 C28.00625005 7.41426068 32.0025757 8.20961312 36 9 C35.67 12.96 35.34 16.92 35 21 C18.1070615 19.07289294 18.1070615 19.07289294 11 17 C11.144375 17.65484375 11.28875 18.3096875 11.4375 18.984375 C14.4362038 33.72800201 13.39132439 45.12133076 5.40234375 57.96875 C4 60 4 60 2 62 C1.95907063 64.33297433 1.95758277 66.66705225 2 69 C1 70 1 70 -1.94140625 70.09765625 C-3.13636719 70.08605469 -4.33132812 70.07445312 -5.5625 70.0625 C-7.35880859 70.04896484 -7.35880859 70.04896484 -9.19140625 70.03515625 C-10.58166016 70.01775391 -10.58166016 70.01775391 -12 70 C-12.53394179 68.5882217 -13.05165104 67.17029756 -13.5625 65.75 C-13.85253906 64.96109375 -14.14257812 64.1721875 -14.44140625 63.359375 C-15.06377802 60.73061592 -15.0533873 59.4752007 -14 57 C-12.546875 55.68359375 -12.546875 55.68359375 -10.75 54.4375 C-4.61853635 49.41626022 -2.02605587 42.14383449 -1 34.4375 C-0.60109035 26.45930693 -2.9152709 19.18412999 -8 13 C-14.39294461 6.11757239 -20.63552592 3.60566643 -29.875 2.5625 C-39.3863899 3.06108092 -47.20167905 6.90269437 -53.9296875 13.51171875 C-58.8567699 19.43351402 -60.68810007 25.84248897 -60.31640625 33.4921875 C-59.2002566 42.33870692 -56.15329405 49.80694708 -49.11328125 55.53515625 C-41.62430203 60.58175718 -33.81887289 61.26509393 -25 62 C-23.68 66.29 -22.36 70.58 -21 75 C-29.625 81 -29.625 81 -33 81 C-33.33 79.35 -33.66 77.7 -34 76 C-34.89460938 75.85304688 -35.78921875 75.70609375 -36.7109375 75.5546875 C-48.95432527 73.28352602 -57.62635611 69.22622146 -65 59 C-71 49.92682927 -71 49.92682927 -71 47 C-74.88687731 50.76541239 -78.47134187 54.74448369 -82.03515625 58.81640625 C-83.95735612 60.95260849 -85.95016118 62.98668392 -88 65 C-90.64 62.69 -93.28 60.38 -96 58 C-94.4838911 53.11169736 -91.6505463 49.98798012 -88.3125 46.25 C-87.22449754 44.99415009 -86.13725497 43.73764145 -85.05078125 42.48046875 C-83.32297819 40.49712685 -81.57920093 38.54494118 -79.79296875 36.61328125 C-75.4895872 31.69111281 -73.93883842 26.84848357 -72.47753906 20.59375 C-70.16627061 10.98042376 -64.79798086 3.07668743 -57 -3 C-37.82242368 -14.63060558 -18.14806308 -13.42097197 0 0 Z " fill="#FBFBFB" transform="translate(2183,254)"/>
<path d="M0 0 C0.30435507 4.41314854 0.42293947 7.08056638 -1.4375 11.125 C-7.34572267 17.75373763 -14.24910028 21.47325511 -23.11328125 22.28515625 C-32.97307625 22.72063983 -32.97307625 22.72063983 -36.75 19.8125 C-39.05433717 16.93207853 -39.45406919 15.53074816 -40 12 C-38.98421875 11.76925781 -37.9684375 11.53851563 -36.921875 11.30078125 C-26.52033082 8.86529773 -16.9682787 5.67242799 -7.5 0.625 C-3.89020204 -1.05097762 -3.47739075 -1.17438197 0 0 Z " fill="#FAFAFA" transform="translate(2147,448)"/>
<path d="M0 0 C1.27079419 2.88816861 0.93629246 4.22509998 0.0625 7.3125 C-3.06613288 13.85036064 -8.73959088 17.76696181 -15.3125 20.4375 C-22.23816552 22.66910333 -28.63299271 22.98688145 -35.625 20.9375 C-38 19 -38 19 -38.875 15.3125 C-38.91625 14.219375 -38.9575 13.12625 -39 12 C-34.71237588 10.54527039 -30.42609067 9.11827154 -26.0859375 7.828125 C-25.04663086 7.51524536 -25.04663086 7.51524536 -23.98632812 7.19604492 C-22.6095181 6.78290639 -21.23066891 6.3764859 -19.84960938 5.9777832 C-16.37725054 4.92880583 -13.37032609 3.72739412 -10.25390625 1.85546875 C-6.51908637 -0.27423046 -4.22897584 -0.34522252 0 0 Z " fill="#FAFAFA" transform="translate(2177,289)"/>
<path d="M0 0 C1 1 1 1 1.5 4.5625 C1.3981839 9.29694866 -0.43629246 11.85540055 -3.703125 15.16796875 C-11.54199446 21.42040035 -19.93490561 22.55618812 -29.65234375 22.56640625 C-33.6220109 21.89475895 -35.34242848 21.02065529 -38 18 C-38.3125 14.75 -38.3125 14.75 -38 12 C-36.44152344 11.63648438 -36.44152344 11.63648438 -34.8515625 11.265625 C-25.50932655 9.04026828 -16.47686277 6.78029706 -8.1875 1.75 C-5.03271107 0.01795902 -3.51408549 -0.51677728 0 0 Z " fill="#FCFCFC" transform="translate(2299,393)"/>
</svg>
