<?xml version="1.0" encoding="UTF-8" standalone="no"?>
<!-- Created with Inkscape (http://www.inkscape.org/) -->

<svg
   version="1.1"
   id="svg2"
   width="750.66669"
   height="204"
   viewBox="0 0 750.66669 204"
   sodipodi:docname="Logo para fundo escuro, com nome-ENG.eps"
   xmlns:inkscape="http://www.inkscape.org/namespaces/inkscape"
   xmlns:sodipodi="http://sodipodi.sourceforge.net/DTD/sodipodi-0.dtd"
   xmlns="http://www.w3.org/2000/svg"
   xmlns:svg="http://www.w3.org/2000/svg">
  <defs
     id="defs6" />
  <sodipodi:namedview
     id="namedview4"
     pagecolor="#ffffff"
     bordercolor="#000000"
     borderopacity="0.25"
     inkscape:showpageshadow="2"
     inkscape:pageopacity="0.0"
     inkscape:pagecheckerboard="0"
     inkscape:deskcolor="#d1d1d1" />
  <g
     id="g8"
     inkscape:groupmode="layer"
     inkscape:label="ink_ext_XXXXXX"
     transform="matrix(1.3333333,0,0,-1.3333333,0,204)">
    <g
       id="g10"
       transform="scale(0.1)">
      <path
         d="m 5300.78,699.68 c -6.87,-5.528 -50.51,-11.344 -66.87,-19.11 -8.91,-4.23 -57.07,-39.797 -41.98,3.317 15.33,43.828 109.56,56.433 108.85,15.793 z m -298.79,46.164 c -22.94,-8.281 -43.22,-5.754 -67.24,-17.946 -9.36,-4.742 -18.67,-11.855 -27.3,-15.703 -18.74,-8.343 -19.52,7.969 -13.05,21.852 19.28,41.383 108.97,54.461 107.59,11.797 z m 498.35,179.984 c -9.75,-7.535 -48.05,-10.301 -67.36,-19.539 -8.86,-4.238 -58.18,-39.41 -41.8,3.301 15.75,41.086 106.86,59.027 109.16,16.238 z M 5265.25,351.734 c 9.03,3.215 3.08,-0.254 10.09,5.829 2.01,1.738 4.04,4.281 6.17,6.445 4.68,4.769 9.1,8.14 12.57,13.344 1.21,35.472 42.37,57.699 80.8,55.23 -5.9,7.496 -7.31,6.656 -19.21,6.656 5.48,-2.375 11.52,8.129 12.81,15.231 -25.03,-0.371 -16.4,-7.348 -35.21,45.547 -5.47,15.375 -13.5,33.254 -16.72,49.039 35.59,14.496 61.67,69.625 45.32,120.578 -7.28,22.68 -17.23,28.582 -20.69,38.637 l 70,75.769 c 53.46,-22.754 103.03,-7.824 129.39,29.57 30.06,42.645 23.94,96.789 -16.34,133.625 -58.24,53.246 -156.25,14.063 -163.85,-64.195 -2.94,-30.215 6.36,-54.094 20.18,-72.465 -6.53,-11.082 -23.34,-27.187 -33.47,-38.246 -11.46,-12.515 -22.26,-26.355 -33.1,-38.496 l 12.62,-12.144 c -7.5,1.839 -13.07,6.546 -21.84,10.324 -44.03,18.953 -90.7,6.148 -121,-29.078 -13.15,-15.274 -14.3,-23.657 -21.76,-43.719 l 1.59,21.172 -99.93,15.566 c -5.61,33.031 -10.99,47.078 -27.5,66.274 -11.27,13.097 -37.27,28.812 -62.6,31.203 -56.53,5.336 -98.73,-33.645 -108.02,-79.637 -11.65,-57.719 25.04,-100.02 67.4,-114.508 56.01,-19.156 111.8,19.934 122.48,58.778 l 104.42,-15.594 c -0.06,-40.188 12.43,-59.383 32.68,-80.332 21.65,-22.403 48.12,-29.387 86.31,-27.969 5.79,-8.484 31.11,-79.383 33.52,-92.789 -17.38,-19.324 -47.64,-30.449 -47.11,-89.645"
         style="fill:#ffffff;fill-opacity:1;fill-rule:evenodd;stroke:none"
         id="path12" />
      <path
         d="m 5374.88,432.582 c 17.53,-3.496 30.94,-7.191 30.32,-26.09 -16.02,-7.047 -38.06,-6.254 -56.65,-13.469 -16.67,-6.468 -35.35,-22.964 -51.44,-22.625 l -3.03,6.954 c -3.47,-5.204 -7.89,-8.575 -12.57,-13.344 -2.13,-2.164 -4.16,-4.707 -6.17,-6.445 -7.01,-6.083 -1.06,-2.614 -10.09,-5.829 -0.8,-43.816 29.94,-73.906 58.48,-87.425 78.63,-37.25 168.65,44.39 132.47,130.129 -12.43,29.449 -44.9,59.812 -87.72,60.031 -1.29,-7.102 -7.33,-17.606 -12.81,-15.231 11.9,0 13.31,0.84 19.21,-6.656"
         style="fill:#ffffff;fill-opacity:1;fill-rule:evenodd;stroke:none"
         id="path14" />
      <path
         d="m 5483.2,759.559 22.43,-64.653 c -36.41,1.551 -68.99,-3.508 -93.3,-30.519 -14.42,-16.028 -4.07,-12.934 -31.27,-10.289 l 0.84,-29.125 35.55,-5.664 c 19.78,32.902 45.1,57.144 91.47,43.57 80.46,-23.555 61.62,-150.981 -29.03,-143.652 -20.93,1.687 -36.62,12.152 -46.89,22.972 -5.59,5.875 -9.74,11.809 -13.59,20.559 -3.61,8.191 -4.32,20.574 -8.23,28.609 l -36.07,6.004 -12.05,-25.851 c 1.29,-0.86 1.74,-1.332 5.05,-2.438 17.14,-5.711 15.62,3.594 23.84,-16.723 5.59,-13.808 12.82,-23.617 23.46,-34.179 5.56,-5.52 13.8,-11.582 22.38,-16.055 8.57,-4.477 20.06,-7.102 27.55,-11.648 -8.72,-12.821 -29.82,-33.118 -32.94,-42.692 5.84,-5.652 13.46,-13.117 19.34,-15.019 l 47.07,55.531 c 5.81,4.902 75.26,11.812 89.06,83.863 14.66,76.555 -44.79,98.426 -52.3,117.43 -7.74,19.594 -19.73,63.086 -28.32,76.957 l -24.05,-6.988"
         style="fill:#ffffff;fill-opacity:1;fill-rule:evenodd;stroke:none"
         id="path16" />
      <path
         d="m 4992.51,582.934 25.2,-71.805 c 5.36,-14.008 5.29,-11.125 1.62,-25.883 -18.4,-73.949 49.98,-142.914 124.24,-124.269 28.52,7.156 17.09,14.953 50.5,8.296 11.68,-2.324 46.69,-9.921 56.02,-8.5 l 3.03,24.711 -40.31,7.188 c -6.67,1.129 -8.5,1.023 -12.8,3.879 26.57,44.113 26.74,50.804 14.21,106.734 4.69,7.664 10.75,12.32 15.35,19.215 l -28,12.887 c -7.05,-8.688 -16.76,-18.489 -23.44,-27.832 7.87,-18.907 16.74,-25.063 14.5,-52.961 -4.97,-61.981 -79.65,-86.074 -120.68,-49.321 -48.31,43.274 -25.5,110.864 26.64,126.711 30.18,9.172 37.26,-2.515 59.35,-5.82 6.27,9.934 15.1,16.879 21.17,26.219 l -17.17,22.93 -13.26,-14.196 c -25.16,1.914 -39.42,6.735 -65.2,-3.324 -35.02,-13.66 -32.18,-24.492 -43.73,-28.73 l -23.19,63.343 -24.05,-9.472"
         style="fill:#ffffff;fill-opacity:1;fill-rule:evenodd;stroke:none"
         id="path18" />
      <path
         d="m 5033.71,785.063 c 3.8,-4.25 5.15,-5.043 8.43,-8.196 5.94,-5.695 4.53,-5.941 11.28,-9.34 3.03,5.442 32.1,40.633 37.23,44.637 20.19,-37.82 34.03,-63.25 90.24,-71.598 l 3.89,-13.617 c 9.48,5.008 14.82,10.715 25.42,15.59 l -9.52,27.797 c -39.44,0.734 -70.94,12.477 -82.65,54.777 -23.64,85.395 99.24,129.996 138.1,50.367 18.58,-38.082 -2.69,-82.835 -28.59,-94.246 l 9.28,-27.796 29.35,2.421 c -2.24,21.422 -7.58,7.766 5.71,25.473 27.21,36.285 22.12,64.246 14.13,100.918 l 58.62,-10.164 2.79,26.633 c -17.89,1.777 -36.1,6.304 -54.45,9.457 -36.06,6.191 -22.55,5.875 -45.42,20.637 -66.95,43.21 -147.36,1.878 -159.03,-66.024 -2.41,-14.047 -2.67,-14.781 -9.42,-23.172 -9.07,-11.265 -42.24,-46.722 -45.39,-54.554"
         style="fill:#ffffff;fill-opacity:1;fill-rule:evenodd;stroke:none"
         id="path20" />
      <path
         d="m 5082.24,425.07 c 3.15,-37.828 77.93,-20.828 91.04,11.09 4.74,11.528 3.45,24.75 -11.44,17.906 -8.14,-3.734 -14.51,-8.996 -23.2,-13.285 -19.62,-9.676 -40.16,-8.304 -56.4,-15.711"
         style="fill:#ffffff;fill-opacity:1;fill-rule:evenodd;stroke:none"
         id="path22" />
      <path
         d="m 5449.93,556.547 c -1.3,-46.641 114.98,-9.543 89.34,30.004 -13.67,0.863 -27.16,-13.121 -41.59,-18.27 -14.77,-5.273 -36.68,-6.211 -47.75,-11.734"
         style="fill:#ffffff;fill-opacity:1;fill-rule:evenodd;stroke:none"
         id="path24" />
      <path
         d="m 5154.78,806.41 c -1.6,-35.535 76.33,-21.695 90.42,12.344 15,36.23 -26.29,8.344 -34.29,4.355 -16.96,-8.449 -47.4,-10.168 -56.13,-16.699"
         style="fill:#ffffff;fill-opacity:1;fill-rule:evenodd;stroke:none"
         id="path26" />
      <path
         d="m 5512.31,879.633 c 6.38,-1.863 8.33,-4.031 13.75,-0.645 -7.35,6.559 -12.54,1.828 -9.66,14.133 10.14,-4.273 5.52,-8.883 16.64,-10.387 4.96,11.235 3.19,24.121 -11.81,20.805 -13.81,-3.043 -10.99,-14.719 -8.92,-23.906"
         style="fill:#ffffff;fill-opacity:1;fill-rule:evenodd;stroke:none"
         id="path28" />
      <path
         d="M 291.098,313.797 34.793,890.422 V 938 l 256.305,577.5 68.187,-24.34 L 152.969,914.32 359.285,336.816 Z M 4618.88,1515.5 4875.18,938.656 v -47.578 l -256.3,-577.281 -68.62,24.332 206.09,576.848 -206.09,577.503 68.62,23.02"
         style="fill:#f3b931;fill-opacity:1;fill-rule:nonzero;stroke:none"
         id="path30" />
      <path
         d="M 291.098,313.797 34.793,890.422 V 938 l 256.305,577.5 68.187,-24.34 L 152.969,914.32 359.285,336.816 Z M 4618.88,1515.5 4875.18,938.656 v -47.578 l -256.3,-577.281 -68.62,24.332 206.09,576.848 -206.09,577.503 z"
         style="fill:none;stroke:#f3b931;stroke-width:21.2598;stroke-linecap:butt;stroke-linejoin:miter;stroke-miterlimit:22.9256;stroke-dasharray:none;stroke-opacity:1"
         id="path32" />
      <path
         d="m 704.266,808.391 c -14.641,0 -21.961,6.976 -21.961,20.914 v 102.484 c 0,13.945 7.32,20.918 21.961,20.918 h 278.172 c 13.246,0 19.862,-6.973 19.862,-20.918 V 786.434 c 0,-57.172 -8.011,-104.926 -24.05,-143.27 -16.035,-38.344 -38.516,-69.019 -67.449,-92.023 -28.934,-23.008 -63.27,-39.219 -103.004,-48.629 -39.738,-9.41 -82.965,-14.121 -129.676,-14.121 -48.101,0 -92.027,4.882 -131.766,14.644 -39.738,9.762 -74.07,26.492 -103.003,50.195 -28.934,23.704 -51.243,55.25 -66.93,94.641 -15.684,39.387 -23.527,88.715 -23.527,147.973 v 236.336 c 0,59.26 7.843,108.76 23.527,148.5 15.687,39.74 37.996,71.46 66.93,95.16 28.933,23.71 63.265,40.44 103.003,50.2 39.739,9.76 83.665,14.64 131.766,14.64 48.106,0 92.027,-5.05 131.766,-15.16 39.738,-10.11 73.902,-26.15 102.48,-48.11 28.586,-21.96 50.723,-50.54 66.41,-85.75 15.684,-35.21 23.523,-77.56 23.523,-127.06 v -2.09 c -0.69,-13.94 -7.663,-20.91 -20.909,-20.91 H 810.93 c -14.641,0 -21.957,7.31 -21.957,21.95 v 8.37 c 0,12.55 -1.918,24.4 -5.754,35.56 -3.836,11.15 -10.11,20.91 -18.821,29.28 -8.718,8.36 -20.043,15.16 -33.988,20.39 -13.945,5.23 -31.375,7.84 -52.289,7.84 -41.133,0 -70.238,-9.93 -87.32,-29.8 -17.078,-19.87 -25.621,-51.42 -25.621,-94.64 V 788.523 c 0,-43.222 8.543,-74.769 25.621,-94.64 17.082,-19.871 46.187,-29.801 87.32,-29.801 41.133,0 69.891,9.93 86.277,29.801 16.379,19.871 24.575,51.418 24.575,94.64 v 19.868 z M 1118.38,504.078 c -14.64,0 -21.96,6.973 -21.96,20.918 v 565.754 c 0,13.94 6.97,20.91 20.92,20.91 h 176.73 c 14.64,0 21.96,-6.97 21.96,-20.91 v -89.94 h 225.88 c 13.25,0 19.87,-6.974 19.87,-20.915 V 857.543 c 0,-14.641 -6.62,-21.961 -19.87,-21.961 H 1316.03 V 686.039 h 272.94 c 13.24,0 19.87,-6.973 19.87,-20.914 V 526.043 c 0,-14.641 -6.63,-21.965 -19.87,-21.965 z m -21.96,638.962 c -14.64,0 -21.96,6.96 -21.96,20.91 v 140.13 c 0,13.94 7.32,20.91 21.96,20.91 h 485.23 c 13.94,0 20.92,-6.97 20.92,-20.91 v -139.09 c 0,-14.64 -6.98,-21.95 -20.92,-21.95 z m 869.02,-638.962 c -14.64,0 -21.96,6.973 -21.96,20.918 v 565.754 c 0,13.94 6.97,20.91 20.91,20.91 h 176.74 c 14.64,0 21.96,-6.97 21.96,-20.91 v -89.94 h 225.88 c 13.24,0 19.87,-6.974 19.87,-20.915 V 857.543 c 0,-14.641 -6.63,-21.961 -19.87,-21.961 H 2163.09 V 686.039 h 272.94 c 13.24,0 19.86,-6.973 19.86,-20.914 V 526.043 c 0,-14.641 -6.62,-21.965 -19.86,-21.965 z m -21.96,638.962 c -14.64,0 -21.96,6.96 -21.96,20.91 v 140.13 c 0,13.94 7.32,20.91 21.96,20.91 h 485.23 c 13.94,0 20.91,-6.97 20.91,-20.91 v -139.09 c 0,-14.64 -6.97,-21.95 -20.91,-21.95 z m 1252.81,-329.419 181.96,493.589 c 2.09,6.28 4.53,10.81 7.32,13.6 2.79,2.79 8.02,4.18 15.68,4.18 h 177.78 c 14.64,0 21.96,-6.62 21.96,-19.86 V 526.043 c 0,-14.641 -6.97,-21.965 -20.91,-21.965 h -157.91 c -13.94,0 -20.92,7.324 -20.92,21.965 V 875.32 L 3286.22,574.145 c -2.09,-6.274 -4.53,-10.805 -7.32,-13.594 -2.79,-2.789 -8.01,-4.184 -15.69,-4.184 h -133.85 c -7.67,0 -12.73,1.567 -15.16,4.707 -2.44,3.137 -5.06,7.492 -7.84,13.071 l -312.68,722.615 c -3.49,7.67 -3.67,14.29 -0.53,19.87 3.14,5.57 8.89,8.36 17.26,8.36 h 177.77 c 12.55,0 21.27,-5.57 26.15,-16.73 z M 2791.58,1151.4 c 0,7.67 3.83,12.2 11.51,13.59 7.66,1.4 13.24,-1.74 16.73,-9.41 l 162.09,-375.424 c 3.48,-7.668 5.93,-14.293 7.32,-19.867 1.4,-5.578 2.09,-11.851 2.09,-18.824 V 523.949 c 0,-13.246 -6.97,-19.871 -20.91,-19.871 h -156.87 c -14.64,0 -21.96,6.625 -21.96,19.871 z m 1319.74,-337.779 181.96,493.589 c 2.09,6.28 4.53,10.81 7.32,13.6 2.79,2.79 8.01,4.18 15.68,4.18 h 177.78 c 14.64,0 21.96,-6.62 21.96,-19.86 V 526.043 c 0,-14.641 -6.97,-21.965 -20.91,-21.965 H 4337.2 c -13.95,0 -20.92,7.324 -20.92,21.965 V 875.32 L 4201.25,574.145 c -2.09,-6.274 -4.53,-10.805 -7.32,-13.594 -2.79,-2.789 -8.02,-4.184 -15.69,-4.184 h -133.85 c -7.67,0 -12.73,1.567 -15.16,4.707 -2.44,3.137 -5.06,7.492 -7.85,13.071 L 3708.7,1296.76 c -3.48,7.67 -3.66,14.29 -0.52,19.87 3.14,5.57 8.89,8.36 17.25,8.36 h 177.78 c 12.55,0 21.27,-5.57 26.15,-16.73 z M 3706.61,1151.4 c 0,7.67 3.84,12.2 11.51,13.59 7.67,1.4 13.24,-1.74 16.73,-9.41 l 162.09,-375.424 c 3.48,-7.668 5.92,-14.293 7.32,-19.867 1.39,-5.578 2.09,-11.851 2.09,-18.824 V 523.949 c 0,-13.246 -6.97,-19.871 -20.91,-19.871 h -156.87 c -14.64,0 -21.96,6.625 -21.96,19.871 V 1151.4"
         style="fill:#ffffff;fill-opacity:1;fill-rule:nonzero;stroke:none"
         id="path34" />
      <path
         d="m 1821.21,316.863 h -98.88 V 1512.21 h 98.88 V 316.863"
         style="fill:#f3b931;fill-opacity:1;fill-rule:nonzero;stroke:none"
         id="path36" />
      <path
         d="m 1821.21,316.863 h -98.88 V 1512.21 h 98.88 z"
         style="fill:none;stroke:#f3b931;stroke-width:21.2598;stroke-linecap:butt;stroke-linejoin:miter;stroke-miterlimit:22.9256;stroke-dasharray:none;stroke-opacity:1"
         id="path38" />
      <path
         d="m 2670.24,316.863 h -98.88 V 1512.21 h 98.88 V 316.863"
         style="fill:#f3b931;fill-opacity:1;fill-rule:nonzero;stroke:none"
         id="path40" />
      <path
         d="m 2670.24,316.863 h -98.88 V 1512.21 h 98.88 z"
         style="fill:none;stroke:#f3b931;stroke-width:21.2598;stroke-linecap:butt;stroke-linejoin:miter;stroke-miterlimit:22.9256;stroke-dasharray:none;stroke-opacity:1"
         id="path42" />
      <path
         d="m 1920.96,1398 263.67,117.16 h 21.75 l 263.87,-117.16 -11.12,-31.36 -263.67,94.2 -263.97,-94.2 -10.53,31.36"
         style="fill:#ffffff;fill-opacity:1;fill-rule:nonzero;stroke:none"
         id="path44" />
      <path
         d="m 1920.96,1398 263.67,117.16 h 21.75 l 263.87,-117.16 -11.12,-31.36 -263.67,94.2 -263.97,-94.2 z"
         style="fill:none;stroke:#ffffff;stroke-width:21.2598;stroke-linecap:butt;stroke-linejoin:miter;stroke-miterlimit:22.9256;stroke-dasharray:none;stroke-opacity:1"
         id="path46" />
      <path
         d="m 79.0352,100.555 c -2.8829,0 -4.3282,1.371 -4.3282,4.117 v 20.183 c 0,2.75 1.4453,4.125 4.3282,4.125 h 54.7928 c 2.61,0 3.91,-1.375 3.91,-4.125 V 96.2266 c 0,-11.2618 -1.578,-20.668 -4.734,-28.2188 -3.16,-7.5547 -7.59,-13.5937 -13.285,-18.125 -5.699,-4.5351 -12.465,-7.7265 -20.2932,-9.5781 -7.8242,-1.8555 -16.3399,-2.7813 -25.5391,-2.7813 -9.4765,0 -18.1289,0.961 -25.9531,2.8829 C 40.1055,42.3281 33.3438,45.625 27.6406,50.293 21.9453,54.9609 17.5508,61.1758 14.4609,68.9336 11.3711,76.6953 9.82422,86.4102 9.82422,98.082 v 46.551 c 0,11.672 1.54688,21.422 4.63668,29.25 3.0899,7.828 7.4844,14.074 13.1797,18.746 5.7032,4.668 12.4649,7.961 20.293,9.883 7.8242,1.926 16.4766,2.886 25.9531,2.886 9.4727,0 18.125,-0.996 25.9531,-2.988 7.8282,-1.988 14.5552,-5.148 20.1872,-9.472 5.629,-4.325 9.989,-9.958 13.078,-16.891 3.09,-6.938 4.633,-15.277 4.633,-25.027 v -0.415 c -0.136,-2.746 -1.508,-4.121 -4.117,-4.121 h -33.578 c -2.8828,0 -4.3242,1.446 -4.3242,4.329 v 1.648 c 0,2.473 -0.379,4.805 -1.1329,7 -0.7539,2.199 -1.9921,4.125 -3.707,5.769 -1.7148,1.649 -3.9492,2.989 -6.6953,4.016 -2.7461,1.031 -6.1797,1.547 -10.2969,1.547 -8.1015,0 -13.8359,-1.957 -17.1992,-5.871 -3.3672,-3.914 -5.0469,-10.129 -5.0469,-18.641 V 96.6367 c 0,-8.5117 1.6797,-14.7226 5.0469,-18.6406 3.3633,-3.9141 9.0977,-5.8672 17.1992,-5.8672 8.1016,0 13.7656,1.9531 16.9922,5.8672 3.2266,3.918 4.8399,10.1289 4.8399,18.6406 v 3.9183 z M 194.387,44.9375 c 0,-2.8828 -1.375,-4.3242 -4.121,-4.3242 h -32.957 c -2.746,0 -4.121,1.4414 -4.121,4.3242 V 148.957 c 0,2.609 1.375,3.914 4.121,3.914 h 32.754 c 2.882,0 4.324,-1.305 4.324,-3.914 v -5.562 c 6.039,5.359 12.117,8.617 18.226,9.785 6.114,1.168 12.325,1.754 18.645,1.754 2.883,0 4.324,-1.309 4.324,-3.914 v -30.899 c 0,-2.883 -1.375,-4.324 -4.121,-4.324 -3.844,0 -7.379,-0.137 -10.606,-0.414 -3.226,-0.274 -6.281,-0.824 -9.167,-1.649 -2.883,-0.82 -5.731,-1.957 -8.547,-3.398 -2.817,-1.441 -5.735,-3.398 -8.754,-5.871 z m 105.051,-7.4141 c -8.379,0 -16.102,0.9258 -23.176,2.7813 -7.071,1.8516 -13.149,4.7695 -18.227,8.75 -5.086,3.9844 -9.062,9.168 -11.949,15.5547 -2.883,6.3828 -4.328,14.1094 -4.328,23.1719 v 17.9177 c 0,9.067 1.445,16.793 4.328,23.176 2.887,6.387 6.863,11.57 11.949,15.551 5.078,3.984 11.156,6.902 18.227,8.754 7.074,1.855 14.797,2.781 23.176,2.781 8.375,0 16.132,-0.926 23.273,-2.781 7.141,-1.852 13.254,-4.77 18.332,-8.754 5.082,-3.981 9.066,-9.164 11.949,-15.551 2.883,-6.383 4.324,-14.109 4.324,-23.176 V 87.7813 c 0,-9.0625 -1.441,-16.7891 -4.324,-23.1719 -2.883,-6.3867 -6.867,-11.5703 -11.949,-15.5547 -5.078,-3.9805 -11.191,-6.8984 -18.332,-8.75 -7.141,-1.8555 -14.898,-2.7813 -23.273,-2.7813 z m 0,33.3672 c 3.292,0 6.074,0.5508 8.339,1.6485 2.266,1.0976 4.086,2.5039 5.457,4.2226 1.375,1.7149 2.371,3.6758 2.989,5.8711 0.617,2.1953 0.925,4.3945 0.925,6.5899 v 15.0393 c 0,2.195 -0.308,4.359 -0.925,6.488 -0.618,2.129 -1.614,4.086 -2.989,5.871 -1.371,1.785 -3.191,3.227 -5.457,4.324 -2.265,1.098 -5.047,1.649 -8.339,1.649 -3.297,0 -6.079,-0.551 -8.344,-1.649 -2.27,-1.097 -4.086,-2.539 -5.461,-4.324 -1.371,-1.785 -2.332,-3.742 -2.883,-5.871 -0.547,-2.129 -0.824,-4.293 -0.824,-6.488 V 89.2227 c 0,-2.1954 0.277,-4.3946 0.824,-6.5899 0.551,-2.1953 1.512,-4.1562 2.883,-5.8711 1.375,-1.7187 3.191,-3.125 5.461,-4.2226 2.265,-1.0977 5.047,-1.6485 8.344,-1.6485 z m 188.679,16.8907 c 0,-9.0625 -1.41,-16.7891 -4.226,-23.1719 -2.813,-6.3867 -6.727,-11.5703 -11.739,-15.5547 -5.011,-3.9805 -11.054,-6.8984 -18.129,-8.75 -7.07,-1.8555 -14.793,-2.7813 -23.171,-2.7813 -8.379,0 -16.067,0.9258 -23.071,2.7813 -7.004,1.8516 -13.011,4.7695 -18.023,8.75 -5.012,3.9844 -8.926,9.168 -11.738,15.5547 -2.817,6.3828 -4.227,14.1094 -4.227,23.1719 v 60.9727 c 0,2.746 1.375,4.117 4.121,4.117 h 32.75 c 2.887,0 4.328,-1.371 4.328,-4.117 V 89.2227 c 0,-2.1954 0.274,-4.3946 0.824,-6.5899 0.551,-2.1953 1.438,-4.1562 2.676,-5.8711 1.235,-1.7187 2.852,-3.125 4.84,-4.2226 1.992,-1.0977 4.5,-1.6485 7.52,-1.6485 3.019,0 5.558,0.5508 7.621,1.6485 2.062,1.0976 3.707,2.5039 4.945,4.2226 1.234,1.7149 2.129,3.6758 2.676,5.8711 0.551,2.1953 0.824,4.3945 0.824,6.5899 v 59.5313 c 0,2.746 1.375,4.117 4.121,4.117 h 32.75 c 2.883,0 4.328,-1.371 4.328,-4.117 z M 547.234,5.80078 c 0,-2.88281 -1.375,-4.32812 -4.121,-4.32812 h -32.34 c -2.746,0 -4.117,1.44531 -4.117,4.32812 V 148.957 c 0,2.609 1.371,3.914 4.117,3.914 h 32.133 c 2.887,0 4.328,-1.305 4.328,-3.914 v -3.09 c 2.883,2.746 6.489,4.774 10.813,6.078 4.324,1.305 8.551,1.957 12.668,1.957 7.277,0 14.004,-1.168 20.183,-3.504 6.18,-2.332 11.54,-5.8 16.071,-10.402 4.531,-4.598 8.101,-10.332 10.711,-17.195 2.605,-6.867 3.914,-14.766 3.914,-23.6916 v -4.1172 c 0,-9.2031 -1.442,-17.2031 -4.324,-24 C 614.383,64.1953 610.297,58.5313 605.012,54 c -5.289,-4.5312 -11.707,-7.8945 -19.258,-10.0898 -7.555,-2.1993 -16,-3.2969 -25.336,-3.2969 H 547.234 Z M 561.652,120.121 c -2.195,0 -4.632,-0.445 -7.312,-1.34 -2.68,-0.89 -5.047,-2.301 -7.106,-4.222 V 74.5977 h 13.184 c 6.59,0 11.707,1.8203 15.344,5.4609 3.636,3.6367 5.457,9.5078 5.457,17.6094 0,7.828 -1.614,13.527 -4.84,17.098 -3.227,3.57 -8.137,5.355 -14.727,5.355 z M 741.063,37.5234 c -8.375,0 -16.102,0.9258 -23.172,2.7813 -7.075,1.8516 -13.153,4.7695 -18.231,8.75 -5.082,3.9844 -9.062,9.168 -11.949,15.5547 -2.883,6.3828 -4.324,14.1094 -4.324,23.1719 v 17.9177 c 0,9.067 1.441,16.793 4.324,23.176 2.887,6.387 6.867,11.57 11.949,15.551 5.078,3.984 11.156,6.902 18.231,8.754 7.07,1.855 14.797,2.781 23.172,2.781 8.375,0 16.136,-0.926 23.277,-2.781 7.137,-1.852 13.25,-4.77 18.328,-8.754 5.086,-3.981 9.066,-9.164 11.949,-15.551 2.883,-6.383 4.328,-14.109 4.328,-23.176 V 87.7813 c 0,-9.0625 -1.445,-16.7891 -4.328,-23.1719 -2.883,-6.3867 -6.863,-11.5703 -11.949,-15.5547 -5.078,-3.9805 -11.191,-6.8984 -18.328,-8.75 -7.141,-1.8555 -14.902,-2.7813 -23.277,-2.7813 z m 0,33.3672 c 3.292,0 6.074,0.5508 8.343,1.6485 2.266,1.0976 4.082,2.5039 5.457,4.2226 1.375,1.7149 2.367,3.6758 2.985,5.8711 0.621,2.1953 0.929,4.3945 0.929,6.5899 v 15.0393 c 0,2.195 -0.308,4.359 -0.929,6.488 -0.618,2.129 -1.61,4.086 -2.985,5.871 -1.375,1.785 -3.191,3.227 -5.457,4.324 -2.269,1.098 -5.051,1.649 -8.343,1.649 -3.297,0 -6.079,-0.551 -8.344,-1.649 -2.266,-1.097 -4.082,-2.539 -5.457,-4.324 -1.371,-1.785 -2.332,-3.742 -2.883,-5.871 -0.551,-2.129 -0.824,-4.293 -0.824,-6.488 V 89.2227 c 0,-2.1954 0.273,-4.3946 0.824,-6.5899 0.551,-2.1953 1.512,-4.1562 2.883,-5.8711 1.375,-1.7187 3.191,-3.125 5.457,-4.2226 2.265,-1.0977 5.047,-1.6485 8.344,-1.6485 z m 80.746,81.9804 c 0.273,9.063 1.371,16.961 3.293,23.692 1.921,6.726 4.875,12.32 8.859,16.785 3.98,4.461 9.129,7.757 15.449,9.886 6.313,2.129 13.938,3.192 22.863,3.192 h 9.887 c 2.883,0 4.324,-1.371 4.324,-4.117 v -28.016 c 0,-1.512 -0.414,-2.605 -1.234,-3.293 -0.824,-0.687 -1.855,-1.031 -3.09,-1.031 h -9.887 c -1.648,0 -3.023,-0.203 -4.121,-0.617 -1.097,-0.414 -2.023,-1.239 -2.781,-2.473 -0.754,-1.238 -1.34,-2.984 -1.75,-5.254 -0.414,-2.266 -0.617,-5.18 -0.617,-8.754 h 19.156 c 2.883,0 4.324,-1.371 4.324,-4.117 v -27.399 c 0,-2.882 -1.441,-4.324 -4.324,-4.324 H 863.004 V 44.5273 c 0,-2.6132 -1.375,-3.914 -4.121,-3.914 h -32.75 c -2.887,0 -4.324,1.3008 -4.324,3.914 v 72.5037 h -8.243 c -2.882,0 -4.324,1.442 -4.324,4.324 v 27.399 c 0,2.746 1.442,4.117 4.324,4.117 z m 207.421,-51.289 35.84,97.223 c 0.41,1.234 0.89,2.129 1.44,2.679 0.55,0.551 1.58,0.825 3.09,0.825 h 35.02 c 2.88,0 4.32,-1.305 4.32,-3.914 V 44.9375 c 0,-2.8828 -1.37,-4.3242 -4.12,-4.3242 h -31.1 c -2.74,0 -4.12,1.4414 -4.12,4.3242 v 68.7965 l -22.65,-59.3199 c -0.42,-1.2383 -0.9,-2.1289 -1.45,-2.6797 -0.55,-0.5508 -1.58,-0.8242 -3.09,-0.8242 h -26.36 c -1.51,0 -2.51,0.3086 -2.99,0.9257 -0.48,0.6172 -1,1.4766 -1.55,2.5782 L 949.926,196.746 c -0.688,1.512 -0.723,2.817 -0.102,3.914 0.617,1.098 1.75,1.649 3.399,1.649 h 35.015 c 2.473,0 4.188,-1.102 5.153,-3.297 z m -79.714,66.531 c 0,1.512 0.754,2.407 2.261,2.68 1.512,0.273 2.614,-0.344 3.297,-1.855 l 31.93,-73.9458 c 0.684,-1.5117 1.168,-2.8164 1.441,-3.9141 0.274,-1.0976 0.41,-2.3359 0.41,-3.707 V 44.5273 c 0,-2.6132 -1.371,-3.914 -4.117,-3.914 H 953.84 c -2.883,0 -4.324,1.3008 -4.324,3.914 z M 1184.13,37.5234 c -8.38,0 -16.1,0.9258 -23.17,2.7813 -7.08,1.8516 -13.16,4.7695 -18.23,8.75 -5.09,3.9844 -9.07,9.168 -11.95,15.5547 -2.89,6.3828 -4.33,14.1094 -4.33,23.1719 v 17.9177 c 0,9.067 1.44,16.793 4.33,23.176 2.88,6.387 6.86,11.57 11.95,15.551 5.07,3.984 11.15,6.902 18.23,8.754 7.07,1.855 14.79,2.781 23.17,2.781 8.37,0 16.14,-0.926 23.28,-2.781 7.14,-1.852 13.25,-4.77 18.32,-8.754 5.09,-3.981 9.07,-9.164 11.95,-15.551 2.89,-6.383 4.33,-14.109 4.33,-23.176 V 87.7813 c 0,-9.0625 -1.44,-16.7891 -4.33,-23.1719 -2.88,-6.3867 -6.86,-11.5703 -11.95,-15.5547 -5.07,-3.9805 -11.18,-6.8984 -18.32,-8.75 -7.14,-1.8555 -14.91,-2.7813 -23.28,-2.7813 z m 0,33.3672 c 3.29,0 6.07,0.5508 8.34,1.6485 2.27,1.0976 4.08,2.5039 5.46,4.2226 1.37,1.7149 2.37,3.6758 2.98,5.8711 0.63,2.1953 0.93,4.3945 0.93,6.5899 v 15.0393 c 0,2.195 -0.3,4.359 -0.93,6.488 -0.61,2.129 -1.61,4.086 -2.98,5.871 -1.38,1.785 -3.19,3.227 -5.46,4.324 -2.27,1.098 -5.05,1.649 -8.34,1.649 -3.3,0 -6.08,-0.551 -8.34,-1.649 -2.27,-1.097 -4.09,-2.539 -5.46,-4.324 -1.37,-1.785 -2.33,-3.742 -2.88,-5.871 -0.56,-2.129 -0.83,-4.293 -0.83,-6.488 V 89.2227 c 0,-2.1954 0.27,-4.3946 0.83,-6.5899 0.55,-2.1953 1.51,-4.1562 2.88,-5.8711 1.37,-1.7187 3.19,-3.125 5.46,-4.2226 2.26,-1.0977 5.04,-1.6485 8.34,-1.6485 z m 115.55,-25.9531 c 0,-2.8828 -1.37,-4.3242 -4.11,-4.3242 h -32.96 c -2.75,0 -4.12,1.4414 -4.12,4.3242 V 202.512 c 0,2.613 1.37,3.914 4.12,3.914 h 32.75 c 2.88,0 4.32,-1.301 4.32,-3.914 z m 56.24,43.2578 v -3.0898 c 0,-5.2188 1.51,-9.4102 4.53,-12.5664 3.02,-3.1602 7.83,-4.7383 14.42,-4.7383 4.81,0 8.58,0.6172 11.33,1.8555 2.75,1.2343 4.32,3.4335 4.73,6.5898 0.28,1.375 0.69,2.4023 1.24,3.0898 0.55,0.6875 1.58,1.0313 3.09,1.0313 h 30.28 c 2.75,0 4.12,-1.375 4.12,-4.1211 v -2.8828 c 0,-5.3555 -1.34,-10.2305 -4.02,-14.625 -2.68,-4.3945 -6.45,-8.1719 -11.33,-11.3281 -4.87,-3.1602 -10.74,-5.5977 -17.61,-7.3125 -6.86,-1.7149 -14.49,-2.5743 -22.86,-2.5743 -7.97,0 -15.45,0.9258 -22.46,2.7813 -7,1.8516 -13.11,4.7695 -18.33,8.75 -5.21,3.9844 -9.34,9.168 -12.35,15.5547 -3.03,6.3828 -4.54,14.1094 -4.54,23.1719 v 17.9177 c 0,9.067 1.48,16.793 4.43,23.176 2.95,6.387 7.07,11.57 12.36,15.551 5.29,3.984 11.5,6.902 18.64,8.754 7.14,1.855 14.97,2.781 23.48,2.781 8.38,0 16.04,-0.961 22.97,-2.883 6.93,-1.922 12.91,-4.703 17.92,-8.34 5.01,-3.64 8.89,-8.07 11.64,-13.289 2.74,-5.219 4.12,-11.054 4.12,-17.508 V 92.5195 c 0,-2.8828 -1.44,-4.3242 -4.33,-4.3242 z m 18.95,38.5157 c -5.49,0 -9.99,-1.508 -13.49,-4.531 -3.5,-3.02 -5.33,-7.141 -5.46,-12.356 H 1393 c -0.14,5.215 -1.79,9.336 -4.95,12.356 -3.16,3.023 -7.55,4.531 -13.18,4.531 z m 113.08,-39.5469 c 0,-4.3946 1.34,-8.2071 4.01,-11.4297 2.68,-3.2305 7.04,-4.8438 13.09,-4.8438 5.76,0 9.85,1.0625 12.25,3.1914 2.41,2.1289 3.61,4.9102 3.61,8.3438 0,2.7461 1.44,4.1211 4.32,4.1211 h 32.34 c 2.75,0 4.12,-1.375 4.12,-4.1211 V 79.543 c 0,-7.0039 -1.37,-13.1485 -4.12,-18.4375 -2.74,-5.2852 -6.62,-9.6797 -11.64,-13.1797 -5.01,-3.5039 -10.98,-6.1133 -17.91,-7.8281 -6.94,-1.7149 -14.59,-2.5743 -22.97,-2.5743 -8.52,0 -16.34,0.9258 -23.48,2.7813 -7.14,1.8516 -13.36,4.7695 -18.64,8.75 -5.29,3.9844 -9.41,9.168 -12.36,15.5547 -2.96,6.3828 -4.43,14.1094 -4.43,23.1719 v 17.9177 c 0,9.067 1.47,16.793 4.43,23.176 2.95,6.387 7.07,11.57 12.36,15.551 5.28,3.984 11.5,6.902 18.64,8.754 7.14,1.855 14.96,2.781 23.48,2.781 8.38,0 16.03,-0.961 22.97,-2.883 6.93,-1.922 12.9,-4.633 17.91,-8.137 5.02,-3.5 8.9,-7.726 11.64,-12.668 2.75,-4.945 4.12,-10.367 4.12,-16.269 v -2.887 c 0,-2.746 -1.37,-4.121 -4.12,-4.121 h -32.34 c -2.88,0 -4.32,1.375 -4.32,4.121 0,2.336 -1.17,4.496 -3.5,6.488 -2.34,1.993 -6.39,2.989 -12.16,2.989 -6.04,0 -10.43,-1.614 -13.18,-4.844 -2.75,-3.227 -4.12,-7.035 -4.12,-11.43 z m 204.54,0.6172 c 0,-9.0625 -1.41,-16.7891 -4.22,-23.1719 -2.82,-6.3867 -6.73,-11.5703 -11.74,-15.5547 -5.01,-3.9805 -11.06,-6.8984 -18.13,-8.75 -7.07,-1.8555 -14.79,-2.7813 -23.17,-2.7813 -8.38,0 -16.07,0.9258 -23.07,2.7813 -7.01,1.8516 -13.01,4.7695 -18.02,8.75 -5.02,3.9844 -8.93,9.168 -11.75,15.5547 -2.81,6.3828 -4.22,14.1094 -4.22,23.1719 v 60.9727 c 0,2.746 1.37,4.117 4.12,4.117 h 32.75 c 2.89,0 4.33,-1.371 4.33,-4.117 V 89.2227 c 0,-2.1954 0.27,-4.3946 0.82,-6.5899 0.55,-2.1953 1.44,-4.1562 2.68,-5.8711 1.23,-1.7187 2.85,-3.125 4.84,-4.2226 1.99,-1.0977 4.5,-1.6485 7.52,-1.6485 3.02,0 5.56,0.5508 7.62,1.6485 2.06,1.0976 3.7,2.5039 4.94,4.2226 1.24,1.7149 2.13,3.6758 2.68,5.8711 0.55,2.1953 0.82,4.3945 0.82,6.5899 v 59.5313 c 0,2.746 1.38,4.117 4.12,4.117 h 32.76 c 2.88,0 4.32,-1.371 4.32,-4.117 z m 59.74,-42.8438 c 0,-2.8828 -1.37,-4.3242 -4.12,-4.3242 h -32.96 c -2.75,0 -4.12,1.4414 -4.12,4.3242 V 202.512 c 0,2.613 1.37,3.914 4.12,3.914 h 32.75 c 2.89,0 4.33,-1.301 4.33,-3.914 z m 129.97,-0.207 c 0,-2.7461 -1.37,-4.1172 -4.12,-4.1172 h -32.75 c -2.88,0 -4.33,1.3711 -4.33,4.1172 v 71.8905 c -1.78,1.234 -3.64,2.129 -5.56,2.676 -1.92,0.551 -3.77,0.824 -5.56,0.824 -6.59,0 -11.7,-1.785 -15.34,-5.355 -3.64,-3.571 -5.46,-9.27 -5.46,-17.098 0,-8.1016 1.82,-13.9727 5.46,-17.6094 3.64,-3.6406 8.75,-5.4609 15.34,-5.4609 h 0.83 c 2.74,0 4.11,-1.4414 4.11,-4.3243 V 44.7305 c 0,-2.7461 -1.37,-4.1172 -4.11,-4.1172 h -0.83 c -9.34,0 -17.78,1.0976 -25.33,3.2969 -7.56,2.1953 -13.98,5.5586 -19.26,10.0898 -5.29,4.5313 -9.38,10.1953 -12.26,16.9922 -2.88,6.7969 -4.33,14.7969 -4.33,24 v 4.1172 c 0,8.9256 1.31,16.8246 3.92,23.6916 2.61,6.863 6.18,12.597 10.71,17.195 4.53,4.602 9.92,8.07 16.17,10.402 6.25,2.336 13.01,3.504 20.29,3.504 3.57,0 7.24,-0.515 11.02,-1.547 3.77,-1.027 7.17,-2.64 10.19,-4.835 v 1.234 c 0,2.746 1.45,4.117 4.33,4.117 h 32.75 c 2.75,0 4.12,-1.371 4.12,-4.117 z m 57.68,0.207 c 0,-2.8828 -1.38,-4.3242 -4.13,-4.3242 h -32.95 c -2.75,0 -4.12,1.4414 -4.12,4.3242 V 148.957 c 0,2.609 1.37,3.914 4.12,3.914 h 32.75 c 2.88,0 4.33,-1.305 4.33,-3.914 v -5.562 c 6.04,5.359 12.12,8.617 18.23,9.785 6.1,1.168 12.32,1.754 18.64,1.754 2.88,0 4.32,-1.309 4.32,-3.914 v -30.899 c 0,-2.883 -1.37,-4.324 -4.12,-4.324 -3.84,0 -7.38,-0.137 -10.61,-0.414 -3.22,-0.274 -6.28,-0.824 -9.16,-1.649 -2.89,-0.82 -5.73,-1.957 -8.55,-3.398 -2.81,-1.441 -5.74,-3.398 -8.75,-5.871 z m 104.22,-4.3242 c -2.88,0 -4.32,1.3711 -4.32,4.1172 V 156.168 c 0,2.746 1.37,4.121 4.12,4.121 h 34.81 c 2.88,0 4.32,-1.375 4.32,-4.121 v -17.715 h 44.49 c 2.61,0 3.92,-1.371 3.92,-4.121 v -24.098 c 0,-2.882 -1.31,-4.328 -3.92,-4.328 h -44.49 V 76.4531 h 53.76 c 2.61,0 3.92,-1.375 3.92,-4.1172 V 44.9375 c 0,-2.8828 -1.31,-4.3242 -3.92,-4.3242 z m -4.32,125.8557 c -2.89,0 -4.33,1.371 -4.33,4.117 v 27.605 c 0,2.743 1.44,4.118 4.33,4.118 h 95.57 c 2.75,0 4.12,-1.375 4.12,-4.118 v -27.398 c 0,-2.883 -1.37,-4.324 -4.12,-4.324 z M 2199.41,44.9375 c 0,-2.8828 -1.37,-4.3242 -4.12,-4.3242 h -32.95 c -2.75,0 -4.13,1.4414 -4.13,4.3242 V 202.512 c 0,2.613 1.38,3.914 4.13,3.914 h 32.75 c 2.88,0 4.32,-1.301 4.32,-3.914 z m 56.23,43.2578 v -3.0898 c 0,-5.2188 1.52,-9.4102 4.54,-12.5664 3.02,-3.1602 7.82,-4.7383 14.41,-4.7383 4.81,0 8.59,0.6172 11.34,1.8555 2.74,1.2343 4.32,3.4335 4.73,6.5898 0.28,1.375 0.69,2.4023 1.24,3.0898 0.55,0.6875 1.58,1.0313 3.09,1.0313 h 30.28 c 2.74,0 4.12,-1.375 4.12,-4.1211 v -2.8828 c 0,-5.3555 -1.34,-10.2305 -4.02,-14.625 -2.68,-4.3945 -6.46,-8.1719 -11.33,-11.3281 -4.87,-3.1602 -10.74,-5.5977 -17.61,-7.3125 -6.86,-1.7149 -14.49,-2.5743 -22.86,-2.5743 -7.97,0 -15.45,0.9258 -22.46,2.7813 -7,1.8516 -13.11,4.7695 -18.33,8.75 -5.22,3.9844 -9.33,9.168 -12.36,15.5547 -3.02,6.3828 -4.53,14.1094 -4.53,23.1719 v 17.9177 c 0,9.067 1.48,16.793 4.43,23.176 2.95,6.387 7.07,11.57 12.36,15.551 5.28,3.984 11.5,6.902 18.64,8.754 7.14,1.855 14.97,2.781 23.48,2.781 8.38,0 16.04,-0.961 22.97,-2.883 6.93,-1.922 12.91,-4.703 17.92,-8.34 5.01,-3.64 8.89,-8.07 11.64,-13.289 2.74,-5.219 4.12,-11.054 4.12,-17.508 V 92.5195 c 0,-2.8828 -1.45,-4.3242 -4.33,-4.3242 z m 18.95,38.5157 c -5.49,0 -9.98,-1.508 -13.49,-4.531 -3.5,-3.02 -5.32,-7.141 -5.46,-12.356 h 37.08 c -0.14,5.215 -1.78,9.336 -4.94,12.356 -3.16,3.023 -7.56,4.531 -13.19,4.531 z m 113.09,-39.5469 c 0,-4.3946 1.34,-8.2071 4.02,-11.4297 2.67,-3.2305 7.03,-4.8438 13.08,-4.8438 5.76,0 9.85,1.0625 12.25,3.1914 2.4,2.1289 3.61,4.9102 3.61,8.3438 0,2.7461 1.44,4.1211 4.32,4.1211 h 32.34 c 2.75,0 4.12,-1.375 4.12,-4.1211 V 79.543 c 0,-7.0039 -1.37,-13.1485 -4.12,-18.4375 -2.75,-5.2852 -6.62,-9.6797 -11.64,-13.1797 -5.01,-3.5039 -10.98,-6.1133 -17.92,-7.8281 -6.93,-1.7149 -14.59,-2.5743 -22.96,-2.5743 -8.52,0 -16.35,0.9258 -23.49,2.7813 -7.14,1.8516 -13.35,4.7695 -18.64,8.75 -5.29,3.9844 -9.4,9.168 -12.36,15.5547 -2.95,6.3828 -4.43,14.1094 -4.43,23.1719 v 17.9177 c 0,9.067 1.48,16.793 4.43,23.176 2.96,6.387 7.07,11.57 12.36,15.551 5.29,3.984 11.5,6.902 18.64,8.754 7.14,1.855 14.97,2.781 23.49,2.781 8.37,0 16.03,-0.961 22.96,-2.883 6.94,-1.922 12.91,-4.633 17.92,-8.137 5.02,-3.5 8.89,-7.726 11.64,-12.668 2.75,-4.945 4.12,-10.367 4.12,-16.269 v -2.887 c 0,-2.746 -1.37,-4.121 -4.12,-4.121 h -32.34 c -2.88,0 -4.32,1.375 -4.32,4.121 0,2.336 -1.17,4.496 -3.5,6.488 -2.34,1.993 -6.39,2.989 -12.16,2.989 -6.04,0 -10.43,-1.614 -13.18,-4.844 -2.75,-3.227 -4.12,-7.035 -4.12,-11.43 z m 99.49,65.7069 v 23.895 c 0,2.609 1.44,3.914 4.32,3.914 h 32.76 c 2.74,0 4.11,-1.305 4.11,-3.914 v -23.895 h 22.46 c 2.88,0 4.32,-1.371 4.32,-4.117 v -27.399 c 0,-2.882 -1.44,-4.324 -4.32,-4.324 h -22.46 V 84.0742 c 0,-3.9804 0.76,-6.6601 2.27,-8.0312 1.51,-1.375 3.85,-2.0625 7,-2.0625 h 13.6 c 1.1,0 2.06,-0.3438 2.88,-1.0274 0.82,-0.6914 1.24,-1.7851 1.24,-3.2968 V 41.6406 c 0,-2.7461 -1.37,-4.1172 -4.12,-4.1172 h -13.6 c -9.33,0 -17.2,0.8907 -23.58,2.6758 -6.39,1.7852 -11.57,4.6367 -15.55,8.5469 -3.98,3.9141 -6.87,9.0312 -8.65,15.3477 -1.79,6.3164 -2.68,14.0078 -2.68,23.0703 v 29.8669 h -11.13 c -2.88,0 -4.32,1.442 -4.32,4.324 v 27.399 c 0,2.746 1.44,4.117 4.32,4.117 z M 2606.84,44.9375 c 0,-2.8828 -1.37,-4.3242 -4.12,-4.3242 h -32.95 c -2.75,0 -4.13,1.4414 -4.13,4.3242 V 148.957 c 0,2.609 1.38,3.914 4.13,3.914 h 32.75 c 2.88,0 4.32,-1.305 4.32,-3.914 v -5.562 c 6.04,5.359 12.12,8.617 18.23,9.785 6.11,1.168 12.32,1.754 18.64,1.754 2.89,0 4.33,-1.309 4.33,-3.914 v -30.899 c 0,-2.883 -1.38,-4.324 -4.12,-4.324 -3.85,0 -7.38,-0.137 -10.61,-0.414 -3.22,-0.274 -6.28,-0.824 -9.17,-1.649 -2.88,-0.82 -5.73,-1.957 -8.54,-3.398 -2.82,-1.441 -5.74,-3.398 -8.76,-5.871 z m 105.05,-7.4141 c -8.37,0 -16.1,0.9258 -23.17,2.7813 -7.07,1.8516 -13.15,4.7695 -18.23,8.75 -5.08,3.9844 -9.06,9.168 -11.95,15.5547 -2.88,6.3828 -4.33,14.1094 -4.33,23.1719 v 17.9177 c 0,9.067 1.45,16.793 4.33,23.176 2.89,6.387 6.87,11.57 11.95,15.551 5.08,3.984 11.16,6.902 18.23,8.754 7.07,1.855 14.8,2.781 23.17,2.781 8.38,0 16.14,-0.926 23.28,-2.781 7.14,-1.852 13.25,-4.77 18.33,-8.754 5.08,-3.981 9.07,-9.164 11.95,-15.551 2.88,-6.383 4.32,-14.109 4.32,-23.176 V 87.7813 c 0,-9.0625 -1.44,-16.7891 -4.32,-23.1719 -2.88,-6.3867 -6.87,-11.5703 -11.95,-15.5547 -5.08,-3.9805 -11.19,-6.8984 -18.33,-8.75 -7.14,-1.8555 -14.9,-2.7813 -23.28,-2.7813 z m 0,33.3672 c 3.3,0 6.08,0.5508 8.34,1.6485 2.27,1.0976 4.09,2.5039 5.46,4.2226 1.38,1.7149 2.37,3.6758 2.99,5.8711 0.62,2.1953 0.93,4.3945 0.93,6.5899 v 15.0393 c 0,2.195 -0.31,4.359 -0.93,6.488 -0.62,2.129 -1.61,4.086 -2.99,5.871 -1.37,1.785 -3.19,3.227 -5.46,4.324 -2.26,1.098 -5.04,1.649 -8.34,1.649 -3.29,0 -6.07,-0.551 -8.34,-1.649 -2.27,-1.097 -4.09,-2.539 -5.46,-4.324 -1.37,-1.785 -2.33,-3.742 -2.88,-5.871 -0.55,-2.129 -0.83,-4.293 -0.83,-6.488 V 89.2227 c 0,-2.1954 0.28,-4.3946 0.83,-6.5899 0.55,-2.1953 1.51,-4.1562 2.88,-5.8711 1.37,-1.7187 3.19,-3.125 5.46,-4.2226 2.27,-1.0977 5.05,-1.6485 8.34,-1.6485 z m 114.94,-25.9531 c 0,-2.8828 -1.37,-4.3242 -4.12,-4.3242 h -32.34 c -2.74,0 -4.12,1.4414 -4.12,4.3242 V 148.957 c 0,2.609 1.38,3.914 4.12,3.914 h 32.34 c 2.75,0 4.12,-1.305 4.12,-3.914 v -2.473 c 3.16,2.336 7.04,4.157 11.64,5.461 4.6,1.305 9.16,1.957 13.69,1.957 14.97,0 26.61,-4.636 34.92,-13.906 8.31,-9.269 12.46,-22.898 12.46,-40.8866 V 44.9375 c 0,-2.8828 -1.37,-4.3242 -4.12,-4.3242 h -32.13 c -2.75,0 -4.12,1.4414 -4.12,4.3242 V 97.668 c 0,7.828 -1.54,13.527 -4.63,17.098 -3.09,3.57 -7.93,5.355 -14.53,5.355 -1.92,0 -4.12,-0.344 -6.59,-1.031 -2.47,-0.684 -4.67,-1.852 -6.59,-3.5 z m 132.44,0 c 0,-2.8828 -1.37,-4.3242 -4.11,-4.3242 h -32.96 c -2.75,0 -4.12,1.4414 -4.12,4.3242 V 148.957 c 0,2.609 1.37,3.914 4.12,3.914 h 32.75 c 2.89,0 4.32,-1.305 4.32,-3.914 z M 2922.41,168.32 c -2.89,0 -4.33,1.371 -4.33,4.121 v 29.661 c 0,2.882 1.44,4.324 4.33,4.324 h 32.54 c 2.89,0 4.32,-1.442 4.32,-4.324 v -29.661 c 0,-2.75 -1.43,-4.121 -4.32,-4.121 h -32.54"
         style="fill:#ffffff;fill-opacity:1;fill-rule:nonzero;stroke:none"
         id="path48" />
      <path
         d="m 3017.57,87.1641 c 0,-4.3946 1.34,-8.2071 4.01,-11.4297 2.68,-3.2305 7.04,-4.8438 13.08,-4.8438 5.77,0 9.86,1.0625 12.26,3.1914 2.4,2.1289 3.6,4.9102 3.6,8.3438 0,2.7461 1.45,4.1211 4.33,4.1211 h 32.34 c 2.74,0 4.12,-1.375 4.12,-4.1211 V 79.543 c 0,-7.0039 -1.38,-13.1485 -4.12,-18.4375 -2.74,-5.2852 -6.63,-9.6797 -11.64,-13.1797 -5.01,-3.5039 -10.98,-6.1133 -17.92,-7.8281 -6.93,-1.7149 -14.59,-2.5743 -22.97,-2.5743 -8.51,0 -16.34,0.9258 -23.48,2.7813 -7.14,1.8516 -13.35,4.7695 -18.64,8.75 -5.29,3.9844 -9.41,9.168 -12.36,15.5547 -2.95,6.3828 -4.43,14.1094 -4.43,23.1719 v 17.9177 c 0,9.067 1.48,16.793 4.43,23.176 2.95,6.387 7.07,11.57 12.36,15.551 5.29,3.984 11.5,6.902 18.64,8.754 7.14,1.855 14.97,2.781 23.48,2.781 8.38,0 16.04,-0.961 22.97,-2.883 6.94,-1.922 12.91,-4.633 17.92,-8.137 5.01,-3.5 8.9,-7.726 11.64,-12.668 2.74,-4.945 4.12,-10.367 4.12,-16.269 v -2.887 c 0,-2.746 -1.38,-4.121 -4.12,-4.121 h -32.34 c -2.88,0 -4.33,1.375 -4.33,4.121 0,2.336 -1.16,4.496 -3.5,6.488 -2.33,1.993 -6.38,2.989 -12.15,2.989 -6.04,0 -10.44,-1.614 -13.18,-4.844 -2.75,-3.227 -4.12,-7.035 -4.12,-11.43 z M 3204.8,106.32 c -6.72,2.469 -13.04,5.012 -18.94,7.621 -5.91,2.61 -11.02,5.664 -15.35,9.168 -4.33,3.5 -7.76,7.723 -10.3,12.668 -2.54,4.942 -3.81,11.051 -3.81,18.332 0,9.063 1.44,16.821 4.33,23.274 2.88,6.453 6.86,11.742 11.94,15.863 5.08,4.117 11.16,7.176 18.23,9.164 7.07,1.992 14.87,2.988 23.38,2.988 8.38,0 16.1,-1.031 23.17,-3.089 7.08,-2.063 13.15,-5.082 18.23,-9.063 5.08,-3.984 9.07,-8.824 11.95,-14.523 2.88,-5.7 4.33,-12.188 4.33,-19.465 v -0.824 c -0.14,-2.746 -1.51,-4.118 -4.12,-4.118 h -33.58 c -2.74,0 -4.12,1.438 -4.12,4.325 v 1.027 c 0,3.16 -1.27,5.805 -3.81,7.934 -2.54,2.125 -6.28,3.191 -11.22,3.191 -9.89,0 -14.84,-4.875 -14.84,-14.625 0,-4.395 2.06,-7.828 6.18,-10.301 4.12,-2.472 10.71,-5.285 19.78,-8.445 7.55,-2.606 14.28,-5.352 20.18,-8.238 5.91,-2.883 10.89,-6.145 14.94,-9.782 4.05,-3.64 7.14,-7.863 9.27,-12.668 2.13,-4.808 3.19,-10.4371 3.19,-16.8942 0,-9.0625 -1.54,-16.8554 -4.63,-23.375 -3.09,-6.5234 -7.32,-11.9492 -12.67,-16.2734 -5.36,-4.3281 -11.71,-7.5195 -19.06,-9.5781 -7.34,-2.0625 -15.27,-3.0899 -23.79,-3.0899 -8.37,0 -16.17,1.0274 -23.37,3.0899 -7.22,2.0586 -13.5,5.0781 -18.85,9.0625 -5.36,3.9805 -9.58,8.8242 -12.67,14.5195 -3.09,5.6992 -4.64,12.1914 -4.64,19.4649 v 0.8242 c 0.14,2.75 1.51,4.1211 4.12,4.1211 h 33.58 c 2.74,0 4.12,-1.4414 4.12,-4.3242 V 83.043 c 0,-3.4336 1.48,-6.1094 4.43,-8.0313 2.95,-1.9219 7.31,-2.8828 13.07,-2.8828 5.91,0 10.13,1.3359 12.67,4.0156 2.54,2.6797 3.81,6.4219 3.81,11.2266 0,2.8828 -0.82,5.3203 -2.47,7.3125 -1.65,1.9883 -3.7,3.707 -6.17,5.1484 -2.48,1.441 -5.19,2.645 -8.15,3.606 -2.94,0.96 -5.73,1.921 -8.34,2.882 z m 93.73,46.551 v 23.895 c 0,2.609 1.44,3.914 4.33,3.914 h 32.75 c 2.74,0 4.11,-1.305 4.11,-3.914 v -23.895 h 22.46 c 2.88,0 4.32,-1.371 4.32,-4.117 v -27.399 c 0,-2.882 -1.44,-4.324 -4.32,-4.324 h -22.46 V 84.0742 c 0,-3.9804 0.76,-6.6601 2.27,-8.0312 1.51,-1.375 3.85,-2.0625 7,-2.0625 h 13.6 c 1.1,0 2.06,-0.3438 2.88,-1.0274 0.83,-0.6914 1.24,-1.7851 1.24,-3.2968 V 41.6406 c 0,-2.7461 -1.37,-4.1172 -4.12,-4.1172 h -13.6 c -9.33,0 -17.2,0.8907 -23.58,2.6758 -6.39,1.7852 -11.57,4.6367 -15.55,8.5469 -3.98,3.9141 -6.87,9.0312 -8.65,15.3477 -1.79,6.3164 -2.68,14.0078 -2.68,23.0703 v 29.8669 h -11.12 c -2.89,0 -4.33,1.442 -4.33,4.324 v 27.399 c 0,2.746 1.44,4.117 4.33,4.117 z M 3418.2,44.9375 c 0,-2.8828 -1.37,-4.3242 -4.12,-4.3242 h -32.95 c -2.75,0 -4.13,1.4414 -4.13,4.3242 V 148.957 c 0,2.609 1.38,3.914 4.13,3.914 h 32.75 c 2.88,0 4.32,-1.305 4.32,-3.914 v -5.562 c 6.05,5.359 12.12,8.617 18.23,9.785 6.11,1.168 12.33,1.754 18.64,1.754 2.89,0 4.33,-1.309 4.33,-3.914 v -30.899 c 0,-2.883 -1.38,-4.324 -4.12,-4.324 -3.85,0 -7.38,-0.137 -10.61,-0.414 -3.22,-0.274 -6.28,-0.824 -9.17,-1.649 -2.88,-0.82 -5.73,-1.957 -8.54,-3.398 -2.82,-1.441 -5.74,-3.398 -8.76,-5.871 z m 165.82,42.8438 c 0,-9.0625 -1.41,-16.7891 -4.22,-23.1719 -2.82,-6.3867 -6.73,-11.5703 -11.75,-15.5547 -5.01,-3.9805 -11.05,-6.8984 -18.12,-8.75 -7.07,-1.8555 -14.8,-2.7813 -23.18,-2.7813 -8.37,0 -16.06,0.9258 -23.06,2.7813 -7.01,1.8516 -13.01,4.7695 -18.03,8.75 -5.01,3.9844 -8.92,9.168 -11.74,15.5547 -2.81,6.3828 -4.22,14.1094 -4.22,23.1719 v 60.9727 c 0,2.746 1.37,4.117 4.12,4.117 h 32.75 c 2.88,0 4.32,-1.371 4.32,-4.117 V 89.2227 c 0,-2.1954 0.28,-4.3946 0.83,-6.5899 0.55,-2.1953 1.44,-4.1562 2.67,-5.8711 1.24,-1.7187 2.86,-3.125 4.85,-4.2226 1.99,-1.0977 4.49,-1.6485 7.51,-1.6485 3.03,0 5.57,0.5508 7.63,1.6485 2.06,1.0976 3.71,2.5039 4.94,4.2226 1.23,1.7149 2.13,3.6758 2.68,5.8711 0.55,2.1953 0.82,4.3945 0.82,6.5899 v 59.5313 c 0,2.746 1.38,4.117 4.12,4.117 h 32.76 c 2.88,0 4.32,-1.371 4.32,-4.117 z m 58.29,-0.6172 c 0,-4.3946 1.34,-8.2071 4.02,-11.4297 2.68,-3.2305 7.04,-4.8438 13.08,-4.8438 5.77,0 9.85,1.0625 12.25,3.1914 2.41,2.1289 3.61,4.9102 3.61,8.3438 0,2.7461 1.44,4.1211 4.32,4.1211 h 32.35 c 2.74,0 4.11,-1.375 4.11,-4.1211 V 79.543 c 0,-7.0039 -1.37,-13.1485 -4.11,-18.4375 -2.75,-5.2852 -6.63,-9.6797 -11.64,-13.1797 -5.01,-3.5039 -10.99,-6.1133 -17.92,-7.8281 -6.94,-1.7149 -14.59,-2.5743 -22.97,-2.5743 -8.52,0 -16.34,0.9258 -23.48,2.7813 -7.14,1.8516 -13.36,4.7695 -18.64,8.75 -5.29,3.9844 -9.41,9.168 -12.36,15.5547 -2.96,6.3828 -4.43,14.1094 -4.43,23.1719 v 17.9177 c 0,9.067 1.47,16.793 4.43,23.176 2.95,6.387 7.07,11.57 12.36,15.551 5.28,3.984 11.5,6.902 18.64,8.754 7.14,1.855 14.96,2.781 23.48,2.781 8.38,0 16.03,-0.961 22.97,-2.883 6.93,-1.922 12.91,-4.633 17.92,-8.137 5.01,-3.5 8.89,-7.726 11.64,-12.668 2.74,-4.945 4.11,-10.367 4.11,-16.269 v -2.887 c 0,-2.746 -1.37,-4.121 -4.11,-4.121 h -32.35 c -2.88,0 -4.32,1.375 -4.32,4.121 0,2.336 -1.17,4.496 -3.5,6.488 -2.34,1.993 -6.39,2.989 -12.16,2.989 -6.04,0 -10.43,-1.614 -13.18,-4.844 -2.74,-3.227 -4.12,-7.035 -4.12,-11.43 z m 99.49,65.7069 v 23.895 c 0,2.609 1.45,3.914 4.33,3.914 h 32.75 c 2.75,0 4.12,-1.305 4.12,-3.914 v -23.895 h 22.45 c 2.88,0 4.33,-1.371 4.33,-4.117 v -27.399 c 0,-2.882 -1.45,-4.324 -4.33,-4.324 H 3783 V 84.0742 c 0,-3.9804 0.75,-6.6601 2.26,-8.0312 1.51,-1.375 3.85,-2.0625 7.01,-2.0625 h 13.59 c 1.1,0 2.06,-0.3438 2.89,-1.0274 0.82,-0.6914 1.23,-1.7851 1.23,-3.2968 V 41.6406 c 0,-2.7461 -1.37,-4.1172 -4.12,-4.1172 h -13.59 c -9.34,0 -17.2,0.8907 -23.59,2.6758 -6.38,1.7852 -11.57,4.6367 -15.55,8.5469 -3.98,3.9141 -6.87,9.0312 -8.65,15.3477 -1.78,6.3164 -2.68,14.0078 -2.68,23.0703 v 29.8669 h -11.12 c -2.88,0 -4.33,1.442 -4.33,4.324 v 27.399 c 0,2.746 1.45,4.117 4.33,4.117 z m 194.86,-65.0897 c 0,-9.0625 -1.41,-16.7891 -4.22,-23.1719 -2.82,-6.3867 -6.73,-11.5703 -11.74,-15.5547 -5.02,-3.9805 -11.06,-6.8984 -18.13,-8.75 -7.07,-1.8555 -14.8,-2.7813 -23.18,-2.7813 -8.37,0 -16.06,0.9258 -23.06,2.7813 -7.01,1.8516 -13.01,4.7695 -18.03,8.75 -5.01,3.9844 -8.92,9.168 -11.74,15.5547 -2.81,6.3828 -4.22,14.1094 -4.22,23.1719 v 60.9727 c 0,2.746 1.37,4.117 4.12,4.117 h 32.75 c 2.88,0 4.33,-1.371 4.33,-4.117 V 89.2227 c 0,-2.1954 0.27,-4.3946 0.82,-6.5899 0.55,-2.1953 1.44,-4.1562 2.68,-5.8711 1.23,-1.7187 2.85,-3.125 4.84,-4.2226 1.99,-1.0977 4.5,-1.6485 7.51,-1.6485 3.03,0 5.57,0.5508 7.63,1.6485 2.06,1.0976 3.71,2.5039 4.94,4.2226 1.24,1.7149 2.13,3.6758 2.68,5.8711 0.55,2.1953 0.82,4.3945 0.82,6.5899 v 59.5313 c 0,2.746 1.38,4.117 4.12,4.117 h 32.76 c 2.88,0 4.32,-1.371 4.32,-4.117 z m 57.68,-42.8438 c 0,-2.8828 -1.38,-4.3242 -4.13,-4.3242 h -32.95 c -2.74,0 -4.12,1.4414 -4.12,4.3242 V 148.957 c 0,2.609 1.38,3.914 4.12,3.914 h 32.75 c 2.88,0 4.33,-1.305 4.33,-3.914 v -5.562 c 6.04,5.359 12.12,8.617 18.22,9.785 6.12,1.168 12.33,1.754 18.65,1.754 2.88,0 4.33,-1.309 4.33,-3.914 v -30.899 c 0,-2.883 -1.38,-4.324 -4.13,-4.324 -3.84,0 -7.37,-0.137 -10.61,-0.414 -3.22,-0.274 -6.28,-0.824 -9.16,-1.649 -2.89,-0.82 -5.73,-1.957 -8.55,-3.398 -2.81,-1.441 -5.73,-3.398 -8.75,-5.871 z m 87.12,43.2578 v -3.0898 c 0,-5.2188 1.52,-9.4102 4.54,-12.5664 3.02,-3.1602 7.82,-4.7383 14.41,-4.7383 4.81,0 8.59,0.6172 11.34,1.8555 2.74,1.2343 4.32,3.4335 4.73,6.5898 0.28,1.375 0.69,2.4023 1.24,3.0898 0.55,0.6875 1.58,1.0313 3.09,1.0313 h 30.28 c 2.75,0 4.12,-1.375 4.12,-4.1211 v -2.8828 c 0,-5.3555 -1.34,-10.2305 -4.02,-14.625 -2.67,-4.3945 -6.46,-8.1719 -11.33,-11.3281 -4.87,-3.1602 -10.74,-5.5977 -17.61,-7.3125 -6.86,-1.7149 -14.49,-2.5743 -22.86,-2.5743 -7.97,0 -15.45,0.9258 -22.46,2.7813 -7,1.8516 -13.11,4.7695 -18.33,8.75 -5.22,3.9844 -9.33,9.168 -12.36,15.5547 -3.02,6.3828 -4.53,14.1094 -4.53,23.1719 v 17.9177 c 0,9.067 1.48,16.793 4.43,23.176 2.95,6.387 7.07,11.57 12.36,15.551 5.29,3.984 11.5,6.902 18.64,8.754 7.14,1.855 14.97,2.781 23.48,2.781 8.38,0 16.04,-0.961 22.97,-2.883 6.93,-1.922 12.91,-4.703 17.92,-8.34 5.01,-3.64 8.89,-8.07 11.64,-13.289 2.74,-5.219 4.12,-11.054 4.12,-17.508 V 92.5195 c 0,-2.8828 -1.45,-4.3242 -4.33,-4.3242 z m 18.95,38.5157 c -5.49,0 -9.98,-1.508 -13.49,-4.531 -3.5,-3.02 -5.32,-7.141 -5.46,-12.356 h 37.08 c -0.13,5.215 -1.78,9.336 -4.94,12.356 -3.16,3.023 -7.55,4.531 -13.19,4.531 z m 232.14,-81.9805 c 0,-2.7461 -1.37,-4.1172 -4.11,-4.1172 h -32.75 c -2.89,0 -4.33,1.3711 -4.33,4.1172 v 71.8905 c -1.79,1.234 -3.64,2.129 -5.56,2.676 -1.92,0.551 -3.78,0.824 -5.56,0.824 -6.59,0 -11.71,-1.785 -15.35,-5.355 -3.64,-3.571 -5.46,-9.27 -5.46,-17.098 0,-8.1016 1.82,-13.9727 5.46,-17.6094 3.64,-3.6406 8.76,-5.4609 15.35,-5.4609 h 0.82 c 2.75,0 4.12,-1.4414 4.12,-4.3243 V 44.7305 c 0,-2.7461 -1.37,-4.1172 -4.12,-4.1172 h -0.82 c -9.34,0 -17.78,1.0976 -25.34,3.2969 -7.55,2.1953 -13.97,5.5586 -19.26,10.0898 -5.28,4.5313 -9.37,10.1953 -12.25,16.9922 -2.89,6.7969 -4.33,14.7969 -4.33,24 v 4.1172 c 0,8.9256 1.31,16.8246 3.91,23.6916 2.61,6.863 6.18,12.597 10.72,17.195 4.52,4.602 9.92,8.07 16.17,10.402 6.24,2.336 13.01,3.504 20.28,3.504 3.57,0 7.25,-0.515 11.02,-1.547 3.78,-1.027 7.18,-2.64 10.2,-4.835 v 1.234 c 0,2.746 1.44,4.117 4.33,4.117 h 32.75 c 2.74,0 4.11,-1.371 4.11,-4.117 z m 59.12,0.207 c 0,-2.8828 -1.37,-4.3242 -4.12,-4.3242 h -32.34 c -2.75,0 -4.12,1.4414 -4.12,4.3242 V 148.957 c 0,2.609 1.37,3.914 4.12,3.914 h 32.34 c 2.75,0 4.12,-1.305 4.12,-3.914 v -2.473 c 3.16,2.336 7.04,4.157 11.64,5.461 4.6,1.305 9.17,1.957 13.7,1.957 14.97,0 26.6,-4.636 34.91,-13.906 8.31,-9.269 12.46,-22.898 12.46,-40.8866 V 44.9375 c 0,-2.8828 -1.37,-4.3242 -4.11,-4.3242 h -32.14 c -2.74,0 -4.12,1.4414 -4.12,4.3242 V 97.668 c 0,7.828 -1.54,13.527 -4.63,17.098 -3.09,3.57 -7.93,5.355 -14.52,5.355 -1.93,0 -4.13,-0.344 -6.6,-1.031 -2.47,-0.684 -4.67,-1.852 -6.59,-3.5 z m 163.55,69.6215 c -2.06,1.921 -4.46,3.332 -7.21,4.222 -2.74,0.895 -5.15,1.34 -7.21,1.34 -6.59,0 -11.5,-1.785 -14.73,-5.355 -3.22,-3.571 -4.84,-9.27 -4.84,-17.098 0,-8.1016 1.82,-13.9727 5.46,-17.6094 3.64,-3.6406 8.76,-5.4609 15.35,-5.4609 h 2.88 c 2.75,0 4.12,-1.4414 4.12,-4.3243 V 44.7305 c 0,-2.7461 -1.37,-4.1172 -4.12,-4.1172 h -2.88 c -9.34,0 -17.78,1.0976 -25.34,3.2969 -7.55,2.1953 -13.97,5.5586 -19.25,10.0898 -5.29,4.5313 -9.38,10.1953 -12.26,16.9922 -2.89,6.7969 -4.33,14.7969 -4.33,24 v 4.1172 c 0,8.9256 1.31,16.8246 3.92,23.6916 2.6,6.863 6.18,12.597 10.71,17.195 4.53,4.602 9.92,8.07 16.17,10.402 6.25,2.336 13.01,3.504 20.29,3.504 3.98,0 8.1,-0.652 12.35,-1.957 4.26,-1.304 7.9,-3.332 10.92,-6.078 v 56.645 c 0,2.613 1.44,3.914 4.33,3.914 h 32.13 c 2.75,0 4.12,-1.301 4.12,-3.914 V 44.9375 c 0,-2.8828 -1.37,-4.3242 -4.12,-4.3242 h -32.34 c -2.75,0 -4.12,1.4414 -4.12,4.3242 z m 187.45,-12.977 35.84,97.223 c 0.41,1.234 0.89,2.129 1.44,2.679 0.55,0.551 1.58,0.825 3.09,0.825 h 35.01 c 2.89,0 4.33,-1.305 4.33,-3.914 V 44.9375 c 0,-2.8828 -1.37,-4.3242 -4.12,-4.3242 h -31.1 c -2.75,0 -4.12,1.4414 -4.12,4.3242 v 68.7965 l -22.66,-59.3199 c -0.41,-1.2383 -0.89,-2.1289 -1.44,-2.6797 -0.55,-0.5508 -1.58,-0.8242 -3.09,-0.8242 h -26.37 c -1.51,0 -2.5,0.3086 -2.98,0.9257 -0.48,0.6172 -1,1.4766 -1.55,2.5782 l -61.59,142.3319 c -0.68,1.512 -0.72,2.817 -0.1,3.914 0.62,1.098 1.75,1.649 3.4,1.649 h 35.02 c 2.47,0 4.18,-1.102 5.14,-3.297 z m -79.72,66.531 c 0,1.512 0.76,2.407 2.26,2.68 1.52,0.273 2.62,-0.344 3.3,-1.855 l 31.93,-73.9458 c 0.69,-1.5117 1.17,-2.8164 1.44,-3.9141 0.28,-1.0976 0.41,-2.3359 0.41,-3.707 V 44.5273 c 0,-2.6132 -1.37,-3.914 -4.11,-3.914 h -30.9 c -2.89,0 -4.33,1.3008 -4.33,3.914 z M 4953.39,44.7305 c 0,-2.7461 -1.37,-4.1172 -4.12,-4.1172 h -32.75 c -2.89,0 -4.33,1.3711 -4.33,4.1172 v 71.8905 c -1.78,1.234 -3.64,2.129 -5.56,2.676 -1.92,0.551 -3.78,0.824 -5.56,0.824 -6.59,0 -11.71,-1.785 -15.35,-5.355 -3.64,-3.571 -5.46,-9.27 -5.46,-17.098 0,-8.1016 1.82,-13.9727 5.46,-17.6094 3.64,-3.6406 8.76,-5.4609 15.35,-5.4609 h 0.82 c 2.75,0 4.12,-1.4414 4.12,-4.3243 V 44.7305 c 0,-2.7461 -1.37,-4.1172 -4.12,-4.1172 h -0.82 c -9.34,0 -17.78,1.0976 -25.34,3.2969 -7.55,2.1953 -13.97,5.5586 -19.26,10.0898 -5.28,4.5313 -9.37,10.1953 -12.26,16.9922 -2.88,6.7969 -4.32,14.7969 -4.32,24 v 4.1172 c 0,8.9256 1.31,16.8246 3.91,23.6916 2.61,6.863 6.18,12.597 10.72,17.195 4.53,4.602 9.92,8.07 16.16,10.402 6.25,2.336 13.02,3.504 20.29,3.504 3.57,0 7.25,-0.515 11.02,-1.547 3.78,-1.027 7.18,-2.64 10.2,-4.835 v 1.234 c 0,2.746 1.44,4.117 4.33,4.117 h 32.75 c 2.75,0 4.12,-1.371 4.12,-4.117 z m 27.81,108.1405 v 23.895 c 0,2.609 1.44,3.914 4.32,3.914 h 32.75 c 2.75,0 4.12,-1.305 4.12,-3.914 v -23.895 h 22.45 c 2.89,0 4.33,-1.371 4.33,-4.117 v -27.399 c 0,-2.882 -1.44,-4.324 -4.33,-4.324 h -22.45 V 84.0742 c 0,-3.9804 0.76,-6.6601 2.27,-8.0312 1.5,-1.375 3.84,-2.0625 7,-2.0625 h 13.59 c 1.11,0 2.07,-0.3438 2.89,-1.0274 0.82,-0.6914 1.23,-1.7851 1.23,-3.2968 V 41.6406 c 0,-2.7461 -1.37,-4.1172 -4.12,-4.1172 h -13.59 c -9.34,0 -17.2,0.8907 -23.59,2.6758 -6.38,1.7852 -11.57,4.6367 -15.55,8.5469 -3.98,3.9141 -6.86,9.0312 -8.65,15.3477 -1.78,6.3164 -2.67,14.0078 -2.67,23.0703 v 29.8669 h -11.13 c -2.88,0 -4.32,1.442 -4.32,4.324 v 27.399 c 0,2.746 1.44,4.117 4.32,4.117 z m 118.23,-64.6757 v -3.0898 c 0,-5.2188 1.51,-9.4102 4.53,-12.5664 3.02,-3.1602 7.83,-4.7383 14.42,-4.7383 4.8,0 8.58,0.6172 11.33,1.8555 2.74,1.2343 4.32,3.4335 4.74,6.5898 0.27,1.375 0.68,2.4023 1.23,3.0898 0.55,0.6875 1.58,1.0313 3.09,1.0313 h 30.28 c 2.75,0 4.12,-1.375 4.12,-4.1211 v -2.8828 c 0,-5.3555 -1.34,-10.2305 -4.02,-14.625 -2.67,-4.3945 -6.45,-8.1719 -11.33,-11.3281 -4.87,-3.1602 -10.74,-5.5977 -17.61,-7.3125 -6.86,-1.7149 -14.49,-2.5743 -22.86,-2.5743 -7.97,0 -15.45,0.9258 -22.46,2.7813 -7,1.8516 -13.11,4.7695 -18.33,8.75 -5.22,3.9844 -9.33,9.168 -12.36,15.5547 -3.02,6.3828 -4.53,14.1094 -4.53,23.1719 v 17.9177 c 0,9.067 1.48,16.793 4.43,23.176 2.95,6.387 7.07,11.57 12.36,15.551 5.29,3.984 11.5,6.902 18.64,8.754 7.14,1.855 14.97,2.781 23.48,2.781 8.38,0 16.04,-0.961 22.97,-2.883 6.93,-1.922 12.91,-4.703 17.92,-8.34 5.01,-3.64 8.89,-8.07 11.64,-13.289 2.74,-5.219 4.12,-11.054 4.12,-17.508 V 92.5195 c 0,-2.8828 -1.44,-4.3242 -4.33,-4.3242 z m 18.95,38.5157 c -5.5,0 -9.99,-1.508 -13.5,-4.531 -3.5,-3.02 -5.32,-7.141 -5.45,-12.356 h 37.07 c -0.14,5.215 -1.78,9.336 -4.94,12.356 -3.16,3.023 -7.55,4.531 -13.18,4.531 z m 112.46,-81.7735 c 0,-2.8828 -1.37,-4.3242 -4.12,-4.3242 h -32.95 c -2.75,0 -4.13,1.4414 -4.13,4.3242 V 148.957 c 0,2.609 1.38,3.914 4.13,3.914 h 32.75 c 2.88,0 4.32,-1.305 4.32,-3.914 v -5.562 c 6.04,5.359 12.12,8.617 18.23,9.785 6.11,1.168 12.32,1.754 18.64,1.754 2.89,0 4.33,-1.309 4.33,-3.914 v -30.899 c 0,-2.883 -1.38,-4.324 -4.12,-4.324 -3.85,0 -7.38,-0.137 -10.61,-0.414 -3.22,-0.274 -6.28,-0.824 -9.17,-1.649 -2.88,-0.82 -5.73,-1.957 -8.54,-3.398 -2.82,-1.441 -5.74,-3.398 -8.76,-5.871 z m 92.7,0 c 0,-2.8828 -1.38,-4.3242 -4.13,-4.3242 h -32.95 c -2.75,0 -4.12,1.4414 -4.12,4.3242 V 148.957 c 0,2.609 1.37,3.914 4.12,3.914 h 32.75 c 2.88,0 4.33,-1.305 4.33,-3.914 z M 5286.66,168.32 c -2.88,0 -4.32,1.371 -4.32,4.121 v 29.661 c 0,2.882 1.44,4.324 4.32,4.324 h 32.55 c 2.88,0 4.33,-1.442 4.33,-4.324 v -29.661 c 0,-2.75 -1.45,-4.121 -4.33,-4.121 z M 5453.51,44.7305 c 0,-2.7461 -1.37,-4.1172 -4.12,-4.1172 h -32.75 c -2.89,0 -4.33,1.3711 -4.33,4.1172 v 71.8905 c -1.78,1.234 -3.64,2.129 -5.56,2.676 -1.92,0.551 -3.77,0.824 -5.56,0.824 -6.59,0 -11.71,-1.785 -15.35,-5.355 -3.63,-3.571 -5.45,-9.27 -5.45,-17.098 0,-8.1016 1.82,-13.9727 5.45,-17.6094 3.64,-3.6406 8.76,-5.4609 15.35,-5.4609 h 0.83 c 2.74,0 4.11,-1.4414 4.11,-4.3243 V 44.7305 c 0,-2.7461 -1.37,-4.1172 -4.11,-4.1172 h -0.83 c -9.34,0 -17.78,1.0976 -25.34,3.2969 -7.55,2.1953 -13.97,5.5586 -19.26,10.0898 -5.28,4.5313 -9.37,10.1953 -12.25,16.9922 -2.89,6.7969 -4.33,14.7969 -4.33,24 v 4.1172 c 0,8.9256 1.31,16.8246 3.92,23.6916 2.61,6.863 6.18,12.597 10.71,17.195 4.53,4.602 9.92,8.07 16.17,10.402 6.24,2.336 13.01,3.504 20.28,3.504 3.58,0 7.25,-0.515 11.03,-1.547 3.77,-1.027 7.17,-2.64 10.19,-4.835 v 1.234 c 0,2.746 1.44,4.117 4.33,4.117 h 32.75 c 2.75,0 4.12,-1.371 4.12,-4.117 z m 59.73,0.207 c 0,-2.8828 -1.37,-4.3242 -4.11,-4.3242 h -32.97 c -2.74,0 -4.11,1.4414 -4.11,4.3242 V 202.512 c 0,2.613 1.37,3.914 4.11,3.914 h 32.76 c 2.88,0 4.32,-1.301 4.32,-3.914 z m 77.45,75.1835 c -0.69,2.195 -2.23,3.949 -4.64,5.254 -2.4,1.301 -4.97,1.953 -7.72,1.953 -4.12,0 -7.2,-0.719 -9.27,-2.16 -2.06,-1.441 -3.09,-3.328 -3.09,-5.664 0,-1.375 0.73,-2.609 2.17,-3.707 1.44,-1.098 3.36,-2.164 5.76,-3.195 2.41,-1.032 5.22,-2.024 8.45,-2.985 3.23,-0.961 6.69,-1.922 10.4,-2.883 10.98,-2.886 19.54,-6.73 25.65,-11.5348 6.1,-4.8086 9.16,-11.8125 9.16,-21.0117 0,-5.2187 -1.17,-10.0586 -3.5,-14.5195 -2.34,-4.4649 -5.63,-8.3438 -9.89,-11.6407 -4.26,-3.2968 -9.37,-5.871 -15.34,-7.7226 -5.97,-1.8555 -12.67,-2.7813 -20.09,-2.7813 -9.33,0 -17.26,1.3008 -23.79,3.9141 -6.52,2.6055 -11.81,5.7969 -15.86,9.5781 -4.05,3.7735 -6.96,7.8242 -8.75,12.1524 -1.79,4.3242 -2.68,8.2031 -2.68,11.6367 0,2.7461 1.38,4.1211 4.12,4.1211 h 25.34 c 2.74,0 4.53,-1.1016 5.35,-3.2969 2.33,-6.1797 7.35,-9.2695 15.04,-9.2695 4.26,0 7.48,0.7226 9.68,2.164 2.2,1.4414 3.29,3.3282 3.29,5.6641 0,1.5078 -0.61,2.7813 -1.85,3.8086 -1.24,1.0312 -2.92,1.957 -5.04,2.7812 -2.13,0.8282 -4.64,1.6133 -7.52,2.3711 -2.89,0.7539 -5.98,1.6133 -9.27,2.5743 -6.05,1.7851 -11.4,3.6718 -16.07,5.664 -4.67,1.9922 -8.62,4.2891 -11.84,6.8985 -3.23,2.6098 -5.7,5.5978 -7.42,8.9608 -1.72,3.363 -2.58,7.313 -2.58,11.844 0,5.355 1.14,10.301 3.4,14.832 2.27,4.531 5.43,8.445 9.48,11.742 4.05,3.293 8.86,5.871 14.42,7.723 5.56,1.855 11.7,2.781 18.44,2.781 5.21,0 10.53,-0.516 15.96,-1.543 5.42,-1.031 10.4,-2.852 14.93,-5.461 4.53,-2.609 8.34,-6.18 11.43,-10.711 3.09,-4.531 4.98,-10.367 5.67,-17.508 0.14,-1.511 -0.21,-2.578 -1.03,-3.195 -0.82,-0.617 -1.86,-0.926 -3.09,-0.926 h -22.45 c -2.75,0 -4.53,1.098 -5.36,3.297"
         style="fill:#ffffff;fill-opacity:1;fill-rule:nonzero;stroke:none"
         id="path50" />
    </g>
  </g>
</svg>
